<?xml version="1.0" encoding="UTF-8" standalone="no"?>
<!DOCTYPE svg PUBLIC "-//W3C//DTD SVG 1.1//EN" "http://www.w3.org/Graphics/SVG/1.1/DTD/svg11.dtd">
<svg width="100%" height="100%" viewBox="0 0 1866 804" version="1.1" xmlns="http://www.w3.org/2000/svg" xmlns:xlink="http://www.w3.org/1999/xlink" xml:space="preserve" xmlns:serif="http://www.serif.com/" style="fill-rule:evenodd;clip-rule:evenodd;stroke-linejoin:round;stroke-miterlimit:2;">
    <g id="Layer-1" serif:id="Layer 1" transform="scale(0.83) translate(250 100)">
        <path d="M1724.09,316.157c0,-94.258 -76.412,-170.667 -170.666,-170.667c-80.284,0 -147.425,55.505 -165.634,130.175c101.35,29.571 208.021,66.913 319.721,113.484c10.521,-22.154 16.579,-46.838 16.579,-72.992" style="fill:rgb(0,47,110);fill-rule:nonzero;"/>
        <path d="M1707.51,389.147c-27.379,57.688 -85.992,97.667 -154.088,97.667c-94.258,-0 -170.666,-76.404 -170.666,-170.659c-0,-13.979 1.866,-27.487 5.033,-40.491c-789.625,-230.4 -1255.95,9.337 -1255.95,9.337c0,0 808.821,-225.096 1463.56,422.904l226.829,-268.525c-38.829,-17.883 -77.025,-34.516 -114.721,-50.233" style="fill:rgb(35,31,32);fill-rule:nonzero;"/>
        <path d="M202.233,462.084l43.866,99.846l-87.733,0l43.867,-99.846Zm-141.488,211.3l47.046,0l32.25,-70.875l124.383,0l32.25,70.875l47.046,0l-141.487,-308.912l-141.488,308.912Z" style="fill:rgb(0,47,110);fill-rule:nonzero;"/>
        <path d="M521.685,553.344c-0,57 -20.963,84.708 -64.08,84.708c-43.12,0 -64.083,-27.708 -64.083,-84.708l0,-171.034l-43.583,0l-0,183.034c-0,68.208 43.271,114.037 107.666,114.037c64.392,0 107.659,-45.829 107.659,-114.037l-0,-183.034l-43.579,0l-0,171.034Z" style="fill:rgb(0,47,110);fill-rule:nonzero;"/>
        <path d="M740.308,468.599c0,32.908 -21.846,47.583 -70.829,47.583l-7.083,0l-0,-94.033l5.208,-0c49.604,-0 72.704,14.762 72.704,46.45m41.334,-1.496c-0,-29.658 -15.017,-56.9 -39.238,-71.129c-24.121,-13.663 -53.262,-13.663 -76.675,-13.663l-46.917,0l0,291.071l43.584,0l-0,-119.621l8.279,0l83.25,119.621l53.096,0l-90.067,-124.121c38.425,-7.741 64.688,-40.596 64.688,-82.158" style="fill:rgb(0,47,110);fill-rule:nonzero;"/>
        <path d="M957.85,462.084l43.867,99.846l-87.734,0l43.867,-99.846Zm0,-97.612l-141.487,308.912l47.05,0l32.245,-70.875l124.384,0l32.246,70.875l47.045,0l-141.483,-308.912Z" style="fill:rgb(0,47,110);fill-rule:nonzero;"/>
    </g>
</svg>
