<?xml version="1.0" encoding="UTF-8" standalone="no"?>
<svg
   xmlns:dc="http://purl.org/dc/elements/1.1/"
   xmlns:cc="http://creativecommons.org/ns#"
   xmlns:rdf="http://www.w3.org/1999/02/22-rdf-syntax-ns#"
   xmlns:svg="http://www.w3.org/2000/svg"
   xmlns="http://www.w3.org/2000/svg"
   xmlns:sodipodi="http://sodipodi.sourceforge.net/DTD/sodipodi-0.dtd"
   xmlns:inkscape="http://www.inkscape.org/namespaces/inkscape"
   width="200"
   height="144"
   viewBox="0 0 200 144"
   version="1.1"
   xml:space="preserve"
   style="clip-rule:evenodd;fill-rule:evenodd;stroke-linejoin:round;stroke-miterlimit:2"
   id="svg16"
   sodipodi:docname="cactus.svg"
   inkscape:version="1.0.1 (c497b03c, 2020-09-10)"><metadata
   id="metadata22"><rdf:RDF><cc:Work
       rdf:about=""><dc:format>image/svg+xml</dc:format><dc:type
         rdf:resource="http://purl.org/dc/dcmitype/StillImage" /><dc:title /></cc:Work></rdf:RDF></metadata><defs
   id="defs20" /><sodipodi:namedview
   id="namedview75"
   inkscape:document-rotation="0"
   showgrid="false"
   inkscape:zoom="0.8807515"
   inkscape:cx="98.877028"
   inkscape:cy="132.34124"
   inkscape:window-width="1408"
   inkscape:window-height="847"
   inkscape:window-x="0"
   inkscape:window-y="25"
   inkscape:window-maximized="0"
   inkscape:current-layer="svg16" />
    <g
   id="layer1" transform="scale(0.8) translate(20,10)">
        <path
   d="M 92.9492 103.078 C 92.9204 107.296 92.7023 111.542 92.7023 115.597 C 92.7023 117.382 94.041 118.831 95.6894 118.831 C 97.3382 118.831 98.6764 117.382 98.6764 115.597 C 98.6764 111.256 98.9264 106.696 98.9264 102.187 C 98.9264 102.143 98.9254 102.1 98.9239 102.057 C 99.2166 101.49 99.3495 100.83 99.2883 100.163 C 99.2883 100.163 99.2415 99.7058 99.2415 99.4768 C 99.2415 98.5434 99.0852 97.4586 98.8124 96.5726 C 98.3932 95.2119 98.3105 93.2077 98.3105 91.7797 C 98.3105 86.1104 96.8464 80.1324 97.5389 74.4605 C 97.624 74.2778 98.0342 73.3848 98.19 72.8928 C 98.654 71.4248 98.7043 69.6508 98.5092 67.7964 C 98.3115 65.913 97.8271 63.919 97.8271 62.346 C 97.8271 58.2385 98.2115 54.2307 98.2115 50.079 C 98.2115 45.9779 97.8196 41.5412 98.1965 37.4611 C 98.2767 36.5951 98.3474 35.0474 98.5639 33.6306 C 98.6391 33.1397 98.8412 32.3976 98.8945 32.2068 C 99.2883 31.7175 99.587 31.0908 99.7179 30.3115 C 99.8339 29.6212 99.6323 27.7868 99.5666 27.236 C 99.6408 26.9633 99.7219 26.6459 99.7871 26.3846 C 100.033 26.2493 100.245 26.1227 100.308 26.0655 C 101.276 25.1936 101.4 24.1815 101.4 23.5575 C 101.4 21.7726 100.061 20.3241 98.4131 20.3241 C 97.7818 20.3241 97.1963 20.5364 96.7144 20.8985 C 96.2649 21.1615 95.4813 21.6288 95.3832 21.7344 C 94.9934 22.1563 94.6334 22.7459 94.3681 23.4653 C 94.1251 24.125 93.9743 24.9926 93.7916 25.5692 C 93.6298 26.0822 93.5422 26.7435 93.586 27.4936 C 93.6074 27.8536 93.6875 28.4857 93.7483 28.9255 C 93.4401 29.5053 93.1723 30.2064 92.9771 30.9997 C 92.5081 32.902 93.0971 35.6952 92.9771 36.9934 C 92.5808 41.2819 92.9492 45.7688 92.9492 50.079 C 92.9492 54.2307 92.9771 58.3344 92.9771 62.4419 C 92.9771 63.9788 92.2035 65.7691 92.4623 67.632 C 92.6212 68.7751 92.8203 69.9046 92.5375 70.7986 C 92.2547 71.6943 93.0981 73.5028 92.9771 74.4605 C 92.2179 80.4503 92.3364 85.7892 92.3364 91.7797 C 92.3364 93.1479 92.4305 94.8816 92.6739 96.4616 C 91.2337 96.1766 89.8098 95.8193 88.4154 95.22 C 83.18 92.9701 77.2064 90.7153 75.1801 84.3089 C 74.2238 81.2829 74.5235 77.8167 73.5975 74.8883 C 72.7671 72.2623 72.5894 69.689 72.5894 66.7763 C 72.5894 65.9852 72.4838 64.7371 72.4589 63.5078 C 72.4475 62.9576 72.5236 62.0528 72.5401 61.8658 C 72.6775 61.6308 72.9234 61.4649 73.1106 61.252 C 73.4626 60.8511 73.7837 60.4318 74.0446 59.9883 C 74.5972 60.1149 75.2314 60.1925 75.5749 60.2281 C 75.7805 60.4657 76.4317 61.2423 76.5642 61.661 C 77.0978 63.3494 78.798 64.251 80.3577 63.6727 C 81.9175 63.095 82.7504 61.2552 82.2162 59.5669 C 81.5685 57.5174 79.3889 54.707 77.409 54.0313 C 76.9505 53.8744 75.9414 53.7963 75.5675 53.7726 C 74.3478 53.2337 72.5983 53.5759 71.2651 54.0313 C 70.2928 54.3632 69.9234 54.9706 69.5281 55.9772 C 69.4037 56.2941 68.8042 56.3523 68.7619 56.874 C 68.6355 57.0055 68.4866 57.1246 68.3627 57.2652 C 67.8793 57.817 67.4526 58.4055 67.1559 59.0479 C 66.8188 59.7776 67.2286 60.705 67.1559 61.8658 C 67.0533 63.4981 67.945 65.6408 67.945 66.7763 C 67.945 70.444 66.8995 73.6758 67.945 76.9825 C 68.8715 79.9109 68.5713 83.3771 69.5281 86.403 C 72.1567 94.7156 79.4183 98.3111 86.2109 101.23 C 88.3477 102.149 90.5322 102.641 92.7511 103.041 C 92.8163 103.053 92.8825 103.065 92.9492 103.078 Z M 119.241 42.0122 C 118.742 44.157 118.354 45.6772 118.354 48.1346 C 118.354 52.9572 118.602 56.8777 118.086 61.2105 C 117.789 61.5775 117.4 62.0835 117.201 62.4419 C 116.966 62.8628 116.802 63.3219 116.586 63.7482 C 116.514 63.836 116.439 63.9158 116.361 63.9864 C 115.293 64.9564 113.526 66.5273 111.846 67.6229 C 111.187 68.0529 110.613 68.5153 110.14 68.5153 C 108.492 68.5153 107.153 69.9639 107.153 71.7487 C 107.153 72.3776 107.32 72.9655 107.608 73.4619 C 107.591 74.5117 107.996 75.2176 108.384 75.6827 C 108.914 76.3159 109.623 76.7519 110.611 76.7519 C 112.226 76.7519 113.792 76.2378 115.277 75.4202 C 116.964 74.4928 118.544 73.1439 119.983 72.1195 C 120.724 71.5919 121.412 70.7744 121.965 69.7537 C 122.836 68.1445 123.395 65.9496 123.633 64.6023 C 124.633 58.9385 124.328 54.1983 124.328 48.1346 C 124.328 46.2501 124.68 45.1033 125.067 43.4462 C 126.588 43.2969 127.78 41.9114 127.78 40.2268 C 127.78 38.4425 126.442 36.9934 124.793 36.9934 C 124.125 36.9934 122.148 37.2881 121.181 37.8109 C 120.322 38.2749 119.807 38.9431 119.532 39.5381 C 119.287 40.0678 119.245 41.3558 119.241 42.0122 Z"
   style="fill:#5d9b39"
   id="path10" />
        <path
   d="M 98.7576 22.9523 C 98.3006 23.2395 97.844 23.7305 97.5384 24.5862 C 97.5249 24.6229 97.3347 25.0163 97.3347 25.8925 C 97.3347 26.003 97.3397 26.1119 97.3497 26.2197 C 97.3621 26.7634 97.389 27.9975 97.389 28.3392 L 97.389 34.1162 C 97.389 35.839 97.4463 37.632 97.6155 39.3473 C 97.6394 39.5844 97.737 40.2246 97.7948 40.5927 C 97.2511 41.9583 96.9813 43.5038 96.8966 45.12 C 96.7836 47.2734 97.0131 49.5713 97.0131 51.5124 C 97.0131 58.3743 97.6394 65.0265 98.0462 71.8317 C 98.202 74.44 97.7495 77.1921 97.7495 79.9475 C 97.7495 86.6143 97.9371 93.2342 97.9371 99.9025 C 97.9371 103.876 97.7773 107.846 97.7733 111.833 C 97.7091 112.344 97.3367 115.38 97.4458 116.135 C 97.5882 117.119 98.0118 117.733 98.3429 118.091 C 98.6954 118.473 99.4451 119.039 100.621 119.161 C 101.539 119.257 103.391 119.059 103.978 119.039 C 104.923 119.242 106.559 119.623 107.291 118.831 C 108.189 117.859 107.777 115.745 107.291 114.558 C 107.296 114.014 107.297 112.67 107.21 112.209 C 106.69 109.478 107.43 106.122 107.695 103.437 C 107.839 101.984 107.897 100.541 107.906 99.0882 C 107.948 98.9794 107.985 98.8624 108.017 98.7385 C 108.136 98.281 108.095 96.4368 108.095 96.4368 C 108.095 96.4368 108.099 96.5543 108.099 96.5894 L 108.099 92.7561 C 108.099 90.2578 108.304 88.2784 108.639 85.5629 C 108.754 85.5176 108.871 85.4632 108.988 85.3996 C 109.078 85.3511 109.175 85.3085 109.277 85.2724 C 109.601 85.384 110 85.4885 110.513 85.5947 C 113.65 86.243 116.999 84.1833 119.505 82.2454 C 120.195 81.7124 120.796 81.1401 121.431 80.6077 C 122.093 80.494 122.77 80.3415 123.339 80.1044 C 124.636 79.5639 125.576 78.6682 126.083 77.5721 C 126.392 76.9033 126.481 76.3191 126.452 75.819 C 126.93 75.1637 127.356 74.5391 127.695 74.0983 C 128.049 73.6386 128.389 73.1957 128.733 72.7667 C 129.168 72.5474 129.559 72.2105 129.864 71.7665 C 129.864 71.7665 130.752 70.4047 130.875 70.1309 C 131.165 69.4848 131.23 68.9119 131.195 68.4409 C 131.494 67.6687 132.461 65.0933 132.53 63.9594 C 132.536 63.8678 132.539 63.7778 132.54 63.6889 C 132.92 63.1468 133.145 62.471 133.145 61.7392 L 133.145 60.331 C 133.145 59.2349 133.073 58.1479 132.908 57.0782 C 132.689 55.6512 132.821 54.1105 132.822 52.6506 C 132.83 52.2793 132.851 51.001 132.777 50.4028 C 133.038 50.0569 133.234 49.6473 133.346 49.1925 C 133.346 49.1925 133.596 47.5736 133.335 46.7006 C 133.309 46.6122 133.28 46.5265 133.247 46.4435 C 133.159 45.778 133.021 45.0898 132.861 44.4421 C 132.879 44.2297 132.901 43.8687 132.884 43.4931 C 132.885 43.0458 132.862 42.5527 132.786 42.2196 C 132.571 41.2916 131.941 40.0236 131.414 39.2621 C 131.377 39.2093 130.342 38.1127 129.74 37.7225 C 128.865 37.155 127.999 37.4601 127.677 37.2181 C 125.024 35.2225 123.086 40.2397 123.839 43.4931 C 124.11 44.6673 123.839 46.4716 123.839 46.8148 C 123.839 49.2986 122.969 52.1451 123.475 54.5734 C 123.466 54.8084 123.446 55.4518 123.465 56.0053 C 123.403 56.4924 123.359 57.165 123.339 57.5153 C 123.115 58.8781 123.285 60.2669 122.916 61.5899 C 122.691 62.3907 122.573 63.2044 122.406 64.0214 C 122.316 64.4628 122.142 65.346 122.142 65.346 C 122.02 65.9647 121.242 66.1242 121.431 66.6798 L 121.391 66.7229 C 120.933 67.2246 120.268 68.525 119.773 69.5775 C 119.114 69.6109 119.249 70.3702 118.635 71.1791 C 118.561 71.2761 118.307 71.6269 118.086 71.9325 C 117.564 72.3146 116.476 71.8258 116.356 71.9325 C 114.802 73.3072 113.849 73.7895 111.961 74.5564 C 111.523 74.7342 111.04 74.9261 110.569 75.0651 C 110.52 75.0155 110.47 74.9697 110.423 74.9282 C 110.422 74.8059 110.421 74.6846 110.421 74.5634 L 109.407 74.26 L 107.695 74.5634 C 107.691 73.3751 107.977 71.8139 107.729 71.1791 C 107.625 69.3932 109.394 67.8713 108.988 66.1361 C 107.907 61.5107 107.35 56.41 108.361 51.8805 C 108.788 49.9679 108.412 47.704 108.017 45.9957 C 107.348 43.0975 108.124 39.4351 108.124 36.4297 C 108.124 35.3131 108.006 34.2083 108.006 33.0632 L 108.006 32.3669 C 108.037 32.1912 108.056 32.0096 108.062 31.8215 C 108.08 31.239 107.934 30.5519 107.901 30.4209 C 107.848 30.2151 107.791 30.0523 107.729 29.9273 C 107.414 28.4469 107.431 26.1787 106.673 24.5862 C 105.657 22.4533 104.06 21.1103 101.772 21.1103 C 100.61 21.1103 99.2515 21.9025 98.7576 22.9523 Z M 93.2679 95.3968 L 93.2679 88.9084 C 93.2679 87.2847 93.3834 85.8232 91.9416 85.5947 C 91.5881 85.3883 90.2504 85.4885 89.4519 85.2724 C 85.7648 84.2749 83.7132 81.4144 83.293 77.5721 C 82.8101 73.1488 82.3048 67.0382 82.4238 63.2492 C 82.5642 58.7644 78.3275 52.1117 76.4422 54.5734 C 76.0633 55.0681 74.1322 53.0753 73.3172 55.0288 C 73.2605 55.1646 72.5729 61.8103 72.5729 63.2492 C 72.5729 66.4594 72.1164 69.5963 72.5729 72.7667 C 72.904 75.07 72.9757 77.1512 73.3172 79.3666 C 73.6752 81.6936 74.1531 83.5194 75.4803 85.5629 C 77.1397 88.1173 78.8886 89.9884 81.0726 91.8653 C 82.383 92.9916 84.2693 94.3405 85.7086 95.3968 C 87.121 96.4331 88.2048 96.4368 89.997 96.4368 C 91.6454 96.4368 93.2679 97.1811 93.2679 95.3968 Z M 103.005 53.5279 C 103.022 54.4899 103.05 55.4486 103.086 56.4046 C 103.123 57.3606 103.168 58.3139 103.219 59.2661 C 103.265 57.3164 103.243 55.378 103.005 53.5279 Z M 132.822 52.6608 C 132.82 52.7201 132.819 52.7535 132.819 52.7535 L 132.822 52.6431 Z"
   style="fill:#4c7c2e"
   id="path12" />
        <path
   id="path79"
   d="M 111.21 119.232 C 114.5 119.049 114.461 118.17 111.155 117.997 L 108.851 117.877 L 108.851 86.5049 L 111.107 86.25 C 119.929 85.2514 128.332 78.3626 131.907 69.1949 C 133.502 65.1046 134.241 59.5798 134.241 51.7415 C 134.241 42.7149 133.853 40.957 131.26 38.2355 C 128.551 35.3918 125.296 34.8647 121.873 36.7169 C 120.393 37.5177 118.706 39.4777 118.099 41.0993 C 117.887 41.6678 117.598 46.3158 117.457 51.4289 C 117.222 59.964 117.131 60.8812 116.347 62.6397 C 115.055 65.5406 111.858 68.2022 109.666 68.2022 C 108.991 68.2022 108.956 67.403 108.74 47.2858 C 108.599 34.1598 108.365 25.8117 108.11 24.8708 C 107.627 23.087 105.975 21.1976 103.893 20.0476 C 102.696 19.3864 101.865 19.2447 99.8986 19.3648 C 97.7729 19.4947 97.152 19.7216 95.5828 20.9422 C 91.9754 23.7472 92.2537 21.023 92.1029 54.9652 C 91.9535 88.6071 92.2981 85.5494 88.8545 83.8136 C 86.6465 82.7008 84.5083 80.1771 83.8944 77.9595 C 83.6251 76.9868 83.4608 73.1768 83.4608 67.8983 L 83.4608 59.4025 L 82.4203 57.2345 C 79.1091 50.3349 70.5796 50.4804 67.5253 57.4883 C 66.6491 59.499 66.6446 59.5809 66.8686 69.8189 C 67.121 81.3643 67.3391 82.7331 69.7208 87.7023 C 73.6045 95.8058 81.5351 101.778 89.7471 102.783 L 92.0486 103.065 L 92.0486 117.916 L 89.6216 117.916 C 87.8304 117.916 87.1946 118.059 87.1946 118.463 C 87.1946 118.852 88.0176 119.085 90.0518 119.271 C 92.8825 119.53 106.311 119.505 111.21 119.232 Z M 103.624 96.6815 L 103.624 75.4466 L 107.062 75.5631 C 110.305 75.673 110.511 75.7323 110.702 76.6128 C 111 77.9822 111.634 77.8911 111.763 76.4609 C 111.859 75.4014 112.177 75.0619 113.959 74.1156 L 116.042 73.0097 L 116.858 73.8391 C 118.003 75.0037 118.304 74.876 118.039 73.3406 C 117.835 72.1631 117.989 71.8204 119.397 70.3244 C 120.592 69.0553 121.125 68.7314 121.546 69.0192 C 122.962 69.9881 123.691 68.7416 122.317 67.6999 C 121.609 67.1632 121.614 67.1061 122.557 64.8481 C 123.402 62.8261 123.651 62.5437 124.587 62.5437 C 125.925 62.5437 126.024 61.5193 124.72 61.1652 C 123.812 60.9184 123.786 60.8128 123.786 57.332 L 123.786 53.7526 L 124.939 53.5031 C 126.343 53.1992 126.217 52.2922 124.744 52.1052 L 123.705 51.9727 L 123.856 46.2447 C 123.973 41.8262 124.155 40.2155 124.653 39.2023 C 125.464 37.5533 125.838 37.5533 126.671 39.2023 C 127.259 40.369 127.333 41.7384 127.333 51.4289 C 127.333 61.9294 127.3 62.4408 126.442 64.9688 C 123.79 72.7839 117.897 77.9719 110.158 79.3046 C 108.082 79.6625 107.357 79.9228 107.357 80.3113 C 107.357 81.0383 108.63 81.083 111.921 80.4708 C 115.33 79.8371 115.367 79.8392 115.886 80.6853 C 116.646 81.9237 117.197 81.7464 116.938 80.3463 C 116.741 79.2804 116.893 79.0255 118.363 77.9515 C 119.267 77.2908 120.502 76.3547 121.106 75.8708 C 122.154 75.0317 122.248 75.0231 123.166 75.6735 C 124.499 76.6188 125.114 76.0933 124.18 74.807 L 123.441 73.7895 L 125.309 70.8218 C 127.127 67.9338 127.212 67.86 128.469 68.0809 C 130.014 68.3526 130.161 67.7705 128.792 66.7994 C 127.941 66.1964 127.853 65.9307 128.074 64.6309 C 128.892 59.8142 129.013 59.4882 130.149 59.0236 C 131.568 58.4438 131.562 57.74 130.134 57.4306 L 129.014 57.1881 L 129.014 48.0575 L 130.134 47.7913 C 131.567 47.4507 131.567 46.9194 130.134 46.5788 C 129.139 46.3422 129.013 46.1466 129.008 44.829 C 129.005 44.0131 128.754 42.0849 128.453 40.5442 C 128.151 39.0029 127.987 37.6535 128.088 37.5447 C 128.44 37.1631 131.074 39.7779 131.72 41.151 C 132.288 42.357 132.373 43.8045 132.374 52.3181 C 132.374 57.8014 132.195 63.0406 131.967 64.2413 C 131.743 65.4193 130.894 67.894 130.08 69.7402 C 128.372 73.6112 124.68 78.1325 121.13 80.6982 C 118.537 82.5725 113.945 84.3105 110.264 84.8111 C 108.806 85.0094 107.555 85.2331 107.486 85.308 C 107.416 85.3834 107.252 86.5572 107.121 87.9168 C 106.9 90.2034 106.809 90.3979 105.906 90.5111 C 104.586 90.6771 104.625 91.8082 105.957 91.9742 L 106.984 92.1019 L 106.984 101.291 L 105.957 101.418 C 105.346 101.495 104.93 101.792 104.93 102.153 C 104.93 102.513 105.346 102.811 105.957 102.887 L 106.984 103.015 L 106.984 107.628 C 106.984 112.212 106.979 112.243 106.051 112.496 C 105.537 112.635 105.117 113.002 105.117 113.311 C 105.117 113.642 105.502 113.874 106.051 113.874 C 106.922 113.874 106.984 114.009 106.984 115.895 L 106.984 117.916 L 103.624 117.916 Z M 98.8572 70.4672 C 98.9537 24.2128 98.9746 22.9976 99.6781 22.1558 C 100.259 21.4612 100.487 21.3938 100.843 21.8104 C 101.603 22.6996 102.13 24.9823 102.13 27.3821 C 102.13 29.6093 102.091 29.701 100.982 30.0502 C 99.5168 30.5115 99.5168 31.1204 100.982 31.5817 L 102.13 31.9433 L 102.13 41.0211 L 101.01 41.2636 C 100.394 41.3973 99.8897 41.678 99.8897 41.8882 C 99.8897 42.0984 100.394 42.3905 101.01 42.537 L 102.13 42.8033 L 102.13 51.971 L 101.01 52.2373 C 100.394 52.3838 99.8897 52.6565 99.8897 52.8435 C 99.8897 53.0305 100.394 53.3032 101.01 53.4498 L 102.13 53.716 L 102.13 62.8838 L 101.01 63.15 C 100.394 63.2966 99.8897 63.5693 99.8897 63.7563 C 99.8897 63.9433 100.394 64.216 101.01 64.3625 L 102.13 64.6287 L 102.13 84.7093 L 101.01 84.9755 C 100.394 85.1221 99.8897 85.4136 99.8897 85.6238 C 99.8897 85.834 100.394 86.1153 101.01 86.2484 L 102.13 86.4909 L 102.13 95.5692 L 100.982 95.9308 C 100.35 96.1297 99.8334 96.474 99.8334 96.6966 C 99.8334 96.9186 100.35 97.2635 100.982 97.4624 L 102.13 97.824 L 102.13 106.939 L 101.01 107.205 C 100.394 107.352 99.8897 107.624 99.8897 107.811 C 99.8897 107.998 100.394 108.271 101.01 108.418 L 102.13 108.684 L 102.13 117.916 L 98.7576 117.916 Z M 93.4122 113.609 C 93.2783 111.24 93.1688 107.611 93.1688 105.544 L 93.1688 101.785 L 91.7688 101.557 C 85.152 100.479 81.1812 98.7886 77.3 95.3968 C 72.8716 91.5269 69.2857 84.975 68.4622 79.2502 C 68.2581 77.8324 68.1471 72.5096 68.2153 67.4219 L 68.3388 58.1711 L 69.4589 56.687 C 70.6408 55.1215 72.4569 53.7311 72.8149 54.118 C 72.9314 54.2447 72.8582 54.8288 72.6521 55.4162 C 72.4455 56.0036 72.1647 57.9388 72.0278 59.7161 C 71.8023 62.6445 71.7047 62.9485 70.9923 62.9538 C 70.5596 62.9571 69.9538 63.1392 69.6456 63.358 C 69.1478 63.7121 69.1478 63.8005 69.6456 64.154 C 69.9538 64.3728 70.584 64.5549 71.046 64.5582 C 71.868 64.5646 71.8859 64.6649 71.8859 69.1803 L 71.8859 73.7965 L 70.7658 74.0628 C 69.3275 74.4044 69.2687 75.4774 70.6881 75.4774 C 71.7022 75.4774 71.7475 75.5738 72.3549 79.0136 L 72.9787 82.5504 L 72.0572 83.293 C 70.9151 84.213 71.2288 84.9049 72.6357 84.5702 C 73.6139 84.338 73.8116 84.5277 75.45 87.2696 C 77.1541 90.1204 77.1934 90.2546 76.6368 91.3049 C 75.8985 92.6969 76.1828 92.9803 77.5504 92.2151 C 78.6088 91.6223 78.7114 91.6573 81.2369 93.4745 C 83.6092 95.1817 83.8342 95.4641 83.8342 96.7273 C 83.8342 98.3747 84.2912 98.5154 84.9051 97.0566 C 85.2516 96.2331 85.5308 96.0558 86.1785 96.2493 C 87.3963 96.612 91.494 97.2511 94.3825 97.5287 L 96.9026 97.7712 L 96.9026 99.5312 C 96.9026 101.15 96.821 101.301 95.8761 101.418 C 95.2647 101.495 94.849 101.792 94.849 102.153 C 94.849 102.513 95.2647 102.811 95.8761 102.887 L 96.9026 103.015 L 96.9026 107.628 C 96.9026 112.212 96.8971 112.243 95.9692 112.496 C 95.4559 112.635 95.0357 113.002 95.0357 113.311 C 95.0357 113.642 95.421 113.874 95.9692 113.874 C 96.8404 113.874 96.9026 114.009 96.9026 115.895 L 96.9026 117.916 L 93.6557 117.916 Z M 87.9842 95.2577 C 84.9389 94.4979 82.2371 92.7432 79.3083 89.6235 C 77.7431 87.9562 76.0394 85.6825 75.5227 84.5713 C 73.5512 80.3302 73.3779 78.9651 73.4008 67.8255 C 73.4223 57.2534 73.712 54.6623 74.873 54.6623 C 75.1811 54.6623 75.7268 55.2988 76.0862 56.0769 C 76.6085 57.2086 76.7389 58.5564 76.7394 62.8148 L 76.7399 68.1381 L 75.6197 68.4043 C 75.0039 68.5509 74.4996 68.9335 74.4996 69.2547 C 74.4996 69.5807 74.9954 69.9461 75.6197 70.0813 L 76.7399 70.3239 L 76.7399 77.419 L 75.5919 77.8523 C 74.1685 78.3896 74.4941 79.1149 76.1589 79.1149 C 77.3149 79.1149 77.4578 79.2691 78.2404 81.3552 L 79.0803 83.5959 L 78.22 84.5869 C 77.1775 85.7882 77.4916 86.2974 78.8582 85.6233 C 79.7952 85.1614 79.9664 85.2449 81.5132 86.9193 C 82.9923 88.5204 83.1198 88.8028 82.725 89.602 C 82.482 90.0929 82.3855 90.7822 82.5099 91.1335 C 82.6991 91.667 82.9122 91.59 83.8018 90.6674 L 84.8677 89.5621 L 86.7779 90.6102 C 88.4328 91.5178 88.6882 91.819 88.6882 92.8634 C 88.6882 94.3378 89.6256 94.5092 89.9537 93.0946 C 90.1294 92.3358 90.5108 92.0593 91.6743 91.8465 C 92.4962 91.6961 93.1688 91.4348 93.1688 91.2655 C 93.1688 91.0969 91.7544 90.5537 90.0259 90.0595 C 86.3946 89.021 84.3056 87.7023 82.0275 85.0105 C 78.9025 81.3185 78.5944 80.0316 78.2185 69.107 C 78.0368 63.8301 77.7933 58.3753 77.6773 56.9861 C 77.4224 53.9386 77.8172 53.7526 79.8231 55.9762 C 81.9444 58.3279 82.6901 62.9377 80.9522 62.9538 C 80.5867 62.9571 80.0351 63.1392 79.727 63.358 C 79.2291 63.7121 79.2291 63.8005 79.727 64.154 C 80.0351 64.3728 80.6654 64.5549 81.1274 64.5582 C 81.9493 64.5646 81.9673 64.6649 81.9673 69.1803 L 81.9673 73.7965 L 80.8516 74.0617 C 79.255 74.4411 79.132 74.988 80.5539 75.3831 C 81.6357 75.6832 81.8612 75.9963 82.4606 78.0264 C 83.1322 80.3005 83.1307 80.3426 82.3725 81.3864 C 81.4893 82.6011 81.6765 83.3534 82.7125 82.7536 C 83.8392 82.101 84.3559 82.2643 86.0073 83.7942 C 87.2753 84.969 87.568 85.4998 87.568 86.6235 C 87.568 88.2547 87.9982 88.3878 88.8296 87.0147 C 89.3697 86.1228 89.6112 86.0463 91.2391 86.2554 L 93.0483 86.4871 L 93.2942 79.4663 C 93.4297 75.6051 93.5407 62.3287 93.5412 49.9636 C 93.5422 37.5986 93.6477 26.9127 93.7757 26.2175 C 94.0445 24.7646 96.689 21.3178 97.5349 21.3178 C 97.972 21.3178 98.0417 21.5754 97.8346 22.429 C 97.3746 24.3254 96.9365 29.0554 96.919 32.3044 C 96.9031 35.3869 96.8952 35.4112 95.8761 35.5378 C 95.2647 35.6143 94.849 35.9113 94.849 36.2723 C 94.849 36.6328 95.2647 36.9303 95.8761 37.0063 L 96.9026 37.134 L 96.9026 46.3228 L 95.8761 46.4505 C 95.2647 46.5265 94.849 46.824 94.849 47.1851 C 94.849 47.5456 95.2647 47.8431 95.8761 47.919 L 96.9026 48.0468 L 96.9026 52.6603 C 96.9026 57.2442 96.8971 57.2754 95.9692 57.5277 C 95.4559 57.6667 95.0357 58.0143 95.0357 58.2999 C 95.0357 58.585 95.4559 58.9326 95.9692 59.0721 C 96.8942 59.3233 96.9026 59.3675 96.9026 63.7563 C 96.9026 68.1451 96.8942 68.1887 95.9692 68.4404 C 95.4559 68.5794 95.0357 68.927 95.0357 69.2126 C 95.0357 69.4977 95.4559 69.8453 95.9692 69.9849 C 96.8966 70.2366 96.9026 70.2678 96.9026 74.8517 L 96.9026 79.4652 L 95.8761 79.593 C 95.2647 79.6689 94.849 79.9664 94.849 80.3275 C 94.849 80.688 95.2647 80.9855 95.8761 81.0615 L 96.9026 81.1892 L 96.9026 95.6856 L 93.2624 95.6765 C 91.26 95.6705 88.8848 95.483 87.9842 95.2583 Z M 103.536 49.1046 C 103.406 31.3284 103.224 23.6022 102.918 22.7772 C 102.678 22.1353 102.581 21.5032 102.701 21.3733 C 103.128 20.9109 104.923 22.3708 106.038 24.0883 C 107.118 25.7524 107.177 26.0531 107.302 30.5896 L 107.433 35.3465 L 106.243 35.6041 C 104.824 35.9113 104.9 36.8193 106.36 37.0063 L 107.357 37.134 L 107.357 41.7556 C 107.357 44.3521 107.205 46.3767 107.008 46.3767 C 106.816 46.3767 106.192 46.5691 105.621 46.8041 C 104.789 47.1463 104.691 47.3063 105.13 47.6059 C 105.431 47.8123 106.055 47.9837 106.517 47.9869 C 107.339 47.9934 107.357 48.0926 107.357 52.6414 C 107.357 55.2546 107.205 57.2895 107.008 57.2895 C 106.816 57.2895 106.192 57.4818 105.621 57.7168 C 104.789 58.059 104.691 58.2191 105.13 58.5187 C 105.431 58.7251 106.055 58.8965 106.517 58.8997 C 107.334 58.9062 107.357 59.022 107.357 63.0993 C 107.357 65.4058 107.466 67.8832 107.6 68.6048 C 107.841 69.9111 107.851 69.9159 109.653 69.6847 C 111.375 69.4643 111.492 69.5117 112.04 70.6596 C 112.757 72.1604 113.43 71.8096 113.133 70.0905 C 112.931 68.92 113.072 68.6764 114.75 67.2915 C 116.28 66.0304 116.787 65.8176 117.761 66.0288 C 119.112 66.3209 119.353 65.6645 118.185 64.875 C 117.267 64.2542 117.267 64.2833 118.203 61.5764 C 118.839 59.7345 119.15 59.3227 120.07 59.1039 C 121.498 58.7644 121.488 57.8327 120.052 57.4915 L 118.932 57.2253 L 118.932 48.0468 L 119.93 47.919 C 121.37 47.7347 121.471 46.8251 120.085 46.5249 C 119.019 46.2943 118.933 46.1504 118.941 44.608 C 118.952 42.3565 120.07 39.8404 121.634 38.5492 C 123.494 37.0133 123.803 37.1631 123.205 39.3123 C 122.868 40.5242 122.611 44.7126 122.443 51.7409 L 122.188 62.3417 L 121.091 64.7166 C 119.626 67.8886 117.181 70.6364 114.393 72.245 C 112.418 73.3843 111.585 73.6058 108.331 73.8553 C 106.255 74.0148 104.369 74.1716 104.139 74.205 C 103.835 74.2481 103.669 67.3507 103.536 49.1046 Z"
   style="fill-rule:nonzero" />
    </g>
</svg>
