<?xml version="1.0" encoding="UTF-8" standalone="no"?>
<!DOCTYPE svg PUBLIC "-//W3C//DTD SVG 1.1//EN" "http://www.w3.org/Graphics/SVG/1.1/DTD/svg11.dtd">
<svg width="100%" height="100%" viewBox="0 0 1155 1092" version="1.1" xmlns="http://www.w3.org/2000/svg" xmlns:xlink="http://www.w3.org/1999/xlink" xml:space="preserve" xmlns:serif="http://www.serif.com/" style="fill-rule:evenodd;clip-rule:evenodd;stroke-miterlimit:2;">
    <g>
        <path d="M890.029,517.117c64.567,43.941 112.625,42.912 169.933,-28.404c-93.162,-37.417 -114.87,-37.592 -169.933,28.404Z" style="fill:rgb(94,128,58);"/>
        <path d="M898.667,517.838c65.487,35.229 92.162,29.954 149.004,-21.667c-53.813,16.25 -103.417,-7.817 -149.004,21.667Z" style="fill:rgb(60,95,44);"/>
        <path d="M1048.4,490.808c-34.325,-14.391 -61.842,-27.708 -109.292,-6.529c57.15,0.167 50.584,16.867 109.292,6.529Z" style="fill:rgb(139,171,91);"/>
        <path d="M895.667,797.629c3.05,79.163 34.195,113.067 163.437,83.275c-32.625,-85.462 -59.746,-120.462 -163.437,-83.275Z" style="fill:rgb(94,128,58);"/>
        <path d="M895.667,797.629c66.246,21.259 44.112,73.659 163.437,83.275c-32.625,-85.462 -59.746,-120.462 -163.437,-83.275Z" style="fill:rgb(139,171,91);"/>
        <path d="M940.371,880.979c-22.338,-8.041 -38.925,-35.771 -40.758,-73.108c36.549,-0.025 45.275,55.212 93.57,77.858c-19.858,0.788 -33.387,2.238 -52.812,-4.75Z" style="fill:rgb(60,95,44);"/>
        <path d="M999.446,856.742c-57.992,-19.963 -57.7,-54.713 -93.767,-59.825c28.3,-6.296 55.942,-11.05 89.825,0.875c-44.417,7.316 -15.821,35.162 3.942,58.95Z" style="fill:rgb(94,128,58);"/>
        <path d="M615.704,154.021c-89.066,-61.138 -32.587,-101.142 -34.646,-153.804c72.404,40.333 91.117,81.72 34.646,153.804Z" style="fill:rgb(94,128,58);"/>
        <path d="M616.029,147.513c35.267,-57.98 39.404,-68.763 0.8,-110.988c39.129,76.117 -62.471,54.413 -0.8,110.988Z" style="fill:rgb(60,95,44);"/>
        <path d="M590.504,103.729c-39.246,-35.558 -3.85,-42.292 -1.442,-90.887c40.892,41.866 35.955,57.55 1.442,90.887Z" style="fill:rgb(139,171,91);"/>
        <path d="M785.079,493.808c24.029,-96.525 94.05,-134.029 144.213,-137.975c-5.617,-3.954 -11.234,-7.912 -16.859,-11.866c-21.429,1.671 -53.479,15.82 -70.541,29.975c15.187,-30.18 54.729,-77.213 78.662,-98.642c-6.662,-2.296 -7.079,-7.704 -13.733,-9.992c-59.571,67.667 -91.763,112.113 -136.729,196.659c5,10.612 9.991,21.225 14.987,31.841Z" style="fill:rgb(60,95,44);"/>
        <path d="M629.783,625.917c16.238,4.579 32.467,9.158 48.7,13.733c-5.696,-142.983 27.375,-279.821 104.884,-348.363c-10.821,-8.741 -21.642,-17.483 -32.463,-26.225c-66.425,86.017 -109.454,255.909 -121.121,360.855Z" style="fill:rgb(60,95,44);"/>
        <path d="M463.004,778.521c27.704,188.433 -126.208,242.291 -220.812,312.929c9.745,-152.412 -14.009,-327.946 220.812,-312.929Z" style="fill:rgb(48,79,36);"/>
        <path d="M463,778.517c18.642,126.762 -44.912,192.616 -117.308,243.662c48.312,-55.612 75.008,-88.942 76.937,-179.096c-38.037,21.03 -107.2,101.642 -150.6,162.813c-9.212,-84.504 37.308,-216.942 148.563,-227.942c13.112,-0.567 27.208,-0.412 42.408,0.563Z" style="fill:rgb(28,48,24);"/>
        <path d="M463.004,778.521c-66.383,41.158 -146.058,110.379 -220.812,312.929c9.745,-152.412 -14.009,-327.946 220.812,-312.929Z" style="fill:rgb(82,117,53);"/>
        <path d="M446.442,783.546c-112.413,12.604 -178.634,25.158 -184.063,180.116c50.492,-111.57 63.017,-123.587 184.063,-180.116Z" style="fill:rgb(48,79,36);"/>
        <path d="M868.392,560.246c-17.775,-14.642 -35.542,-29.283 -53.321,-43.925c-13.371,16.296 -44.542,45.962 -22.721,69.371c18.546,19.9 57.608,-14.263 76.042,-25.446Z" style="fill:rgb(94,128,58);"/>
        <path d="M851.508,546.458c-23.25,23.617 -49.387,43.23 -64.65,31.025c1.217,2.796 3.004,5.546 5.492,8.209c18.546,19.904 57.608,-14.267 76.042,-25.446l-16.884,-13.788Z" style="fill:rgb(60,95,44);"/>
        <path d="M818.7,555.233c25.521,-69.783 35.671,-100.521 119.975,-129.737c-5.246,88.454 -53.542,84.433 -119.975,129.737Z" style="fill:rgb(123,176,76);"/>
        <path d="M828.958,555.483c13.904,-97.858 19.871,-114.833 122.388,-131.508c-1.746,101.104 -15.188,105.967 -122.388,131.508Z" style="fill:rgb(248,237,218);"/>
        <path d="M951.346,423.971c-119.3,40.233 12.208,148.054 -114.592,116.675c12.479,-93.138 7.884,-103.179 114.592,-116.675Z" style="fill:rgb(235,212,174);"/>
        <path d="M818.7,555.233c32.2,-51.266 47.158,-56.633 95.704,-55.871c-21.858,41.113 -41.679,46.671 -95.704,55.871Z" style="fill:rgb(94,128,58);"/>
        <path d="M818.7,555.233c28.054,-66.383 29.525,-80.916 -11.038,-122.029c12.28,50.663 -27.245,46.5 11.038,122.029Z" style="fill:rgb(139,171,91);"/>
        <path d="M818.7,555.233c8.521,-71.233 5.862,-89.254 46.287,-127.916c-1.729,66.4 -12.716,82.662 -46.287,127.916Z" style="fill:rgb(94,128,58);"/>
        <path d="M818.7,555.233c74.658,-32.962 89.379,-11.741 137.262,-36.15c-41.037,53.775 -50.529,47.846 -137.262,36.15Z" style="fill:rgb(139,171,91);"/>
        <path d="M743.108,679.25c-103.308,-85.767 221.738,-271.563 408.971,34.987c-121.437,-56.541 -137.704,25.838 -224.187,52.188c-78.717,23.987 -177.192,-7.267 -184.784,-87.175Z" style="fill:rgb(48,79,36);"/>
        <path d="M743.112,679.246c-40.095,-33.283 -15.645,-81.617 40.184,-110.413c-18.575,39.067 -25.129,70.284 45.983,72.054c61.279,1.53 101.729,-29.462 207.221,9.167l-5.35,56.9c-31.946,16.538 -57.988,45.679 -103.263,59.471c-78.708,23.979 -177.191,-7.263 -184.775,-87.179Z" style="fill:rgb(28,48,24);"/>
        <path d="M743.108,679.25c69.555,31.883 261.75,-124.788 408.971,34.987c-121.437,-56.541 -137.704,25.838 -224.187,52.188c-78.717,23.987 -177.192,-7.267 -184.784,-87.175Z" style="fill:rgb(82,117,53);"/>
        <path d="M1089.51,647.671c-56.7,-63.775 -166.879,-105.5 -237.2,-84.113c-77.762,23.659 -53.571,85.688 52.554,52.913c55.188,-17.046 119.371,1.008 184.646,31.2Z" style="fill:rgb(82,117,53);"/>
        <path d="M759.583,696.887c77.821,117.834 178.521,63.559 270.588,-3.016c-121.746,32.312 -210.188,24.833 -270.588,3.016Z" style="fill:rgb(48,79,36);"/>
        <path d="M442.85,200.367c37.462,-62.167 54.638,-88.717 25.225,-170.771c-64.096,58.183 -31.45,92.475 -25.225,170.771Z" style="fill:rgb(123,176,76);"/>
        <path d="M408.592,165.625c22.029,4.558 44.058,9.113 66.087,13.671c-4.208,20.154 -7.683,62.046 -38.862,59.783c-26.505,-1.925 -24.442,-52.579 -27.225,-73.454Z" style="fill:rgb(94,128,58);"/>
        <path d="M429.429,170.033c-3.729,32.15 -2.642,64.059 15.992,68.196c-2.871,0.788 -6.059,1.108 -9.604,0.85c-26.505,-1.921 -24.442,-52.579 -27.225,-73.454l20.837,4.408Z" style="fill:rgb(60,95,44);"/>
        <path d="M436.375,192.712c65.946,-70.52 75.208,-85.458 25.096,-173.687c-75.867,63.263 -71.329,76.475 -25.096,173.687Z" style="fill:rgb(245,154,176);"/>
        <path d="M461.471,19.025c42.467,115.425 -120.138,81.412 -18.584,158.671c63.23,-66.55 73.688,-69.204 18.584,-158.671Z" style="fill:rgb(205,77,99);"/>
        <path d="M442.85,200.367c19.287,-55.909 14.208,-70.575 -16.117,-107.046c-17.891,41.816 -9.979,60.304 16.117,107.046Z" style="fill:rgb(94,128,58);"/>
        <path d="M442.85,200.367c33.329,-62.009 43.483,-72.029 99.617,-66.35c-46.075,21.691 -18.692,49.212 -99.617,66.35Z" style="fill:rgb(139,171,91);"/>
        <path d="M442.85,200.367c48.987,-50.117 64.325,-59.13 68.979,-113.58c-49.466,41.992 -55.108,60.321 -68.979,113.58Z" style="fill:rgb(94,128,58);"/>
        <path d="M442.85,200.367c-9.504,-57.317 -45.854,-68.821 -56.575,-126.588c-20.717,69.038 19.842,97.821 56.575,126.588Z" style="fill:rgb(139,171,91);"/>
        <path d="M427.317,301.371c-148.838,-21.208 -155.159,-149.758 -187.459,-237.183c113.192,41.491 251.375,62.791 187.459,237.183Z" style="fill:rgb(94,128,58);"/>
        <path d="M427.317,301.367c-100.125,-14.263 -135.75,-77.109 -158.184,-143.329c31.284,49.016 50.538,76.683 118.346,98.32c-7.408,-33.5 -52.946,-103.895 -89.533,-150.437c66.025,11.941 155.862,76.796 139.287,163.471c-2.504,10.05 -5.775,20.687 -9.916,31.975Z" style="fill:rgb(60,95,44);"/>
        <path d="M427.317,301.371c-16.3,-59.458 -50.867,-135.263 -187.459,-237.183c113.192,41.491 251.375,62.791 187.459,237.183Z" style="fill:rgb(139,171,91);"/>
        <path d="M427.213,287.708c15.616,-87.912 20.941,-140.845 -95.142,-179.637c73.154,63.192 79.45,75.362 95.142,179.637Z" style="fill:rgb(94,128,58);"/>
        <path d="M158.304,539.487c-73.929,25.163 -119.979,11.371 -156.221,-72.637c99.759,-11.25 120.73,-5.642 156.221,72.637Z" style="fill:rgb(94,128,58);"/>
        <path d="M149.8,537.883c-72.517,16.517 -96.817,4.334 -137.858,-60.571c47.533,29.988 101.762,20.009 137.858,60.571Z" style="fill:rgb(60,95,44);"/>
        <path d="M12.667,471.95c36.916,-4.729 66.979,-10.238 107.079,22.812c-55.129,-15.058 -53.246,2.788 -107.079,-22.812Z" style="fill:rgb(139,171,91);"/>
        <path d="M892.696,353.258c42.571,66.817 86.562,80.388 183.129,-10.525c-71.283,-57.341 -112.35,-73.887 -183.129,10.525Z" style="fill:rgb(94,128,58);"/>
        <path d="M892.696,353.258c67.929,-15.058 75.246,41.354 183.129,-10.525c-71.283,-57.341 -112.35,-73.887 -183.129,10.525Z" style="fill:rgb(139,171,91);"/>
        <path d="M973.346,402.683c-23.35,4.321 -51.659,-11.258 -72.071,-42.57c31.546,-18.455 66.938,24.837 120.063,20.029c-16.75,10.704 -27.701,18.775 -47.992,22.541Z" style="fill:rgb(60,95,44);"/>
        <path d="M1012.12,351.954c-60.138,12.021 -77.421,-18.137 -111.138,-4.362c21.263,-19.705 42.734,-37.754 78.001,-44.55c-34.659,28.725 4.079,38.345 33.137,48.912Z" style="fill:rgb(94,128,58);"/>
        <path d="M209.85,580.762c-1.612,79.213 -32.137,113.675 -161.9,86.238c31.071,-86.046 57.546,-121.533 161.9,-86.238Z" style="fill:rgb(94,128,58);"/>
        <path d="M209.85,580.762c-65.854,22.463 -42.771,74.45 -161.9,86.238c31.071,-86.046 57.546,-121.533 161.9,-86.238Z" style="fill:rgb(139,171,91);"/>
        <path d="M166.662,664.912c22.192,-8.445 38.271,-36.47 39.421,-73.837c-36.541,0.637 -44.258,56.025 -92.133,79.546c19.867,0.429 33.421,1.629 52.712,-5.709Z" style="fill:rgb(60,95,44);"/>
        <path d="M107.158,641.754c57.617,-21.012 56.696,-55.754 92.659,-61.525c-28.404,-5.767 -56.134,-10.025 -89.792,2.513c44.546,6.512 16.458,34.87 -2.867,59.012Z" style="fill:rgb(94,128,58);"/>
        <path d="M902.713,286.446c-14.88,-92.304 43.908,-80.808 75.674,-113.542c17.959,69.442 3.209,105.879 -75.674,113.542Z" style="fill:rgb(94,128,58);"/>
        <path d="M906.988,282.762c57.374,-12.529 66.604,-16.375 70.008,-65.77c-24.317,69.958 -71.388,-6.646 -70.008,65.77Z" style="fill:rgb(60,95,44);"/>
        <path d="M919.175,240.625c-1.154,-45.817 24.196,-27.662 56.075,-55.171c-1.808,50.617 -14.583,56.896 -56.075,55.171Z" style="fill:rgb(139,171,91);"/>
        <path d="M397.692,745.154c63.654,-105.933 -275.238,-168.45 -344.629,154.813c88.295,-86.063 127.483,-19.446 210.625,-22.867c75.687,-3.112 151.72,-60.221 134.004,-131.946Z" style="fill:rgb(94,128,58);"/>
        <path d="M397.683,745.15c24.709,-41.108 -11.229,-75.658 -68.495,-83.692c28.025,28.292 43.216,53.413 -18.025,76.588c-52.771,19.966 -97.342,5.35 -177.217,71l21.954,47.808c32.783,4.638 64.271,22.033 107.792,20.242c75.675,-3.113 151.716,-60.213 133.991,-131.946Z" style="fill:rgb(60,95,44);"/>
        <path d="M397.692,745.154c-50.725,48.854 -265.346,-28.771 -344.629,154.813c88.295,-86.063 127.483,-19.446 210.625,-22.867c75.687,-3.112 151.72,-60.221 134.004,-131.946Z" style="fill:rgb(139,171,91);"/>
        <path d="M87.163,823.108c29.858,-72.654 112.879,-142.421 180.47,-145.233c74.75,-3.113 72.604,58.142 -29.558,61.954c-53.125,1.983 -103.392,37.192 -150.912,83.279Z" style="fill:rgb(139,171,91);"/>
        <path d="M388.746,765.487c-31.75,126.038 -135.746,109.525 -235.975,79.705c115.591,-8.971 190.146,-42.38 235.975,-79.705Z" style="fill:rgb(94,128,58);"/>
        <path d="M613.129,194.433c-119.75,22.167 -58.162,32.588 -73.291,74.55c-3.934,10.909 0.295,21.088 7.229,29.834c21.791,27.5 25.22,19.4 46.916,27.712c39.546,15.15 51.125,66.313 145.129,-0.35c-78.512,-22.112 -93.408,-49.333 -125.983,-131.746Z" style="fill:rgb(237,144,165);"/>
        <path d="M703.05,306.733c-36.967,-23.87 -63.296,-49.7 -85.321,-92.571c-102.375,37.9 -5.029,126.592 85.321,92.571Z" style="fill:rgb(181,71,86);"/>
        <path d="M653.117,81.108c-24.6,-7.721 -38.4,-0.275 -80.713,34.35c-26.996,22.088 -9.783,40.909 -6.304,68.505c3.392,26.883 -17.663,34.32 57.258,59.324c10.713,-68.02 18.442,-90.287 62.084,-150.654c-9.271,-0.2 -22.313,-8.379 -32.325,-11.525Z" style="fill:rgb(224,116,140);"/>
        <path d="M593.879,142.537c-6.996,-58.249 64.242,-55.462 99.3,-44.783c-58.537,30.496 -68.354,91.629 -74.204,154.163c-23.104,-35.517 -37.229,-39.259 -27.383,-78.792c2.687,-10.767 2.862,-25.862 2.287,-30.588Z" style="fill:rgb(181,71,86);"/>
        <path d="M681.908,145.404c-20.979,-54.737 58.409,-85.533 83.767,-30.754c-49.3,-4.471 -56.383,11.796 -83.767,30.754Z" style="fill:rgb(102,11,24);"/>
        <path d="M782.638,205.271c7.066,-35.6 13.741,-70.904 19.149,-106.825c32.251,12.396 40.996,52.566 28.025,81.55c-10.158,22.704 -24.508,24.787 -47.174,25.275Z" style="fill:rgb(181,71,86);"/>
        <path d="M803.725,115.842c18.204,81.216 -42.054,100.004 -75.533,98.745c-86.73,-3.258 -78.854,-133.524 -3.788,-146.329c42.879,-7.316 73.763,7 79.321,47.584Z" style="fill:rgb(138,36,49);"/>
        <path d="M669.196,122.875c1.221,-20.6 -2.679,-22.425 11.321,-37.021c5.575,-5.804 11.145,-11.616 16.721,-17.421c26.654,-20.183 41.554,-8.016 58.675,-4.295c9.32,2.025 12.05,0.216 25.47,3.041c20.538,4.321 20.8,32.346 22.342,48.663c-5.858,-18.513 -6.442,-19.804 -23.454,-31.355c-20.133,-13.662 -39.142,-16.412 -62.313,-8.362c-33.65,11.688 -35.683,15.704 -48.762,46.75Z" style="fill:rgb(224,116,140);"/>
        <path d="M867.312,248.717c48.342,40.929 3.33,49.296 -2.358,86.52c-4.071,26.642 -18.95,18.713 -38.075,21.609c-43.1,6.512 -74.725,37.646 -124.687,-45.4c77.354,0.721 92.462,-17.463 165.12,-62.729Z" style="fill:rgb(237,144,165);"/>
        <path d="M879.271,269.179c19.671,28.029 -6.867,23.309 -28.413,26.138c-21.941,2.875 -44.566,27.933 -43.854,46.258c1.513,39.229 -79.137,23.213 -90.691,-17.75c46.35,-13.333 102.679,-46.721 138.304,-79.337c10.72,8.266 16.658,13.287 24.654,24.691Z" style="fill:rgb(181,71,86);"/>
        <path d="M733.471,96.792c47.491,15.854 -30.709,99.037 -48.483,63.933c-3.559,-7.042 -5.471,-47.058 29.862,-59.946c6.204,-1.329 12.417,-2.658 18.621,-3.987Z" style="fill:rgb(181,71,86);"/>
        <path d="M730.117,184.692c-41.109,-28.396 -35.492,-43.7 -12.113,-57.884c23.733,-14.4 38.821,7.296 32.617,26.205c-3.833,11.708 -12.054,23.504 -20.504,31.679Z" style="fill:rgb(102,11,24);"/>
        <path d="M694.079,122.758c85.375,-39.166 109.084,35.142 18.488,69.325c-8.129,-4.829 -36.775,-52.846 -18.488,-69.325Z" style="fill:rgb(138,36,49);"/>
        <path d="M760.846,275.517c-37.371,22.287 -72.496,48.816 -104.884,4.666c37.267,0.888 67.684,5.446 104.884,-4.666Z" style="fill:rgb(181,71,86);"/>
        <path d="M718.754,153.942c1.546,5.6 5.142,12.929 10.504,25.462c3.2,-7.862 6.396,-15.721 9.588,-23.587c14.771,-36.329 -27.579,-28.95 -20.092,-1.875Z" style="fill:rgb(138,36,49);"/>
        <path d="M698.888,144.883c3.683,19.267 15.279,30.58 32.945,40.104c-6.7,4.709 -13.254,10.909 -21.15,13.251c-9.387,-22.267 -18.321,-36.463 -11.795,-53.355Z" style="fill:rgb(138,36,49);"/>
        <path d="M729.325,179.246c-3.471,-9.304 -12.55,-29.046 -7.304,-38.917c6.629,-12.508 19.558,-6.062 19.654,5.867c5.042,-9.604 -3.125,-22.267 -16.55,-20.354c-15.221,2.166 -20.162,27.587 4.2,53.404Z" style="fill:rgb(224,116,140);"/>
        <path d="M727.842,177.454c20.625,-22.2 30,-30.887 19.512,-52.629c22.996,26.412 5.571,39.463 -19.512,52.629Z" style="fill:rgb(237,144,165);"/>
        <path d="M729.417,183.688c-18.938,-17.963 -24.242,-19.684 -30.529,-38.805c-0.98,18.438 13.983,32.484 30.529,38.805Z" style="fill:rgb(237,144,165);"/>
        <path d="M703.154,139.288c10.938,-14.017 29.183,-22.196 44.467,-9.405c-12.909,-20.312 -40.079,-11.054 -44.467,9.405Z" style="fill:rgb(248,203,212);"/>
        <path d="M701.683,127.117c-11.195,28.316 -3.196,41.796 8.384,68.846c-5.738,-1.78 -11.479,-3.555 -17.217,-5.334c-8.371,-11.766 -16.621,-23.787 -20.412,-37.892c9.754,-9.854 16.825,-19.704 29.245,-25.62Z" style="fill:rgb(138,36,49);"/>
        <path d="M701.683,127.117c-6.375,34.325 -2.729,36.287 8.779,69.462c-9.225,-15.475 -33.37,-60.737 -8.779,-69.462Z" style="fill:rgb(237,144,165);"/>
        <path d="M734.096,96.733c-32.042,-1.512 -69.629,21.646 -49.108,63.992c1.374,-35.138 13.366,-56.708 49.108,-63.992Z" style="fill:rgb(237,144,165);"/>
        <path d="M751.608,98.112c19.196,-6.595 34.438,7.971 40.129,24.488c17.596,40.192 -3.591,46.642 -22.745,18.137c-4.963,-13.725 -12.429,-28.895 -17.384,-42.625Z" style="fill:rgb(181,71,86);"/>
        <path d="M763.079,96.575c28.958,9.658 13.946,22.192 34.958,46.621c-1.866,-20.696 -9.166,-51.009 -34.958,-46.621Z" style="fill:rgb(246,159,177);"/>
        <path d="M771.025,132.204c27.071,10.971 21.537,45.038 18.129,61.925l-76.587,-2.046c43.654,-22.275 51.762,-20.087 58.458,-59.879Z" style="fill:rgb(181,71,86);"/>
        <path d="M792.217,191.988c8.187,-24.146 2.104,-51.188 -16.784,-57.634c19.18,21.321 14.717,31.492 11.517,56.679c-1.033,8.205 2.9,7.946 5.267,0.955Z" style="fill:rgb(246,159,177);"/>
        <path d="M686.317,103.783c29.75,-22.433 49.821,-16.883 76.187,4.517c-11.25,-31.971 -48.754,-36.921 -76.187,-4.517Z" style="fill:rgb(237,144,165);"/>
        <path d="M701.125,201.883c-33.904,33.979 -107.029,-64.895 -23.042,-97.866c-8.658,43.125 -9.587,65.337 23.042,97.866Z" style="fill:rgb(246,159,177);"/>
        <path d="M669.979,125.662c-18.608,12.392 -20.241,28.721 -20.383,49.805c-16.908,-37.53 -9.217,-56.038 28.487,-71.45c-4.341,8.841 -6.283,11.941 -8.104,21.645Z" style="fill:rgb(232,130,152);"/>
        <path d="M703.571,203.55c-46.708,-40.512 -50.246,-83.563 -25.488,-99.533c-4.495,46.054 0.896,57.4 25.488,99.533Z" style="fill:rgb(253,235,240);"/>
        <path d="M712.567,192.083c20.229,-11.333 34.962,-17.262 43.087,-28.22c13.433,-18.117 8.884,-39.417 -11.725,-47.434c-13.233,-5.15 -35.141,0.033 -49.85,6.329c15.879,-9.108 24.134,-14.846 42.863,-17.45c14.437,-2.008 18.725,-7.433 30.437,9.071c25.959,26.65 -12.962,71.938 -54.812,77.704Z" style="fill:rgb(248,203,212);"/>
        <path d="M801.787,98.446c17.292,1.846 48.163,3.954 42.992,49.091c-2.671,23.317 -6.912,29.542 -28.154,51.655c12.367,-45.455 16.408,-77.713 -14.838,-100.746Z" style="fill:rgb(224,116,140);"/>
        <path d="M800.754,195.063l-50.829,66.82c-22.292,-33.62 -35.9,-42.595 -65.196,-54.871c43.983,-15.091 69.35,-19.787 116.025,-11.949Z" style="fill:rgb(246,159,177);"/>
        <path d="M698.225,204.283c-3.583,1.254 -10.15,3.363 -13.737,4.621c28.066,11.238 33.72,11.629 59.791,42.725c2.629,3.696 5.263,7.392 7.892,11.084c4.058,-18.08 13.646,-27.271 31.687,-46.892c6.909,-6.867 13.821,-13.738 20.73,-20.608c-3.484,0.145 -6.967,0.291 -10.451,0.441c-7.2,3.1 -28.67,36.371 -57.816,25.642c-0.009,-0.004 -23.496,-11.579 -38.096,-17.013Z" style="fill:rgb(232,130,152);"/>
        <path d="M683.921,207.567c37.483,-3.396 28.671,1.029 59.15,-10.659c13.537,-5.183 18.171,10.071 58.462,-1.975c-52.716,-12.929 -68.154,-11.629 -117.612,12.634Z" style="fill:rgb(253,235,240);"/>
        <path d="M834.517,165.242c53.804,-27.4 79.321,40.379 37.204,88.862c-33.538,38.604 -111.038,109.596 -167.5,75.563c-16.658,-10.042 -36.846,-11.9 -59.379,-13.575c-13.475,-1 -84.792,-34.9 -19.788,-31.175c30.946,1.775 49.813,16.495 73.463,11.07c95.629,-21.954 107.725,-69.395 136,-130.745Z" style="fill:rgb(224,116,140);"/>
        <path d="M620.95,307.554c18.671,-13.258 28.204,-13.266 47.954,-6.625c32.875,11.054 34.304,4.521 72.546,-5.866c30.496,-8.28 100.837,-30.971 99.429,-9.467c-38.687,35.141 -93.75,69.937 -136.658,44.071c-16.658,-10.042 -36.842,-11.9 -59.379,-13.575c-4.25,-0.317 -14.234,-3.9 -23.892,-8.538Z" style="fill:rgb(246,159,177);"/>
        <path d="M825.692,177.1c40.32,-33.692 70.979,6.775 38.262,46.625c-23.291,28.371 -60.729,38.988 -93.8,51.767c39.392,-35.421 39.784,-36.513 55.538,-98.392Z" style="fill:rgb(181,71,86);"/>
        <path d="M640.483,173.663c-8.366,-11.5 -7.454,-5.284 -18.175,-27.742c-10.725,-22.459 -22.783,-11.408 -23.075,12.508c-0.408,34.079 22.496,60.667 44.88,84.409c-5.413,-32.684 -3.359,-36.634 -3.63,-69.175Z" style="fill:rgb(214,109,130);"/>
        <path d="M639.771,173.967c-14.346,-24.246 -24.988,-6.467 -24.596,12.958c0.367,18.4 12.817,38.467 28.621,51.025c-4.583,-27.958 -2.433,-35.737 -4.025,-63.983Z" style="fill:rgb(181,71,86);"/>
        <path d="M842.846,214.071c-2.754,-14.083 -14.638,-11.3 -25.792,-10.642l-12.254,39.409l38.046,-28.767Z" style="fill:rgb(138,36,49);"/>
        <path d="M637.775,169.792c-7.713,21.025 -6.7,33.108 0.038,51.962c14.824,-3.062 29.754,-6.383 44.575,-9.446c-21.738,-16.146 -31.93,-20.987 -44.613,-42.516Z" style="fill:rgb(246,159,177);"/>
        <path d="M667.029,202.846c-45.45,-22.933 -51.325,-98.65 0.904,-94.129c-22.933,17.004 -38.6,54.729 1.742,88.471c6.138,5.133 8.754,11.291 -2.646,5.658Z" style="fill:rgb(253,235,240);"/>
        <path d="M804.463,244.608c-18.155,6.375 -36.313,12.755 -54.475,19.129c9.204,-37.354 45.612,-63.495 75.245,-85.654c0.609,20.446 -3.816,41.096 -20.77,66.525Z" style="fill:rgb(237,144,165);"/>
        <path d="M630.092,220.133c50.766,-30.333 97.487,-6.296 124.096,45.579c-23.355,7.626 -46.705,15.251 -70.063,22.867c-26.025,-22.966 -34.1,-31.071 -54.033,-68.446Z" style="fill:rgb(246,159,177);"/>
        <path d="M746.054,254.925c-57.987,25.558 -79.312,12.967 -110.896,-37.65c-4.233,2.025 -6.371,2.971 -10.6,4.988c48.009,85.233 61.975,64.158 130.55,41.57c-4.045,-4.07 -5.012,-4.846 -9.054,-8.908Z" style="fill:rgb(232,130,152);"/>
        <path d="M657.925,208.675c50.021,4.842 62.163,21.779 94.733,54.125c-6.158,-43.446 -47.987,-63.592 -94.733,-54.125Z" style="fill:rgb(253,235,240);"/>
        <path d="M751.65,256.846c8.833,-35.904 42.054,-57.721 74.613,-83.709c-8.013,33.621 -22.351,12.263 -31.58,41.742c-4.991,15.929 -26.712,27.55 -43.033,41.967Z" style="fill:rgb(253,235,240);"/>
        <path d="M690.567,293.575c-45.396,-33.604 -51.696,-41.508 -87.654,-89.688c-5.134,56.83 33.883,100.18 87.654,89.688Z" style="fill:rgb(235,135,156);"/>
        <path d="M596.654,201.025c5.404,15.554 13.613,31.079 29.575,36.267c2.25,27.587 39.6,53.837 60.684,56.504c24.412,3.091 -5.776,-14.513 -9.317,-17.3c-21.142,-16.621 -24.596,-23.663 -37.3,-44.533c-8.408,-13.809 -18.883,-28.984 -27.079,-35.838c-16.846,-14.079 -24.129,-16.917 -16.563,4.9Z" style="fill:rgb(253,235,240);"/>
        <path d="M681.271,284.092c66.308,-29.809 102.783,-30.213 161.575,-70.017c-10.554,29.679 -4.863,25.208 -45.858,54.417c-26.796,19.104 -29.642,17.75 -45.238,16.387c-28.604,-2.225 -42.892,7.083 -70.479,-0.787Z" style="fill:rgb(253,235,240);"/>
        <path d="M676.188,631.829c79.187,94.888 249.437,-204.729 -33.163,-376.346c52.329,111.646 -23.454,126.805 -47.504,206.467c-21.896,72.517 7.1,163.079 80.667,169.879Z" style="fill:rgb(94,128,58);"/>
        <path d="M676.196,631.825c30.725,36.829 75.158,14.213 101.533,-37.246c-35.916,17.188 -64.633,23.296 -66.429,-42.154c-1.55,-56.404 26.883,-93.708 -8.929,-190.708l-52.354,5.058c-15.142,29.442 -41.905,53.479 -54.496,95.179c-21.888,72.508 7.1,163.075 80.675,169.871Z" style="fill:rgb(60,95,44);"/>
        <path d="M676.188,631.829c-29.505,-63.946 114.245,-241.216 -33.163,-376.346c52.329,111.646 -23.454,126.805 -47.504,206.467c-21.896,72.517 7.1,163.079 80.667,169.879Z" style="fill:rgb(139,171,91);"/>
        <path d="M704.446,312.917c58.833,52.041 97.496,153.358 77.975,218.129c-21.588,71.633 -78.746,49.504 -48.821,-48.246c15.558,-50.837 -1.217,-109.871 -29.154,-169.883Z" style="fill:rgb(139,171,91);"/>
        <path d="M659.921,616.708c-108.642,-71.35 -58.921,-164.166 2.137,-249.062c-29.458,112.133 -22.362,193.521 -2.137,249.062Z" style="fill:rgb(94,128,58);"/>
        <path d="M234.721,531.65c-90.138,151.317 -20.054,94.313 11.121,150.787c8.108,14.68 23.208,19.792 39.325,20.596c50.687,2.546 45.145,-8.9 74.879,-24.558c54.196,-28.533 120.854,7.683 138.066,-158.092c-98.933,64.25 -142.733,54.479 -263.391,11.267Z" style="fill:rgb(248,237,218);"/>
        <path d="M442.575,541.029c-61.213,17.413 -114.404,21.392 -182.021,4.442c-56.462,147.437 132.804,126.229 182.021,-4.442Z" style="fill:rgb(235,212,174);"/>
        <path d="M149.679,380.079c-31.858,19.379 -36.921,41.479 -39.654,120.513c-1.738,50.408 35.142,49.65 68.458,72.191c32.459,21.959 20.459,51.938 119.096,-5.646c-63.717,-76.533 -80.541,-106.17 -104.533,-211.2c-9.063,9.88 -30.396,16.255 -43.367,24.142Z" style="fill:rgb(245,232,204);"/>
        <path d="M159.95,503.071c-69.996,-47.954 0.992,-122.742 46.046,-150.659c-22.692,92.721 34.391,161.709 96.792,227.721c-60.65,-8.766 -78.192,3.013 -111.767,-45.4c-9.15,-13.191 -25.392,-27.779 -31.071,-31.662Z" style="fill:rgb(235,212,174);"/>
        <path d="M247.038,410.117c-79.513,-29.413 -37.259,-145.084 46.474,-120.392c-51.887,49.325 -40.962,72.546 -46.474,120.392Z" style="fill:rgb(102,11,24);"/>
        <path d="M408.2,357.729c-31.954,-41.641 -63.967,-82.571 -97.85,-122.716c44.233,-23.234 96.246,5.583 115.383,47.329c14.984,32.7 3.567,50.279 -17.533,75.387Z" style="fill:rgb(235,212,174);"/>
        <path d="M331.108,249.5c105.65,57.687 68.588,141.108 35.288,176.304c-86.275,91.167 -220.371,-41.658 -162.675,-135.475c32.95,-53.587 77.971,-73.5 127.387,-40.829Z" style="fill:rgb(219,190,143);"/>
        <path d="M210.425,402.442c-21.229,-20.979 -26.937,-18.475 -29.442,-47.617c-1,-11.596 -1.995,-23.196 -2.996,-34.796c3.492,-48.225 30.934,-52.821 51.309,-67.879c11.087,-8.2 11.721,-12.888 27.6,-24.783c24.287,-18.205 55.004,8.241 74.208,22.133c-25.704,-11.296 -27.675,-11.892 -56.45,-4.413c-34.062,8.851 -55.183,26.892 -68.533,59.759c-19.392,47.725 -16.967,53.767 4.304,97.596Z" style="fill:rgb(245,232,204);"/>
        <path d="M536.204,307.125c90.6,-13.496 56.763,43.417 91.796,85.1c25.079,29.837 2.275,38.458 -12.829,62.008c-34.034,53.055 -30.363,117.138 -168.288,92.221c74.571,-83.391 69.217,-117.158 89.321,-239.329Z" style="fill:rgb(248,237,218);"/>
        <path d="M569.858,313.646c49.229,5.358 18.784,29.704 1.305,55.821c-17.8,26.595 -12.151,75.091 8.445,91.804c44.092,35.775 -50.258,108.162 -105.804,81.65c29.717,-63.108 47.159,-156.183 45.696,-226.025c19.204,-3.771 30.325,-5.429 50.358,-3.25Z" style="fill:rgb(235,212,174);"/>
        <path d="M243.383,307.692c62.534,-36.496 78.363,127.858 23.246,113.687c-11.054,-2.842 -56.375,-38.933 -36.675,-89.637c4.475,-8.017 8.95,-16.034 13.429,-24.05Z" style="fill:rgb(242,228,195);"/>
        <path d="M335.729,395.196c-70.079,17.591 -81.354,-3.113 -74.471,-42.059c6.979,-39.529 44.959,-35.233 59.6,-10.458c9.063,15.338 14.046,35.538 14.871,52.517Z" style="fill:rgb(102,11,24);"/>
        <path d="M234.033,375.292c38.867,-130.175 142.259,-85.055 92.984,46.025c-12.992,4.233 -92.517,-10.434 -92.984,-46.025Z" style="fill:rgb(219,190,143);"/>
        <path d="M463.775,448.429c-11.429,61.879 -16.092,125.367 -94.979,118.467c36.512,-39.671 70.483,-68.379 94.979,-118.467Z" style="fill:rgb(235,212,174);"/>
        <path d="M291.467,378.212c7.562,3.659 18.958,6.742 37.704,12.863c-5.5,-10.971 -10.996,-21.942 -16.496,-32.921c-25.4,-50.712 -57.783,2.367 -21.208,20.058Z" style="fill:rgb(219,190,143);"/>
        <path d="M262.671,391.158c24.454,14.379 47.812,12.563 75.021,2.45c-1.271,11.771 -0.792,24.809 -5.78,35.634c-33.158,-11.034 -57.104,-14.871 -69.241,-38.084Z" style="fill:rgb(219,190,143);"/>
        <path d="M329.054,390.858c-13.425,-5.104 -43.537,-14.07 -49.271,-29.187c-7.271,-19.138 12.063,-27.038 25.13,-15.763c-5.63,-14.646 -27.188,-17.85 -37.913,-1.433c-12.167,18.617 10.754,48.233 62.054,46.383Z" style="fill:rgb(248,237,218);"/>
        <path d="M325.692,390.758c-4.454,-43.596 -4.954,-62.07 -38.592,-71.416c50.646,0.204 48.208,31.595 38.592,71.416Z" style="fill:rgb(248,242,231);"/>
        <path d="M333.967,394.996c-37.584,3.45 -44.513,7.571 -71.296,-3.838c19.104,18.659 48.646,15.792 71.296,3.838Z" style="fill:rgb(248,242,231);"/>
        <path d="M260.654,381.187c-4.8,-25.262 3.713,-52.895 32.2,-57.304c-34.4,-5.346 -50.254,33.017 -32.2,57.304Z" style="fill:rgb(251,248,236);"/>
        <path d="M246.021,371.175c20.096,39.187 42.387,43.346 82.833,56.558c-7.404,4.546 -14.808,9.084 -22.216,13.63c-20.771,-2.126 -41.713,-4.621 -60.663,-13.955c-1.408,-20 -5.375,-37.083 0.046,-56.233Z" style="fill:rgb(219,190,143);"/>
        <path d="M246.021,371.175c31.233,39.671 36.85,37.583 83.883,56.721c-25.625,-4.733 -97.858,-21.667 -83.883,-56.721Z" style="fill:rgb(248,242,231);"/>
        <path d="M243.913,306.963c-32.205,33.379 -42.896,96.337 22.716,114.412c-36.887,-35.004 -48.891,-68.608 -22.716,-114.412Z" style="fill:rgb(248,242,231);"/>
        <path d="M262.121,289.242c11.141,-27.167 41.512,-29.838 64.9,-20.263c60.479,19.208 47.271,48.396 -1.988,42.025c-19.65,-7.704 -43.262,-14.054 -62.912,-21.762Z" style="fill:rgb(235,212,174);"/>
        <path d="M271.387,275.308c38.13,-22.266 37.434,6.005 84.034,6.467c-24.279,-17.717 -64.196,-38.692 -84.034,-6.467Z" style="fill:rgb(248,237,218);"/>
        <path d="M317.704,300.658c37.754,-18.966 69.5,19.546 84.604,39.363l-75.291,81.296c17.437,-68.696 27.546,-75.421 -9.313,-120.659Z" style="fill:rgb(235,212,174);"/>
        <path d="M402.9,334.646c-18.438,-31.929 -53.629,-51.113 -78.662,-36.733c41.479,-0.513 48.27,14.049 72.608,41.545c7.929,8.959 11.396,4.43 6.054,-4.812Z" style="fill:rgb(248,242,231);"/>
        <path d="M206,365.625c3.988,-53.737 29.171,-70.267 77.588,-78.517c-45.488,-18.266 -86.638,17.779 -77.588,78.517Z" style="fill:rgb(248,237,218);"/>
        <path d="M326.758,443.108c4.596,69.267 -172.641,54.429 -128.354,-68.312c38.617,50.546 61.871,72.758 128.354,68.312Z" style="fill:rgb(251,248,236);"/>
        <path d="M214.196,404.25c-4.275,32.05 11.908,49.404 34.696,69.667c-56.925,-17.421 -69.704,-43.438 -50.488,-99.121c5.467,13.154 6.979,18.221 15.792,29.454Z" style="fill:rgb(248,237,218);"/>
        <path d="M330.908,442.037c-88.591,12.126 -138.77,-25.091 -132.504,-67.241c45.767,48.816 63.246,53.783 132.504,67.241Z" style="fill:white;"/>
        <path d="M327.017,421.317c6.987,-32.8 14.595,-54.479 10.437,-73.759c-6.883,-31.883 -34.371,-47.258 -62.746,-32.5c-18.229,9.475 -33.487,38.23 -40.675,60.234c5.246,-25.959 6.884,-40.405 21.921,-63.246c11.588,-17.613 9.775,-27.446 38.892,-24.434c53.733,-2.791 65.833,82.713 32.171,133.705Z" style="fill:rgb(251,248,236);"/>
        <path d="M310.35,235.013c18.5,-17.038 50.242,-48.584 94.375,0.095c22.8,25.146 25.517,35.7 29.292,79.871c-37.613,-56.796 -68.825,-91.962 -123.667,-79.966Z" style="fill:rgb(245,232,204);"/>
        <path d="M414.388,328.304l24.149,118.983c-57.812,-7.829 -80.549,-1.604 -121.841,18.53c25.55,-62.204 44.646,-94.255 97.692,-137.513Z" style="fill:rgb(251,248,236);"/>
        <path d="M326.604,448.542c-2.054,5.091 -6.025,14.25 -8.075,19.346c38.979,-19.788 44.8,-25.563 103.475,-24.238c6.525,0.663 13.054,1.329 19.575,1.996c-15.775,-21.654 -16.625,-40.846 -20.741,-79.179c-0.88,-14.059 -1.755,-28.125 -2.634,-42.188c-3.166,3.925 -6.325,7.85 -9.487,11.775c-3.492,10.784 12.187,65.858 -27.28,87.308c-0.012,0.005 -34.999,14.496 -54.833,25.18Z" style="fill:rgb(248,237,218);"/>
        <path d="M316.529,467.225c32.067,-43.979 28.463,-30.179 44.846,-74.458c7.271,-19.663 28.275,-10.154 53.617,-65.438c-64.342,44.975 -77.663,62.992 -98.463,139.896Z" style="fill:white;"/>
        <path d="M414.179,263.154c21.538,-84.629 119.558,-47.708 132.088,44.325c9.971,73.283 13.2,225.246 -77.65,254.154c-26.804,8.534 -48.084,28.7 -71.4,51.6c-13.942,13.692 -118.821,58.88 -52.763,-8.229c31.45,-31.946 65.45,-38.408 82.113,-69.296c67.362,-124.896 27.333,-183.291 -12.388,-272.554Z" style="fill:rgb(245,232,204);"/>
        <path d="M365.15,631.058c3.396,-32.941 12.479,-43.312 38.546,-58.45c43.371,-25.187 37.629,-32.97 62.821,-84.446c20.095,-41.054 62.533,-139.162 84.558,-117.112c1.296,75.567 -13.408,168.617 -82.458,190.583c-26.804,8.534 -48.084,28.7 -71.405,51.596c-4.391,4.317 -17.808,11.759 -32.062,17.829Z" style="fill:rgb(248,242,231);"/>
        <path d="M418.654,284.054c1.838,-75.962 75.067,-70.687 87.171,2.892c8.629,52.379 -15.542,103.2 -33.204,151.337c-0.921,-76.604 -1.733,-78.071 -53.967,-154.229Z" style="fill:rgb(235,212,174);"/>
        <path d="M238.238,482.108c-20.48,-1.879 -12.855,3.059 -47.496,-6.708c-34.638,-9.771 -34.129,13.879 -8.404,37.008c36.645,32.955 87.399,33.425 134.562,31.742c-40.696,-25.296 -43.025,-31.3 -78.662,-62.042Z" style="fill:rgb(248,237,218);"/>
        <path d="M237.888,483.162c-40.042,-7.533 -30.863,20.996 -9.38,39.101c20.355,17.154 54.046,22.762 82.771,17.562c-34.758,-21.687 -41.162,-31.442 -73.391,-56.663Z" style="fill:rgb(235,212,174);"/>
        <path d="M475.204,300.675c-17.937,-10.433 -26.25,5.138 -36.175,17.888l31.15,50.916l5.025,-68.804Z" style="fill:rgb(235,217,176);"/>
        <path d="M231.446,481.354c15.5,28.446 29.596,38.867 56.516,49.529c10.813,-19.037 21.446,-38.429 32.259,-57.466c-38.288,8.233 -53.267,14.683 -88.775,7.937Z" style="fill:rgb(248,237,218);"/>
        <path d="M295.283,481.083c-68.283,27.53 -156.196,-38.304 -101.458,-90.766c-3.396,41.146 22.671,94.162 97.833,82.495c11.434,-1.774 20.625,1.255 3.625,8.271Z" style="fill:white;"/>
        <path d="M471.783,371.529c-10.391,25.821 -20.779,51.646 -31.166,77.463c-31.834,-45.638 -25.513,-110.155 -21.338,-163.5c22.809,18.841 41.038,43.354 52.504,86.037Z" style="fill:rgb(248,237,218);"/>
        <path d="M278.838,537.725c15.462,-84.121 86.154,-111.967 167.924,-91.413c-13.991,32.655 -27.983,65.313 -41.97,97.971c-49.792,6.384 -66.317,7.438 -125.954,-6.558Z" style="fill:rgb(251,248,236);"/>
        <path d="M427.275,444.863c-27.529,87.416 -61.563,98.587 -146.708,84.641c-1.838,6.525 -2.85,9.746 -4.688,16.275c138.446,29.117 128.85,-6.171 169.713,-102.258c-8.28,0.516 -10.038,0.821 -18.317,1.342Z" style="fill:rgb(248,237,218);"/>
        <path d="M292.933,496.538c52.984,-49.75 82.975,-46.792 149.205,-51.338c-53.101,-34.758 -114.905,-8.504 -149.205,51.338Z" style="fill:white;"/>
        <path d="M434.704,440.617c-30.604,-43.85 -22.629,-100.78 -19.821,-160.959c28.909,40.78 -7.987,35.988 15.25,74.142c12.559,20.625 4.467,55.325 4.571,86.817Z" style="fill:white;"/>
        <path d="M416.367,542.054c-79.834,17.288 -94.442,16.592 -181.109,9.721c56.867,59.792 141.217,58.733 181.109,-9.721Z" style="fill:rgb(250,242,222);"/>
        <path d="M226.171,555.842c22.062,8.97 46.771,14.858 67.637,2.454c32.138,23.875 96.3,8.308 119.305,-12.063c26.649,-23.587 -21.28,-7.566 -27.692,-6.375c-38.238,7.121 -49.183,4.167 -83.988,-1.937c-23.029,-4.034 -49.521,-7.121 -64.791,-4.746c-31.371,4.875 -41.405,10.087 -10.471,22.667Z" style="fill:white;"/>
        <path d="M397.183,543.104c30.855,-100.504 65.213,-140.546 78.025,-242.425c22.196,39.783 22.759,29.338 15.409,101.767c-4.8,47.346 -8.988,49.146 -25.346,64.8c-29.704,28.975 -33.217,53.383 -68.088,75.858Z" style="fill:white;"/>
        <path d="M785.054,868.875c195.554,26.292 105.992,-20.833 150.459,-77.8c11.558,-14.813 10.183,-32.617 3.924,-49.579c-19.679,-53.338 -29.033,-42.596 -58.25,-66.342c-53.237,-43.283 -45.249,-127.896 -223.624,-72.7c109.724,73.663 118.924,123.092 127.491,266.421Z" style="fill:rgb(214,109,130);"/>
        <path d="M703.275,650.592c44.871,55.408 72.371,108.458 84.654,185.579c176.742,-6.688 71.625,-192.358 -84.654,-185.579Z" style="fill:rgb(149,42,55);"/>
        <path d="M666.3,1023.17c33.983,24.3 58.979,19.796 141.608,-12.159c52.7,-20.383 35.696,-58.05 44.267,-102.295c8.342,-43.096 44.512,-43.925 -58.213,-120.217c-50.816,99.321 -73.954,129.691 -171.612,200.617c14.167,4.987 30.125,24.162 43.95,34.054Z" style="fill:rgb(182,76,98);"/>
        <path d="M788.5,958.479c-18.612,93.213 -126.896,52.979 -175.475,18.846c105.513,-17.417 151.479,-106.583 192.037,-199.913c17.646,66.342 37.5,79.238 2.392,135.125c-9.566,15.23 -17.442,38.384 -18.954,45.942Z" style="fill:rgb(133,24,39);"/>
        <path d="M654.417,909.65c4.683,94.858 -133.088,102.208 -144.488,5.079c73.654,31.758 92.767,10.283 144.488,-5.079Z" style="fill:rgb(102,11,24);"/>
        <path d="M529.542,766.646c-28.846,51.242 -56.934,102.237 -83.388,154.804c-43.4,-35.35 -36.591,-101.621 -1.996,-139.7c27.1,-29.825 50.23,-25.792 85.384,-15.104Z" style="fill:rgb(133,24,39);"/>
        <path d="M451.95,893.692c12.954,-134.234 115.212,-132.75 166.121,-113.917c131.883,48.779 54.033,245.367 -68.013,227.2c-69.708,-10.371 -110.033,-48 -98.108,-113.283Z" style="fill:rgb(102,11,24);"/>
        <path d="M662.617,950.746c-12.271,31.104 -7.184,35.879 -36.109,51.287c-11.504,6.125 -23.02,12.259 -34.533,18.388c-51.221,17.621 -68.025,-8.629 -92.504,-23c-13.329,-7.821 -18.438,-6.404 -37.679,-17.534c-29.446,-17.012 -15.704,-60.295 -9.842,-86.195c-0.325,31.458 -0.079,33.746 20.283,60.104c24.109,31.2 51.988,45.021 91.725,44.321c57.696,-1.017 62.867,-6.175 98.659,-47.371Z" style="fill:rgb(182,76,98);"/>
        <path d="M421.096,657.025c-53.767,-87.404 19.754,-77.575 47.291,-132.017c19.709,-38.958 38.621,-19.254 69.53,-14.054c69.637,11.721 134.05,-20.25 169.054,132.813c-118.729,-40.138 -151.163,-19.767 -285.875,13.258Z" style="fill:rgb(214,109,130);"/>
        <path d="M413.008,619.488c-16.141,-53.075 22.334,-32.425 56.938,-25.901c35.233,6.638 82.708,-20.516 90.867,-49.091c17.466,-61.163 133.55,4.196 130.67,73.092c-78.095,-2.855 -181.662,20.12 -252.975,52.354c-12.333,-18.13 -18.937,-28.859 -25.5,-50.454Z" style="fill:rgb(149,42,55);"/>
        <path d="M550.5,958.471c-65.117,-48.371 97.254,-136.979 106.904,-73.963c1.933,12.638 -15.312,75.209 -76.221,77.221c-10.225,-1.087 -20.458,-2.171 -30.683,-3.258Z" style="fill:rgb(133,24,39);"/>
        <path d="M600.025,824.829c48.958,64.467 32.587,85.196 -10.562,95.234c-43.805,10.2 -56.084,-30.821 -37,-56.805c11.816,-16.083 30.433,-30.108 47.562,-38.429Z" style="fill:rgb(102,11,24);"/>
        <path d="M624.258,938.362c-151.221,17.23 -150.216,-109.145 6.517,-116.05c10.075,11.525 29.95,99.913 -6.517,116.05Z" style="fill:rgb(102,11,24);"/>
        <path d="M598.537,669.483c68.788,-15.446 136.255,-38.57 163.846,45.746c-56.933,-20.171 -101.458,-42.537 -163.846,-45.746Z" style="fill:rgb(133,24,39);"/>
        <path d="M598.537,669.483c68.788,-15.446 136.255,-38.57 163.846,45.746c-56.933,-20.171 -101.458,-42.537 -163.846,-45.746Z" style="fill:none;stroke:rgb(3,4,4);stroke-width:2.36px;"/>
        <path d="M602.004,877.908c0.438,-9.404 -1.396,-22.504 -3.333,-44.504c-8.888,10.496 -17.775,20.983 -26.663,31.475c-41.079,48.483 27.855,58.496 29.996,13.029Z" style="fill:rgb(102,11,24);"/>
        <path d="M628.008,901.883c4.055,-31.52 -8.091,-54.787 -30.479,-78.379c12.683,-3.862 25.913,-10.096 39.254,-9.721c3.221,39.025 9.8,65.38 -8.775,88.1Z" style="fill:rgb(102,11,24);"/>
        <path d="M598.492,833.617c0.65,16.079 4.658,51.045 -8.392,63.608c-16.521,15.908 -33.162,-0.537 -27.3,-18.958c-12.612,12.237 -6.425,35.862 15.208,39.691c24.525,4.346 44.963,-32.295 20.484,-84.341Z" style="fill:rgb(182,76,98);"/>
        <path d="M599.871,837.125c-42.959,23.771 -61.775,32.413 -56.604,71.183c-22.071,-52.275 11.341,-63.571 56.604,-71.183Z" style="fill:rgb(214,109,130);"/>
        <path d="M600.596,826.737c20.087,37.205 27.387,42.53 27.412,75.142c10.821,-27.891 -5.129,-57.066 -27.412,-75.142Z" style="fill:rgb(214,109,130);"/>
        <path d="M618.625,908.346c-23.917,16.058 -56.137,19.442 -73.208,-7.963c9.625,37.792 56.129,37.246 73.208,7.963Z" style="fill:rgb(238,165,179);"/>
        <path d="M614.746,927.825c31.529,-37.942 26.008,-62.742 21.829,-110.225c7.942,5.633 15.879,11.263 23.817,16.896c6.946,22.333 13.591,45.008 12.304,68.637c-19.979,10.25 -35.838,21.855 -57.95,24.692Z" style="fill:rgb(102,11,24);"/>
        <path d="M614.746,927.825c27.133,-49.629 22.508,-54.496 21.537,-111.375c6.392,28.479 20.725,110.354 -21.537,111.375Z" style="fill:rgb(214,109,130);"/>
        <path d="M549.517,958.246c48.558,18.496 118.125,1.812 107.887,-73.733c-19.837,53.399 -49.187,80.554 -107.887,73.733Z" style="fill:rgb(214,109,130);"/>
        <path d="M523.246,947.287c-32.888,0.471 -49.004,-29.645 -49.429,-57.958c-6.817,-70.758 29.062,-69.987 44.175,-16.437c0.708,23.637 4.55,50.754 5.254,74.395Z" style="fill:rgb(133,24,39);"/>
        <path d="M504.808,943.862c-39.712,-29.483 -10.275,-41.204 -30.304,-89.42c-7.566,32.812 -11.621,83.166 30.304,89.42Z" style="fill:rgb(235,135,156);"/>
        <path d="M510.554,884.992c-36.15,-30.55 -10.437,-80.2 3.338,-104.484l116.883,41.804c-78.45,12.259 -89.829,4.809 -120.221,62.68Z" style="fill:rgb(133,24,39);"/>
        <path d="M508.092,782.262c-24.788,33.046 -29.067,77.742 -3.238,97.209c-18.775,-42.513 -6.771,-55.917 10.858,-93.084c5.738,-12.112 -0.45,-13.691 -7.62,-4.125Z" style="fill:rgb(235,135,156);"/>
        <path d="M626.633,971.504c-57.12,19.529 -85.233,0.859 -115.029,-45.396c1.188,54.896 56.434,81.438 115.029,45.396Z" style="fill:rgb(214,109,130);"/>
        <path d="M653.337,813c69.342,-35.212 132.03,153.921 -13.916,162.296c35.096,-62.025 47.742,-95.759 13.916,-162.296Z" style="fill:rgb(235,135,156);"/>
        <path d="M662.821,946.062c34.904,-9.695 45.666,-34.004 56.516,-66.395c7.096,66.316 -14.087,90.929 -79.916,95.625c11.15,-11.417 15.704,-15.209 23.4,-29.23Z" style="fill:rgb(198,82,106);"/>
        <path d="M650.404,809.192c51.471,85.941 35.204,154.016 -10.983,166.104c30.162,-68.629 27.592,-88.829 10.983,-166.104Z" style="fill:rgb(249,200,214);"/>
        <path d="M630.775,822.312c-36.871,7.238 -62.55,8.93 -80.587,21.7c-29.821,21.117 -33.571,56.205 -5.884,78.95c17.779,14.609 54.125,17.68 79.954,15.405c-29.05,6.012 -44.65,10.679 -74.804,5.241c-23.246,-4.196 -32.583,2 -42.283,-29.325c-26.521,-54.133 56.258,-104.216 123.604,-91.971Z" style="fill:rgb(238,165,179);"/>
        <path d="M446.154,921.45c-25.691,-11.563 -72.158,-30.388 -41.421,-97.279c15.879,-34.546 25.555,-41.988 69.409,-65.317c-41.971,63.742 -64.471,111.367 -27.988,162.596Z" style="fill:rgb(182,76,98);"/>
        <path d="M496.5,773.225l111.971,-77.229c17.362,63.008 33.783,83.687 72.696,117.375c-75.334,1.046 -116.759,-4.529 -184.667,-40.146Z" style="fill:rgb(235,135,156);"/>
        <path d="M659,810.763c6.154,-0.121 17.333,-0.059 23.492,-0.184c-37.538,-31.462 -46.05,-34.917 -70.496,-95.954c-2.188,-7.017 -4.371,-14.029 -6.554,-21.046c-15.375,25.783 -34.775,35.1 -72.459,56.204c-14.1,7.092 -28.204,14.184 -42.308,21.275c5.433,1.53 10.875,3.063 16.308,4.596c12.65,-1.146 62.492,-41.533 101.959,-10.308c0.008,0.012 30.329,29.687 50.058,45.417Z" style="fill:rgb(198,82,106);"/>
        <path d="M682.692,812.925c-59.425,-13.687 -43.625,-16.05 -96.45,-13.446c-23.459,1.163 -22.905,-24.666 -91.009,-26.454c74.642,46.504 99.067,52.308 187.459,39.9Z" style="fill:rgb(249,200,214);"/>
        <path d="M429.471,802.092c-96.667,15.041 -101.754,-102.188 -12.442,-155.588c71.121,-42.517 226.263,-112.692 296.017,-31.808c20.583,23.867 50.725,36.917 84.579,50.866c20.233,8.342 112.925,96.517 14.733,57.975c-46.754,-18.345 -68.37,-50.533 -107.52,-54.108c-158.317,-14.458 -200.88,52.475 -275.367,132.663Z" style="fill:rgb(182,76,98);"/>
        <path d="M830.092,690.758c-35.434,10.992 -50.113,6.196 -77.175,-14c-45.029,-33.608 -50.53,-24.266 -114.642,-27.575c-51.138,-2.645 -170.892,-3.204 -157.862,-35.6c77.287,-34.579 179.624,-60.366 232.633,1.113c20.583,23.867 50.725,36.917 84.579,50.866c6.375,2.625 19.942,13.18 32.467,25.196Z" style="fill:rgb(235,135,156);"/>
        <path d="M449.038,788.296c-79.075,31.521 -105.859,-46.246 -35.376,-91.092c50.171,-31.933 113.167,-29.391 170.534,-32.367c-78.521,34.651 -79.675,36.13 -135.158,123.459Z" style="fill:rgb(133,24,39);"/>
        <path d="M732.458,887.046c7.075,21.925 8.809,11.9 13.988,51.883c5.175,39.984 29.312,29.059 41.833,-7.625c17.825,-52.254 -4.017,-104.75 -26.504,-152.6c-8.158,53.058 -13.317,58.1 -29.317,108.342Z" style="fill:rgb(214,109,130);"/>
        <path d="M733.704,886.937c9.854,44.567 35.209,22.563 44.413,-7.537c8.716,-28.517 -0.325,-65.692 -18.321,-93.004c-7.054,45.35 -14.283,56.246 -26.092,100.541Z" style="fill:rgb(133,24,39);"/>
        <path d="M441.279,722.712c-2.858,23.076 16.846,24.788 34.342,29.405l38.762,-54.492l-73.104,25.087Z" style="fill:rgb(102,11,24);"/>
        <path d="M734.671,894.371c22.487,-28.479 27.029,-47.592 26.167,-80.021c-24.367,-2.762 -49.026,-5.188 -73.401,-7.95c25.33,35.825 38.567,48.421 47.234,87.971Z" style="fill:rgb(235,135,156);"/>
        <path d="M706.317,828.717c58.396,58.245 29.241,177.783 -48.888,144.466c43.884,-14.604 87.042,-64.783 41.954,-137.087c-6.858,-11.004 -7.787,-21.804 6.934,-7.379Z" style="fill:rgb(249,200,214);"/>
        <path d="M515.792,695.067c31.17,-0.655 62.345,-1.309 93.52,-1.963c-33.012,52.871 -102.27,74.742 -159.07,93.908c9.383,-31.791 26.612,-61.35 65.55,-91.945Z" style="fill:rgb(214,109,130);"/>
        <path d="M771.908,820.746c-93.475,21.075 -153.266,-39.504 -168.062,-132.8c39.8,0.05 79.604,0.092 119.408,0.141c28.479,48.496 36.829,65.059 48.654,132.659Z" style="fill:rgb(235,135,156);"/>
        <path d="M610.925,708.662c102.175,-10.095 128.658,20.059 151.746,113.917c7.537,-0.975 11.296,-1.354 18.833,-2.329c-30.908,-155.45 -63.042,-130.042 -180.021,-129.871c4.175,8.304 5.263,9.983 9.442,18.283Z" style="fill:rgb(198,82,106);"/>
        <path d="M723.267,824.338c-74.563,-32.696 -84.709,-64.9 -118.534,-131.138c-12.454,70 41.788,122.129 118.534,131.138Z" style="fill:rgb(249,200,214);"/>
        <path d="M603.279,702.879c-31.712,50.817 -93.875,67.65 -157.112,91.225c29.295,-47.721 40.591,-7.6 69.679,-48.329c15.721,-22.008 55.037,-28.942 87.433,-42.896Z" style="fill:rgb(249,200,214);"/>
        <path d="M715.858,677.146c52.934,74.646 58.646,90 89.692,182.312c36.583,-84.891 -1.612,-171.329 -89.692,-182.312Z" style="fill:rgb(235,135,156);"/>
        <path d="M813.737,867.037c-0.462,-26.679 -5.262,-54.724 -27.22,-70.77c10.454,-43.609 -33.813,-102.867 -64.925,-117.609c-36.021,-17.079 1.575,25.255 5.621,31.334c24.158,36.262 25.929,48.845 34.95,87.387c5.979,25.496 14.454,54.15 23.616,68.838c18.829,30.183 28.609,38.221 27.958,0.82Z" style="fill:rgb(249,200,214);"/>
        <path d="M725.383,696.446c-117.129,12.429 -173.495,-5.354 -284.104,26.262c31.229,-40.371 20.217,-36.35 98.071,-60.645c50.9,-15.884 54.6,-12.363 77.921,-2.396c42.921,17.858 69.616,10.741 108.112,36.779Z" style="fill:rgb(249,200,214);"/>
    </g>
</svg>
