<?xml version="1.0" encoding="UTF-8" standalone="no"?>
<!DOCTYPE svg PUBLIC "-//W3C//DTD SVG 1.1//EN" "http://www.w3.org/Graphics/SVG/1.1/DTD/svg11.dtd">
<svg width="100%" height="100%" viewBox="0 0 50 50" version="1.1" xmlns="http://www.w3.org/2000/svg" xmlns:xlink="http://www.w3.org/1999/xlink" xml:space="preserve" xmlns:serif="http://www.serif.com/" style="fill-rule:evenodd;clip-rule:evenodd;stroke-linejoin:round;stroke-miterlimit:2;">
    <rect id="unknown" x="-0.105" y="0" width="50" height="50" style="fill:none;"/>
    <path d="M18.47,36.005L18.47,21.247C19.446,21.205 20.294,21.141 21.015,21.056C21.736,20.971 22.372,20.865 22.923,20.738C23.474,20.611 23.962,20.452 24.386,20.261C24.81,20.07 25.256,19.848 25.722,19.593C26.019,19.423 26.348,19.211 26.708,18.957C27.068,18.703 27.418,18.353 27.758,17.907C28.097,17.462 28.383,16.932 28.616,16.317C28.85,15.702 28.966,14.971 28.966,14.123C28.966,13.911 28.934,13.582 28.871,13.137C28.807,12.691 28.669,12.214 28.457,11.705C28.118,10.942 27.408,10.147 26.326,9.32C25.245,8.493 23.686,8.08 21.651,8.08C20.548,8.08 19.531,8.196 18.598,8.429C17.665,8.663 16.827,8.949 16.085,9.288C15.343,9.627 14.696,9.967 14.145,10.306C13.594,10.645 13.169,10.9 12.873,11.069L12.936,3.945C13.7,3.606 14.972,3.16 16.753,2.609C18.534,2.058 20.612,1.782 22.987,1.782C23.411,1.782 24.1,1.814 25.054,1.877C26.008,1.941 27.068,2.153 28.235,2.514C29.401,2.874 30.588,3.425 31.797,4.167C33.005,4.91 34.055,5.938 34.946,7.253C35.285,7.719 35.698,8.514 36.186,9.638C36.674,10.762 36.918,12.129 36.918,13.741C36.918,15.904 36.377,17.907 35.295,19.752C34.214,21.597 32.698,23.007 30.747,23.982C30.154,24.279 29.507,24.534 28.807,24.746C28.107,24.958 27.079,25.17 25.722,25.382L25.722,31.806L18.47,36.005ZM26.167,44.02C26.125,45.165 25.722,46.151 24.959,46.978C24.195,47.804 23.199,48.218 21.969,48.218C20.782,48.218 19.796,47.794 19.011,46.946C18.227,46.098 17.834,45.08 17.834,43.892C17.834,42.79 18.237,41.814 19.043,40.966C19.849,40.118 20.824,39.694 21.969,39.694C23.199,39.694 24.206,40.108 24.99,40.934C25.775,41.761 26.167,42.79 26.167,44.02Z" style="fill:#d6d6d6;fill-rule:nonzero;"/>
</svg>
