<?xml version="1.0" encoding="UTF-8" standalone="no"?>
<!DOCTYPE svg PUBLIC "-//W3C//DTD SVG 1.1//EN" "http://www.w3.org/Graphics/SVG/1.1/DTD/svg11.dtd">
<svg width="100%" height="100%" viewBox="0 0 1040 1040" version="1.1" xmlns="http://www.w3.org/2000/svg" xmlns:xlink="http://www.w3.org/1999/xlink" xml:space="preserve" xmlns:serif="http://www.serif.com/" style="fill:#fff;fill-rule:evenodd;clip-rule:evenodd;stroke-linecap:round;stroke-linejoin:round;stroke-miterlimit:1.5;">

    <path id="N" d="M999.97,511.5c0,-0.587 0.083,-1.275 0.248,-2.063c0.165,-0.789 0.614,-1.532 1.348,-2.228c0.66,-0.624 1.384,-1 2.173,-1.128c0.788,-0.128 1.549,-0.193 2.283,-0.193c0.77,0 1.43,0.065 1.98,0.193c0.55,0.128 1.036,0.312 1.458,0.55c0.422,0.238 0.789,0.55 1.1,0.935c0.312,0.385 0.615,0.816 0.908,1.293c0.99,1.65 1.971,3.273 2.943,4.869c0.972,1.595 1.935,3.218 2.888,4.868c1.174,1.981 2.311,3.97 3.411,5.969c1.1,1.999 2.219,3.989 3.356,5.969l-0.44,-19.034c-0,-0.55 0.046,-1.101 0.137,-1.651c0.092,-0.55 0.321,-1.118 0.688,-1.705c0.33,-0.55 0.697,-0.972 1.1,-1.265c0.404,-0.294 0.798,-0.514 1.183,-0.661c0.385,-0.146 0.752,-0.238 1.1,-0.275c0.349,-0.036 0.615,-0.055 0.798,-0.055c0.66,0 1.302,0.12 1.925,0.358c0.624,0.238 1.211,0.633 1.761,1.183c0.733,0.807 1.164,1.641 1.293,2.503c0.128,0.862 0.211,1.641 0.247,2.338l0,27.561c0,0.33 -0.036,0.825 -0.11,1.486c-0.073,0.66 -0.284,1.329 -0.632,2.008c-0.349,0.678 -0.908,1.265 -1.678,1.76c-0.771,0.495 -1.852,0.743 -3.246,0.743c-0.44,-0 -0.917,-0.055 -1.43,-0.165c-0.514,-0.11 -1.055,-0.33 -1.623,-0.661c-0.569,-0.33 -1.174,-0.788 -1.816,-1.375c-0.642,-0.587 -1.311,-1.375 -2.008,-2.365c-0.513,-0.697 -1.219,-1.788 -2.118,-3.274c-0.898,-1.485 -1.888,-3.154 -2.97,-5.006c-1.082,-1.852 -2.192,-3.777 -3.329,-5.776c-1.137,-1.999 -2.182,-3.842 -3.135,-5.529l0.44,18.264c-0.037,0.624 -0.083,1.238 -0.138,1.843c-0.055,0.605 -0.284,1.22 -0.687,1.843c-0.477,0.734 -1.092,1.302 -1.843,1.706c-0.752,0.403 -1.55,0.605 -2.393,0.605c-0.844,-0 -1.651,-0.22 -2.421,-0.661c-0.66,-0.33 -1.174,-0.733 -1.54,-1.21c-0.367,-0.477 -0.642,-0.99 -0.826,-1.54c-0.183,-0.55 -0.293,-1.1 -0.33,-1.651c-0.036,-0.55 -0.055,-1.081 -0.055,-1.595l0,-27.781Z" style="fill-rule:nonzero;stroke:rgb(0,0,0);stroke-width:1px;stroke-linecap:butt;stroke-miterlimit:2;"/>
    <path id="S" d="M25.408,505c1.357,0 2.714,0.065 4.071,0.193c1.357,0.128 2.677,0.394 3.961,0.798c1.21,0.366 2.329,0.862 3.356,1.485c1.027,0.624 1.925,1.33 2.695,2.118c0.771,0.789 1.367,1.632 1.788,2.531c0.422,0.898 0.633,1.788 0.633,2.668c-0,0.807 -0.138,1.513 -0.413,2.118c-0.275,0.605 -0.641,1.118 -1.1,1.54c-0.458,0.422 -0.981,0.743 -1.568,0.963c-0.587,0.22 -1.192,0.33 -1.815,0.33c-0.807,-0 -1.577,-0.193 -2.311,-0.578c-0.733,-0.385 -1.357,-0.999 -1.87,-1.843c-0.11,-0.22 -0.22,-0.449 -0.33,-0.687c-0.11,-0.239 -0.22,-0.468 -0.33,-0.688c-0.11,-0.183 -0.22,-0.358 -0.33,-0.523c-0.11,-0.165 -0.239,-0.321 -0.385,-0.467c-0.441,-0.44 -0.954,-0.78 -1.541,-1.018c-0.587,-0.238 -1.155,-0.422 -1.705,-0.55c-0.55,-0.128 -1.045,-0.202 -1.486,-0.22c-0.44,-0.018 -0.733,-0.028 -0.88,-0.028c-1.503,0 -2.723,0.275 -3.658,0.826c-0.935,0.55 -1.403,1.338 -1.403,2.365c0,0.734 0.266,1.275 0.798,1.623c0.532,0.348 1.109,0.633 1.733,0.853c0.256,0.11 0.687,0.247 1.292,0.412c0.606,0.165 1.284,0.349 2.036,0.55c0.752,0.202 1.549,0.413 2.393,0.633c0.844,0.22 1.65,0.431 2.421,0.633c0.77,0.201 1.467,0.394 2.09,0.577c0.624,0.184 1.082,0.33 1.375,0.44c2.604,0.991 4.631,2.412 6.079,4.264c1.449,1.852 2.173,3.988 2.173,6.409c0,1.174 -0.192,2.457 -0.577,3.851c-0.385,1.393 -1.055,2.677 -2.008,3.851c-0.807,1.027 -1.733,1.879 -2.778,2.558c-1.046,0.678 -2.164,1.228 -3.356,1.65c-1.192,0.422 -2.439,0.715 -3.741,0.88c-1.302,0.165 -2.595,0.248 -3.879,0.248c-3.41,-0 -6.372,-0.358 -8.884,-1.073c-2.512,-0.715 -4.594,-1.916 -6.244,-3.603c-1.174,-1.174 -1.971,-2.402 -2.393,-3.686c-0.422,-1.284 -0.633,-2.329 -0.633,-3.136c0,-1.577 0.495,-2.833 1.486,-3.768c0.99,-0.935 2.163,-1.403 3.52,-1.403c0.734,0 1.412,0.128 2.036,0.385c0.733,0.367 1.302,0.816 1.705,1.348c0.404,0.532 0.697,1.036 0.88,1.513c0.147,0.257 0.266,0.513 0.358,0.77c0.092,0.257 0.193,0.532 0.303,0.825c0.183,0.33 0.394,0.651 0.632,0.963c0.239,0.312 0.523,0.596 0.853,0.853c0.477,0.403 1.027,0.715 1.65,0.935c0.624,0.22 1.229,0.385 1.816,0.495c0.587,0.11 1.109,0.174 1.568,0.193c0.458,0.018 0.779,0.027 0.962,0.027c1.651,0 3.035,-0.33 4.154,-0.99c1.118,-0.66 1.678,-1.522 1.678,-2.586c-0,-0.55 -0.129,-1.008 -0.385,-1.375c-0.257,-0.367 -0.66,-0.688 -1.211,-0.963c-0.55,-0.275 -1.247,-0.541 -2.09,-0.798c-0.844,-0.256 -1.834,-0.531 -2.971,-0.825c-1.87,-0.513 -3.42,-0.944 -4.648,-1.293c-1.229,-0.348 -2.265,-0.669 -3.109,-0.962c-0.843,-0.294 -1.549,-0.605 -2.118,-0.935c-0.568,-0.331 -1.146,-0.734 -1.733,-1.211c-1.54,-1.21 -2.585,-2.576 -3.135,-4.098c-0.55,-1.522 -0.825,-2.925 -0.825,-4.209c-0,-1.357 0.275,-2.75 0.825,-4.181c0.55,-1.43 1.43,-2.732 2.64,-3.906c1.211,-1.173 2.788,-2.145 4.731,-2.915c1.944,-0.77 4.328,-1.156 7.152,-1.156Z" style="fill-rule:nonzero;stroke:rgb(0,0,0);stroke-width:1px;stroke-linecap:butt;stroke-miterlimit:2;"/>
    <path d="M495.657,994.428c-0.11,-0.441 -0.202,-0.881 -0.275,-1.321c-0.074,-0.44 -0.11,-0.898 -0.11,-1.375c-0,-1.467 0.495,-2.659 1.485,-3.576c0.99,-0.917 2.256,-1.375 3.796,-1.375c1.027,-0 1.861,0.192 2.503,0.577c0.642,0.386 1.164,0.853 1.568,1.403c0.403,0.55 0.697,1.119 0.88,1.706c0.184,0.586 0.312,1.1 0.385,1.54l2.256,10.177c0.22,1.101 0.403,2.036 0.55,2.806c0.147,0.77 0.275,1.522 0.385,2.256c0.11,0.733 0.229,1.54 0.358,2.42c0.128,0.88 0.284,1.981 0.467,3.301c0.367,-1.981 0.688,-3.677 0.963,-5.089c0.275,-1.412 0.559,-2.851 0.853,-4.318c0.293,-1.467 0.641,-3.099 1.045,-4.896c0.403,-1.798 0.917,-4.053 1.54,-6.767c0.184,-0.66 0.394,-1.293 0.633,-1.898c0.238,-0.605 0.568,-1.146 0.99,-1.623c0.422,-0.477 0.963,-0.853 1.623,-1.128c0.66,-0.275 1.522,-0.412 2.586,-0.412c1.43,-0 2.658,0.312 3.685,0.935c1.027,0.624 1.742,1.925 2.146,3.906l3.026,14.138c0.146,0.697 0.265,1.311 0.357,1.843c0.092,0.532 0.184,1.045 0.275,1.541c0.092,0.495 0.165,1.008 0.22,1.54c0.055,0.532 0.138,1.128 0.248,1.788c0.11,-0.587 0.202,-1.091 0.275,-1.513c0.073,-0.422 0.147,-0.816 0.22,-1.183c0.073,-0.367 0.147,-0.743 0.22,-1.128c0.073,-0.385 0.165,-0.834 0.275,-1.347l3.246,-15.459c0.11,-0.513 0.257,-1.064 0.44,-1.65c0.183,-0.587 0.495,-1.156 0.935,-1.706c0.257,-0.293 0.688,-0.66 1.293,-1.1c0.605,-0.44 1.439,-0.66 2.503,-0.66c0.66,-0 1.302,0.119 1.925,0.357c0.624,0.239 1.183,0.578 1.678,1.018c0.495,0.44 0.89,0.972 1.183,1.595c0.294,0.624 0.44,1.321 0.44,2.091c0,0.33 -0.018,0.669 -0.055,1.018c-0.036,0.348 -0.091,0.687 -0.165,1.017l-7.482,28.112c-0.146,0.55 -0.33,1.1 -0.55,1.65c-0.22,0.551 -0.541,1.046 -0.962,1.486c-0.422,0.44 -0.981,0.797 -1.678,1.072c-0.697,0.276 -1.614,0.413 -2.751,0.413c-1.98,0 -3.42,-0.394 -4.318,-1.183c-0.899,-0.788 -1.568,-2.173 -2.008,-4.153l-3.301,-14.414c-0.184,-0.696 -0.321,-1.301 -0.413,-1.815c-0.091,-0.513 -0.183,-1.009 -0.275,-1.485c-0.092,-0.477 -0.183,-0.991 -0.275,-1.541c-0.092,-0.55 -0.192,-1.21 -0.302,-1.98c-0.074,0.55 -0.138,1.018 -0.193,1.403c-0.055,0.385 -0.119,0.761 -0.193,1.127c-0.073,0.367 -0.146,0.771 -0.22,1.211c-0.073,0.44 -0.183,0.99 -0.33,1.65l-3.465,15.184c-0.184,0.807 -0.395,1.568 -0.633,2.283c-0.239,0.715 -0.578,1.348 -1.018,1.898c-0.44,0.55 -1.027,0.99 -1.76,1.32c-0.734,0.33 -1.706,0.495 -2.916,0.495c-1.98,0 -3.429,-0.413 -4.346,-1.238c-0.917,-0.825 -1.614,-2.063 -2.09,-3.713l-7.372,-27.231Z" style="fill-rule:nonzero;stroke:rgb(0,0,0);stroke-width:1px;stroke-linecap:butt;stroke-miterlimit:2;"/>
    <path d="M504.569,18.963c-0,-0.513 0.046,-1.1 0.137,-1.76c0.092,-0.661 0.312,-1.275 0.661,-1.843c0.348,-0.569 0.898,-1.055 1.65,-1.458c0.752,-0.404 1.825,-0.605 3.218,-0.605l18.43,-0c0.696,0.036 1.384,0.073 2.062,0.11c0.679,0.036 1.33,0.201 1.953,0.495c0.697,0.367 1.257,0.88 1.678,1.54c0.422,0.66 0.633,1.412 0.633,2.256c-0,0.403 -0.101,0.917 -0.303,1.54c-0.201,0.624 -0.614,1.174 -1.237,1.651c-0.624,0.44 -1.33,0.696 -2.118,0.77c-0.789,0.073 -1.715,0.128 -2.779,0.165l-12.983,-0l0,6.106l12.488,0c0.514,0.037 1.027,0.092 1.541,0.165c0.513,0.074 1.027,0.257 1.54,0.55c0.624,0.367 1.119,0.835 1.485,1.403c0.367,0.569 0.551,1.22 0.551,1.953c-0,0.77 -0.184,1.43 -0.551,1.981c-0.293,0.513 -0.651,0.916 -1.072,1.21c-0.422,0.293 -0.853,0.513 -1.293,0.66c-0.44,0.147 -0.862,0.238 -1.265,0.275c-0.404,0.037 -0.734,0.055 -0.991,0.055l-12.433,0l0,7.482l14.579,-0c0.55,0.036 1.164,0.101 1.843,0.192c0.678,0.092 1.329,0.376 1.953,0.853c0.513,0.403 0.88,0.88 1.1,1.43c0.22,0.551 0.33,1.137 0.33,1.761c0,0.733 -0.147,1.348 -0.44,1.843c-0.293,0.495 -0.587,0.871 -0.88,1.127c-0.697,0.624 -1.531,0.991 -2.503,1.101c-0.972,0.11 -2.045,0.183 -3.219,0.22l-18.209,-0c-0.623,-0.037 -1.311,-0.11 -2.063,-0.22c-0.752,-0.11 -1.439,-0.44 -2.063,-0.99c-0.66,-0.587 -1.054,-1.284 -1.183,-2.091c-0.128,-0.807 -0.21,-1.577 -0.247,-2.311l-0,-27.616Z" style="fill-rule:nonzero;stroke:rgb(0,0,0);stroke-width:1px;stroke-linecap:butt;stroke-miterlimit:2;"/>
</svg>
