<?xml version="1.0" encoding="UTF-8" standalone="no"?>
<!DOCTYPE svg PUBLIC "-//W3C//DTD SVG 1.1//EN" "http://www.w3.org/Graphics/SVG/1.1/DTD/svg11.dtd">
<svg width="100%" height="100%" viewBox="0 0 1013 300" version="1.1" xmlns="http://www.w3.org/2000/svg" xmlns:xlink="http://www.w3.org/1999/xlink" xml:space="preserve" xmlns:serif="http://www.serif.com/" style="fill-rule:evenodd;clip-rule:evenodd;stroke-linejoin:round;stroke-miterlimit:2;">
    <g transform="scale(0.7) translate(230 50)">
        <rect x="246.067" y="139.35" width="63.721" height="21.217" style="fill:rgb(169,4,50);fill-rule:nonzero;"/>
        <path d="M309.763,181.767l-63.696,-0l-0,112.987l208.07,0l0,-57.862l-144.374,-0l-0,-55.125Z" style="fill:rgb(169,4,50);fill-rule:nonzero;"/>
        <rect x="246.067" y="5.221" width="63.721" height="112.9" style="fill:rgb(169,4,50);fill-rule:nonzero;"/>
        <path d="M649.783,3.171l-58.737,-0l-48.904,114.95l156.554,-0l-48.913,-114.95Z" style="fill:rgb(169,4,50);fill-rule:nonzero;"/>
        <path d="M515.038,181.767l-48.113,112.987l64.983,0l26.504,-64.908l122.405,-0l26.491,64.908l66.575,0l-48.096,-112.987l-210.749,-0Z" style="fill:rgb(169,4,50);fill-rule:nonzero;"/>
        <path d="M707.754,139.35l-174.633,0l-9.042,21.217l192.671,-0l-8.996,-21.217Z" style="fill:rgb(169,4,50);fill-rule:nonzero;"/>
        <path d="M854.9,149.883c-0,21.967 17.792,39.75 39.762,39.75c21.955,0 39.755,-17.783 39.755,-39.75c-0,-21.966 -17.8,-39.762 -39.755,-39.762c-21.97,-0 -39.762,17.796 -39.762,39.762Z" style="fill:rgb(169,4,50);fill-rule:nonzero;"/>
        <path d="M803.863,160.567c-0.405,-3.488 -0.642,-6.984 -0.642,-10.555c-0,-3.62 0.275,-7.17 0.687,-10.662l-59.046,0c-0.212,3.533 -0.425,7.067 -0.425,10.662c0,3.555 0.126,7.067 0.425,10.555l59.001,-0Z" style="fill:rgb(169,4,50);fill-rule:nonzero;"/>
        <path d="M894.45,58.817c29.4,-0 55.467,14.008 72.129,35.596l39.017,-45.109c-27.438,-30.266 -67.092,-49.3 -111.146,-49.3c-71.929,0 -131.958,50.596 -146.612,118.117l61.249,-0c12.959,-34.629 46.234,-59.304 85.363,-59.304Z" style="fill:rgb(169,4,50);fill-rule:nonzero;"/>
        <path d="M967.796,204c-16.592,22.488 -43.263,37.179 -73.346,37.179c-39.183,0 -72.475,-24.708 -85.425,-59.412l-61.187,-0c14.604,67.583 74.637,118.233 146.612,118.233c46.237,0 87.583,-20.963 115.129,-53.887l-41.783,-42.113Z" style="fill:rgb(169,4,50);fill-rule:nonzero;"/>
        <path d="M124.687,118.121c-39.441,-10.688 -49.833,-17.417 -49.833,-35.192c0,-14.379 12.871,-25.583 37.229,-25.583c24.442,-0 49.675,10.758 75.33,28.546l33.079,-47.98c-29.396,-23.591 -65.35,-36.833 -107.538,-36.833c-59.158,0 -101.354,34.854 -101.354,87.654c-0,11.555 1.446,21.1 4.112,29.388l108.975,-0Z" style="fill:rgb(169,4,50);fill-rule:nonzero;"/>
        <path d="M122.504,181.767c35.504,10.308 43.363,18.487 43.363,33.204c-0,17.366 -15.713,27.666 -41.759,27.666c-33.087,0 -60.4,-13.649 -86.462,-35.145l-37.646,45.075c34.717,31.029 79,46.366 122.867,46.366c62.433,0 106.325,-32.275 106.325,-90.212c-0,-10.325 -1.342,-19.113 -3.842,-26.954l-102.846,-0Z" style="fill:rgb(169,4,50);fill-rule:nonzero;"/>
        <path d="M27.312,139.35c7.301,8.783 17.051,15.558 28.88,21.217l157.604,-0c-6.85,-8.392 -15.896,-15.309 -27.075,-21.217l-159.409,0Z" style="fill:rgb(169,4,50);fill-rule:nonzero;"/>
    </g>
</svg>
