<?xml version="1.0" encoding="UTF-8" standalone="no"?>
<!DOCTYPE svg PUBLIC "-//W3C//DTD SVG 1.1//EN" "http://www.w3.org/Graphics/SVG/1.1/DTD/svg11.dtd">
<svg width="100%" height="100%" viewBox="0 0 24 24" version="1.1" xmlns="http://www.w3.org/2000/svg" xmlns:xlink="http://www.w3.org/1999/xlink" xml:space="preserve" xmlns:serif="http://www.serif.com/" style="fill-rule:evenodd;clip-rule:evenodd;stroke-linejoin:round;stroke-miterlimit:2;">
    <path d="M11,7.318L11,20.993C11,21.545 11.448,21.993 12,21.993C12.552,21.993 13,21.545 13,20.993L13,7.255L20.403,13.459C20.826,13.814 21.457,13.758 21.812,13.335C22.166,12.912 22.111,12.281 21.688,11.926L12.05,3.849L2.316,11.923C1.891,12.275 1.832,12.906 2.185,13.331C2.537,13.756 3.168,13.815 3.593,13.462L11,7.318ZM2.908,3.832L21.421,3.832C21.973,3.832 22.421,3.384 22.421,2.832C22.421,2.281 21.973,1.832 21.421,1.832L2.908,1.832C2.356,1.832 1.908,2.281 1.908,2.832C1.908,3.384 2.356,3.832 2.908,3.832Z"/>
</svg>
