<?xml version="1.0" encoding="UTF-8" standalone="no"?>
<!DOCTYPE svg PUBLIC "-//W3C//DTD SVG 1.1//EN" "http://www.w3.org/Graphics/SVG/1.1/DTD/svg11.dtd">
<svg width="100%" height="100%" viewBox="0 0 707 707" version="1.1" xmlns="http://www.w3.org/2000/svg" xmlns:xlink="http://www.w3.org/1999/xlink" xml:space="preserve" xmlns:serif="http://www.serif.com/" style="fill-rule:evenodd;clip-rule:evenodd;stroke-linejoin:round;stroke-miterlimit:1.5;">
    <g id="layer1">
        <ellipse cx="348.983" cy="666.422" rx="297.803" ry="22.485" style="fill:#eab135;"/>
        <path id="path21" d="M150.455,661.397c-2.365,-1.593 -2.486,-1.215 8.711,-27.088c4.778,-11.041 9.021,-21.258 9.429,-22.703l0.743,-2.629l28.52,-0c19.192,-0 28.52,0.328 28.52,1.003c-0,1.456 -2.1,4.949 -15.808,26.289c-6.772,10.542 -13.693,20.63 -15.381,22.419l-3.069,3.251l-19.883,0.368c-15.446,0.287 -20.307,0.084 -21.782,-0.91Z" style="fill:#30948f;fill-rule:nonzero;"/>
        <path id="path22" d="M518.387,661.914c-2.375,-0.203 -4.952,-1.123 -5.895,-2.102c-3.2,-3.326 -31.135,-49.345 -30.379,-50.046c0.418,-0.387 12.687,-0.45 27.263,-0.139l26.504,0.565l8.901,22.797c4.896,12.538 8.901,24.06 8.901,25.605c0,2.5 -0.419,2.873 -3.821,3.402c-3.935,0.612 -23.991,0.56 -31.474,-0.082Z" style="fill:#30948f;fill-rule:nonzero;"/>
        <rect id="rect23" x="159.079" y="603.246" width="64.383" height="26.555" style="fill:#25565c;"/>
        <rect id="rect24" x="482.098" y="603.569" width="64.383" height="26.555" style="fill:#25565c;"/>
        <path d="M664.55,236.813c-0,-35.096 -28.493,-63.589 -63.589,-63.589l-498.75,-0c-35.095,-0 -63.588,28.493 -63.588,63.589l-0,299.581c-0,35.095 28.493,63.589 63.588,63.589l498.75,-0c35.096,-0 63.589,-28.494 63.589,-63.589l-0,-299.581Z" style="fill:#30948f;"/>
        <ellipse cx="348.983" cy="188.893" rx="76.219" ry="51.752" style="fill:#30948f;"/>
        <path d="M525.677,280.796c-0,-32.81 -26.637,-59.447 -59.447,-59.447l-314.921,-0c-32.809,-0 -59.447,26.637 -59.447,59.447l0,217.717c0,32.81 26.638,59.447 59.447,59.447l314.921,0c32.81,0 59.447,-26.637 59.447,-59.447l-0,-217.717Z" style="fill:#25565c;"/>
        <path d="M444.038,265.097c6.231,-0.194 14.382,24.087 14.382,24.087c0,0 25.453,1.726 26.64,5.169c2.12,6.151 -17.376,21.71 -17.376,21.71c-0,-0 6.37,25.895 3.615,28.132c-4.921,3.996 -25.122,-10.669 -25.122,-10.669c0,-0 -21.516,14.278 -24.406,12.218c-5.161,-3.681 1.851,-28.304 1.851,-28.304c0,0 -19.668,-17.071 -18.699,-20.582c1.732,-6.27 26.266,-6.823 26.266,-6.823c-0,0 9.36,-24.829 12.849,-24.938Z" style="fill:#eab135;"/>
        <path id="path14" d="M148.635,675.416l-3.421,-0.952l-2.57,-1.501l-2.57,-1.501l-4.332,-7.006l0.053,-9.421l3.872,-10.5l3.872,-10.5l8.141,-22.718l-0,-2.254l-38.685,-0.045l-7.845,-0.846l-7.845,-0.847l-14.884,-2.998l-5.683,-2.196l-5.683,-2.195l-11.811,-6.924l-6.47,-6.519l-6.469,-6.52l-3.181,-5.407l-3.181,-5.406l-3.744,-9.214l-1.477,-5.332l-1.476,-5.331l-0.97,-8.25l-0.971,-8.25l-0,-285.75l1.009,-7.875l1.009,-7.875l1.861,-7.5l1.86,-7.5l2.568,-5.848l2.567,-5.848l2.507,-3.918l2.507,-3.919l8.766,-9.469l8.61,-6.625l5.493,-2.949l5.493,-2.948l15.595,-4.609l8.703,-1.179l8.702,-1.179l15,-0.551l15,-0.55l116.25,0.159l2.625,-4.053l2.625,-4.052l8.437,-8.62l8.438,-8.62l-0,-0.578l15.158,-10.144l1.179,1.262l5.115,-2.368l5.116,-2.368l12.807,-3.714l13.5,-2.521l33.75,0.034l7.5,1.351l7.5,1.351l9.75,3.307l9.75,3.306l18.216,9.699l2.517,2.036l2.517,2.036l6.426,6.533l6.426,6.532l3.198,4.909l3.197,4.908l148.003,0.104l6,0.405l6,0.406l7.875,1.141l7.875,1.141l6.542,2.171l6.542,2.172l4.708,2.359l4.708,2.36l4.519,3.204l4.519,3.204l5.017,5.319l5.017,5.318l3.414,5.827l3.415,5.826l1.556,4.125l1.557,4.125l1.501,5.625l1.501,5.625l1.156,7.125l1.155,7.125l0.653,276.75l-0.824,12.334l-0.824,12.333l-1.562,7.542l-1.562,7.541l-2.228,5.625l-2.228,5.625l-1.564,2.625l-1.564,2.625l-7.546,10.334l-11.328,9.672l-4.712,2.638l-4.712,2.638l-7.636,2.566l-7.636,2.567l-7.902,1.41l-7.902,1.41l-12.75,0.938l-17.811,0.164l-17.812,0.163l-0.002,1.153l1.932,5.424l1.933,5.423l4.142,12l4.142,12l1.8,5.625c11.418,35.674 -56.492,34.001 -74.029,10.981c-5.463,-10.04 -11.076,-19.997 -16.652,-29.973l-11.246,-20.12l-1.199,-1.255l-1.199,-1.256l-111.209,0.375l-111.209,0.375l-1.937,3.375l-1.938,3.375l-10.118,18l-10.118,18l-4.236,7.109l-4.235,7.108l-2.889,2.905l-2.888,2.905l-3.487,1.611l-3.486,1.612l-43.5,0.334l-3.419,-0.953Zm35.249,-16.176l7.83,-0.585l2.295,-2.661l2.296,-2.661l10.662,-18.649l10.662,-18.649l2.301,-5.577l-0,-1.548l-47.899,0l-1.001,3.375l-2.616,7.125l-2.616,7.125l-5.108,13.125l-5.108,13.125l-0.969,4.636l1.942,1.606l4.5,0.658l15,0.141l7.829,-0.586Zm363.983,-0.563l1.313,-0.368l-0,-5.106l-8.484,-22.918l-3.843,-10.5l-3.842,-10.5l-47.86,-0.396l-0.517,0.573l-0.518,0.573l8.249,14.25l8.248,14.25l10.167,17.257l1.65,1.497l1.65,1.496l8.362,0.453l8.363,0.453l7.875,-0.323l7.875,-0.323l1.312,-0.368Zm47.813,-69.971l11.625,-0.889l12.633,-2.94l9.376,-4.616l8.707,-7.014l2.897,-3.731l2.897,-3.731l2.151,-4.5l2.151,-4.5l3.793,-13.5l0.814,-5.625l0.814,-5.625l0.681,-126l0.68,-126l-0.865,-31.5l-1.016,-8.435l-1.017,-8.435l-1.232,-5.065l-1.231,-5.065l-6.003,-12.587l-6.115,-6.107l-6.115,-6.108l-6.375,-3.103l-6.375,-3.103l-12.75,-3.065l-8.25,-0.463l-8.25,-0.464l-27,-0.448l-386.25,-1.111l-30,0.846l-30,0.845l-8.525,0.758l-8.526,0.757l-5.349,1.182l-5.35,1.181l-6,2.881l-6,2.88l-4.5,3.829l-4.5,3.828l-5.086,6.322l-2.492,5.329l-2.492,5.328l-1.49,5.547l-1.489,5.546l-1.951,12.75l-0,292.5l1.35,7.019l1.35,7.02l1.768,4.698l1.768,4.698l2.061,3.283l2.061,3.282l2.355,2.769l2.356,2.768l3.715,2.947l3.716,2.947l4.574,2.301l4.573,2.3l4.802,1.497l4.801,1.497l5.25,0.828l5.25,0.828l10.125,0.636l10.125,0.636l22.832,0.105l230.268,0.571l206.65,-0.32l11.625,-0.889Zm-342.75,-22.986l-10.125,-0.229l-21.75,-0.829l-21.75,-0.828l-19.5,-1.496l-19.5,-1.495l-20.25,-2.929l-15.53,-3.768l-4.985,-1.967l-4.985,-1.967l-4.875,-2.692l-4.875,-2.693l-9.778,-9.792l-3.102,-6l-3.103,-6l-3.835,-12.75l-1.55,-9.067l-1.549,-9.067l-0.756,-13.058l-0.757,-13.058l-0.873,-108.75l1.708,-62.25l1.095,-10.251l1.094,-10.251l1.51,-6.781l1.511,-6.781l1.91,-5.075l1.91,-5.074l2.603,-4.654l2.602,-4.653l3.8,-4.158l3.8,-4.158l5.139,-3.417l5.139,-3.416l4.366,-1.52l4.366,-1.521l15.324,-3.656l7.338,-1.092l7.338,-1.092l10.971,-1.143l10.971,-1.142l19.779,-1.133l19.779,-1.133l34.125,-0.758l34.125,-0.759l68.25,0.787l48,1.503l18,1.108l18,1.109l12,1.146l12,1.146l10.125,1.476l10.125,1.477l3.75,0.82l3.75,0.82l4.875,1.456l4.875,1.457l5.591,2.759l5.591,2.76l11.318,11.294l3.143,5.625l3.143,5.625l4.559,15.471l2.252,13.029l1.154,12l1.154,12l0.806,26.25l0.805,26.25l-0.448,51l-0.449,51l-1.584,27l-2.834,18.75l-1.947,6.691l-1.947,6.691l-2.612,5.204l-2.611,5.204l-4.351,6.324l-4.573,4.233l-4.572,4.233l-5.087,3.022l-5.087,3.022l-6.015,2.196l-6.016,2.195l-9.066,1.914l-9.067,1.915l-9.25,1.112l-9.25,1.112l-9.75,0.787l-10.5,0.763l-10.5,0.763l-43.5,1.472l-55.5,0.281l-55.5,0.28l-10.125,-0.229Zm139.5,-19.367l24.375,-1.164l10.5,-0.77l10.5,-0.77l8.25,-0.714l8.25,-0.714l5.625,-0.746l5.625,-0.747l7.5,-1.493l7.5,-1.494l6.678,-2.371l4.638,-2.594l4.638,-2.594l7.704,-8.429l2.934,-6.109l2.934,-6.109l1.136,-5.625l1.136,-5.625l1.506,-12.75l0.477,-9.75l0.477,-9.75l0.301,-1.875l0.302,-1.875l-0.011,-121.5l-1.452,-41.25l-0.712,-6.75l-0.713,-6.75l-0.814,-5.625l-0.815,-5.625l-1.923,-6l-1.924,-6l-2.171,-3.814l-2.172,-3.815l-6.008,-6.825l-3.65,-2.342l-3.651,-2.343l-10.347,-3.507l-4.875,-0.838l-4.875,-0.839l-5.25,-0.76l-5.25,-0.761l-7.125,-0.74l-7.125,-0.74l-5.625,-0.398l-5.625,-0.398l-9.75,-0.756l-9.75,-0.757l-30.375,-0.753l-30.375,-0.752l-48.375,-0.478l-48.375,-0.478l-28.875,0.865l-28.875,0.865l-31.5,1.53l-7.875,0.773l-7.875,0.772l-3.75,0.683l-3.75,0.683l-12.75,2.332l-6,2.87l-6,2.87l-3.974,3.59l-3.973,3.59l-3.29,6.855l-3.291,6.855l-1.559,6.016l-1.559,6.016l-0.727,5.215l-0.727,5.214l-0.938,14.25l-0.937,14.25l-0.025,123.75l0.575,15l0.574,15l2.231,26.25l0.421,2.25l0.421,2.25l3.063,12.75l2.904,6.109l2.904,6.11l3.365,2.962l3.365,2.962l5.464,2.751l5.463,2.752l7.081,1.527l7.082,1.528l6.418,0.667l6.419,0.667l8.25,1.135l8.25,1.136l21,1.511l17.625,0.813l17.625,0.812l16.5,0.461l61.5,-0.211l61.5,-0.21l24.377,-1.164Zm10.875,-37.494l-3.75,-0.923l-2.625,-1.265l-2.625,-1.266l-3.687,-2.81l-3.688,-2.81l-5,-7.289l-0,-5.502l1.147,-1.638l1.147,-1.638l2.659,-0.734l2.659,-0.734l1.256,0.44l1.257,0.44l2.062,1.905l2.063,1.906l-0,1.969l2.91,2.91l2.909,2.91l3.941,1.308l3.941,1.309l4.968,-0.355l4.968,-0.356l4.748,-2.455l1.927,-2.073l1.927,-2.073l2.476,-3.375l2.475,-3.375l7.243,-0.465l1.783,1.676l1.784,1.675l-0,6.945l-2.264,3.57l-2.264,3.57l-2.048,1.77l-2.049,1.77l-9,4.446l-7.949,1.668l-11.551,-0.128l-3.75,-0.923Zm-163.875,-37.703l-2.625,-0.264l-4.875,-0.775l-4.875,-0.774l-7.5,-2.311l-7.5,-2.312l-3.75,-1.865l-3.75,-1.864l-8.547,-5.142l-5.852,1.151l-5.851,1.152l-11.25,0.991l-11.25,0.991l-9.503,-0.531l-9.502,-0.531l-10.245,-3.372l-4.125,-2.079l-4.125,-2.079l-2.776,-2.879l-2.775,-2.878l-3.127,-7.085l-0.835,-9.415l1.606,-9.75l2.663,-5.398l2.662,-5.398l5.688,-6.047l5.689,-6.047l5.452,-4.385l5.451,-4.386l5.23,-3.509l5.229,-3.508l0.487,-6.928l0.487,-6.928l1.423,-8.608l1.423,-8.608l0.865,-2.25l0.865,-2.25l1.258,-3l1.258,-3l2.888,-5.625l2.888,-5.625l8.107,-10.643l6.572,-6.32l6.572,-6.32l5.25,-3.44l5.25,-3.44l4.875,-2.639l4.875,-2.639l5.25,-1.94l5.25,-1.94l6.75,-1.561l17.25,-2.231l10.227,-0.011l8.387,1.188l8.386,1.189l15.75,5.296l5.03,2.531l5.029,2.532l10.941,7.434l3.344,3.415l3.343,3.415l2.832,-0l3.866,-1.102l3.865,-1.101l7.82,-1.149l7.819,-1.148l20.361,0.011l4.875,0.763l4.875,0.763l2.25,0.868l2.25,0.867l3.916,2.466l3.916,2.466l4.474,6.176l1.16,3.988l1.159,3.988l-0.017,7.269l-1.019,3.825l-1.018,3.825l-2.11,3.675l-2.11,3.675l-6.8,8.167l-6.8,8.168l-9.75,8.27l-9.75,8.269l-4.125,2.624l-4.125,2.623l-0.461,0.694l-0.461,0.695l-0.953,10.246l-4.281,12.494l-1.765,3.75l-1.764,3.75l-3.376,5.25l-3.376,5.25l-5.606,6.375l-5.605,6.375l-3.051,2.828l-3.051,2.829l-6,4.027l-6,4.026l-4.654,2.326l-4.653,2.326l-5.097,1.954l-5.096,1.954l-4.5,1.383l-7.057,1.486l-7.057,1.486l-16.636,-0.24l-2.626,-0.265Zm18.75,-14.087l7.875,-1.062l5.25,-1.635l5.25,-1.634l4.5,-2.252l4.5,-2.251l5.18,-3.423l5.181,-3.424l9.767,-9.103l4.342,-5.447l4.343,-5.448l2.67,-4.774l2.67,-4.774l1.861,-5.473l1.861,-5.472l-0,-1.218l-3.938,2.512l-3.937,2.513l-17.25,9.724l-11.625,6.041l-11.625,6.042l-8.45,3.84l-8.451,3.84l-10.299,4.19l-10.3,4.189l-10.875,3.622l-10.875,3.621l4.918,2.241l4.919,2.24l4.692,1.216l4.692,1.216l8.529,1.251l6.75,0.154l7.875,-1.062Zm-91.138,-11.711l8.987,-0.808l8.263,-1.472l8.263,-1.471l19.847,-5.187l22.903,-7.616l12.375,-4.914l12.375,-4.915l16.5,-8.012l16.5,-8.011l10.125,-5.876l10.125,-5.876l18.75,-12.005l16.5,-12.286l5.25,-4.681l5.25,-4.681l2.884,-3.131l2.884,-3.131l6.513,-8.663l3.198,-8.547l-0.464,-2.473l-0.464,-2.474l-2.248,-2.56l-2.248,-2.561l-3.628,-1.205l-3.629,-1.205l-21.124,0.028l-3.587,0.814l-3.587,0.813l-3.188,0.801l-3.187,0.801l-0,1.122l1.009,0.837l1.009,0.838l1.376,3.051c4.291,8.472 6.699,17.349 6.148,26.863l-8.318,6.44l-8.349,6.204l-7.875,4.857l-7.875,4.856l-10.875,6.06l-10.875,6.059l-13.784,6.492l-13.783,6.493l-10.967,4.367l-10.966,4.368l-13.611,4.543l-13.61,4.544l-9.003,2.273l-9.003,2.273l-8.081,1.201l-8.081,1.2c-5.367,-7.085 -9.657,-14.752 -12.511,-23.193l-1.069,-3.284l-1.068,-3.284l-0.463,-2.841l-6.156,4.641l-6.157,4.64l-4.857,5.322l-4.857,5.322l-2.233,4.208l-2.233,4.208l-0.489,3.375l-0.489,3.375l1.794,3.375l1.794,3.375l2.941,2.018l2.942,2.018l9,2.334l2.625,0.2l2.625,0.2l5.25,0.361l8.987,-0.807Zm-82.862,-0.698l-0,-0.75l-0.75,0l-0,0.75l0.75,0Zm447.75,-98.25l-0,-0.75l-0.75,0l-0,0.75l0.75,0Zm-116.192,-181.419l-1.606,-2.255l-5.039,-4.551l-5.038,-4.551l-17.506,-8.889l-12.494,-3.732l-6.75,-0.774l-6.75,-0.773l-13.5,-0.916l-9.492,0.828l-9.491,0.827l-5.526,1.057l-5.527,1.058l-5.607,2.012l-5.607,2.012l-3,1.516l-3,1.515l-5.298,3.572l-5.299,3.571l-4.715,4.759l-4.716,4.758l59.514,0.533l59.514,0.532l18,0.435l0.539,-0.289l-1.606,-2.255Z" style="fill:#131408;fill-rule:nonzero;"/>
        <path d="M291.358,144.638l-79.717,-104.914" style="fill:none;stroke:#000;stroke-width:18px;"/>
        <path d="M403.713,141.792l71.06,-98.769" style="fill:none;stroke:#000;stroke-width:18px;"/>
        <circle cx="477.472" cy="39.724" r="22.178"/>
        <circle cx="215.141" cy="39.724" r="22.178"/>
        <path id="path17" d="M239.575,457.356l-4.731,-0.614l-4.269,-1.19l-4.27,-1.189l-4.704,-1.943l-4.703,-1.942l0.733,-0.884l0.733,-0.884l3.866,-0.99l3.866,-0.991l11.354,-4.308l11.355,-4.308l7.5,-3.181l7.5,-3.18l22.5,-10.828l13.5,-7.362l13.5,-7.362l4.473,-2.84l4.473,-2.84l1.08,0.668l-1.822,5.356l-1.821,5.356l-2.365,4.193l-2.365,4.192l-4.316,5.625l-4.317,5.625l-4.01,3.837l-4.01,3.837l-9.75,7.347l-6.037,3.137l-6.037,3.136l-6.338,1.831l-6.338,1.832l-7.717,0.834l-7.717,0.834l-4.066,-0.19l-4.73,-0.614Zm-89.561,-11.941l-6.541,-0.525l-5.084,-2.552l-5.084,-2.553l-0.74,-1.687l-0.741,-1.688l-1.086,0l-0.82,-3.043l-0.819,-3.044l1.136,-3.909l1.136,-3.908l4.782,-7.219l7.569,-8.282l5.726,-4.359l5.725,-4.358l1.48,-1.117c0.048,2 0.715,3.859 1.266,5.762l1.228,3.647l-6.71,6.955l-2.527,6.547l1.073,3.066l1.072,3.066l2.346,1.364l2.346,1.363l8.808,1.11l14.25,-1.208l7.5,-1.563l7.5,-1.563l2.25,-0.349l2.25,-0.844l8.25,-2.391l8.25,-2.391l9.187,-3.259l19.313,-7.151l18,-7.71l16.875,-7.922l6.375,-3.241l6.75,-3.768l6.75,-3.767l8.625,-5.051l8.625,-5.051l7.125,-5.084l7.125,-5.084l9,-7.426l8.421,-7.827l1.977,-3.374l1.977,-3.374l-0,-4.409l-1.071,-1.529l-1.071,-1.529l-3.038,-1.003c-2.879,0.856 -5.762,0.766 -8.696,0.513l-6.228,1.16l-1.67,-4.215l-3.521,-4.002l0.379,-0.949l2.8,-0.735l5.995,-1.158l5.996,-1.157l19.875,-0.04l2.996,0.898l2.996,0.897l2.647,2.356l2.648,2.356l0.778,2.818l0.778,2.818l-1.234,3.715l-1.234,3.716l-5.37,7.862l-3.331,3.75l-3.33,3.75l-11.469,10.35l-14.73,11.023l-8.532,5.587l-8.532,5.586l-11.561,6.767l-11.561,6.767l-13.417,6.609l-13.417,6.609l-10.875,4.576l-10.875,4.576l-8.625,3.159l-8.625,3.158l-3,0.995l-3,0.994l-8.625,2.641l-8.625,2.641l-4.801,1.218l-4.802,1.219l-4.23,0.535l-0.607,0.375l-0.608,0.376l-10.476,1.509l-10.476,1.51l-12,0.625l-6.541,-0.526Zm29.447,-33.131l-1.522,-2.499l-4.598,-12.699l-1.166,-8.275l-1.167,-8.276l0.938,-15.947l1.451,-5.675l1.452,-5.675l2.33,-5.852l2.331,-5.851l5.894,-9.968l3.401,-4.126l8.25,-8.939l9.75,-7.341l5.826,-3.046l5.827,-3.045l4.077,-1.403l4.078,-1.403l7.482,-1.251l7.482,-1.251l6.989,0.405l6.989,0.406l3.375,0.37l3.375,0.37l3.529,0.794l3.529,0.794l6.178,2.255l6.178,2.255l5.293,3.117l5.293,3.118l6,4.491l5.582,5.697l5.582,5.696l7.219,11.255l3.981,10.13l-0.798,1.751l-0.798,1.751l-7.759,5.265l-7.759,5.265l-5.625,3.387l-5.625,3.386l-9.907,5.335c-7.678,4.633 -15.813,8.683 -24.493,12.037c-8.152,3.982 -16.671,7.623 -25.66,10.828l-10.44,4.078l-8.25,2.649l-8.25,2.649l-9,2.24l-9,2.239l-6.322,1.008l-1.522,-2.499Z" style="fill:#eab135;fill-rule:nonzero;"/>
        <circle cx="592.83" cy="287.16" r="28.082"/>
        <path d="M571.499,370.806l43.662,-0" style="fill:none;stroke:#000;stroke-width:18px;stroke-linecap:round;"/>
        <path d="M570.999,410.243l43.662,0" style="fill:none;stroke:#000;stroke-width:18px;stroke-linecap:round;"/>
        <path d="M570.999,468.451l43.662,0" style="fill:none;stroke:#000;stroke-width:18px;stroke-linecap:round;"/>
        <path d="M571.499,507.548l43.662,-0" style="fill:none;stroke:#000;stroke-width:18px;stroke-linecap:round;"/>
        <ellipse cx="369.771" cy="448.704" rx="18.184" ry="24.326"/>
        <ellipse cx="458.245" cy="448.704" rx="18.184" ry="24.326"/>
    </g>
</svg>
