<?xml version="1.0" encoding="UTF-8" standalone="no"?>
<!-- Created with Inkscape (http://www.inkscape.org/) -->

<svg
   width="249.2375mm"
   height="249.2375mm"
   viewBox="0 0 249.2375 249.2375"
   version="1.1"
   id="svg1"
   xml:space="preserve"
   xmlns="http://www.w3.org/2000/svg"
   xmlns:svg="http://www.w3.org/2000/svg"><defs
     id="defs1" /><g
     id="layer1"
     transform="translate(2.6458349,-29.897915)"><path
       style="fill:#25565c;fill-opacity:1;stroke:#000000;stroke-width:1.38915"
       d="m 270.88329,727.78473 c -34.49791,-1.87575 -74.12152,-6.14619 -89.94716,-9.69405 -9.57446,-2.14644 -22.61443,-8.39641 -28.37612,-13.60048 -5.17069,-4.67026 -10.19249,-15.14699 -13.5345,-28.23636 -5.64674,-22.11611 -7.05845,-55.18969 -7.03474,-164.8104 0.0227,-105.02505 0.83666,-126.64648 5.50809,-146.31569 8.59827,-36.20334 24.24436,-46.43524 79.20778,-51.79865 62.72329,-6.12062 290.75434,-5.71493 366.90063,0.65276 61.88699,5.17526 75.22766,9.86308 88.38539,31.05803 4.81134,7.75026 8.40071,20.16221 10.89353,37.66959 1.89062,13.2781 2.38916,33.91647 2.95288,122.24476 0.87678,137.38111 -0.68984,163.8432 -10.85577,183.36716 -14.75367,28.33482 -35.64871,33.72884 -153.35931,39.58948 -52.79171,2.62842 -201.45567,2.55362 -250.7407,-0.12615 z M 576.06676,674.7251 c 14.42791,-7.41549 21.33724,-21.30301 14.31669,-28.77606 -2.24659,-2.39137 -3.83035,-2.80932 -8.23523,-2.17325 -4.45377,0.64314 -6.37448,1.99655 -10.47552,7.38141 -2.76198,3.62662 -6.83902,7.53359 -9.06008,8.68215 -4.68951,2.42503 -16.14597,2.74605 -21.79746,0.61077 -4.62725,-1.7483 -11.55088,-8.03933 -11.55088,-10.49552 0,-0.95108 -1.91435,-3.09236 -4.2541,-4.75842 -7.51586,-5.35176 -16.44056,-1.31132 -16.5389,7.48758 -0.0961,8.60272 13.25741,21.82319 26.3406,26.07806 1.91502,0.62279 10.04556,0.96396 18.06787,0.75814 13.27802,-0.34065 15.35732,-0.77063 23.18701,-4.79486 z M 355.70973,627.286 c 37.62957,-8.32276 68.13098,-30.02929 86.34416,-61.44741 7.58896,-13.09111 13.5857,-29.91679 13.5857,-38.1188 0,-5.33662 0.46787,-6.01387 7.29302,-10.55684 19.52076,-12.99345 46.81037,-40.84863 53.89187,-55.00878 4.15051,-8.29936 5.04608,-20.32847 2.1603,-29.01674 -2.84486,-8.56506 -8.50306,-14.48976 -18.51697,-19.38911 -6.97871,-3.41436 -9.50428,-3.82612 -26.61655,-4.33944 -13.77506,-0.4132 -22.4879,0.0703 -32.10312,1.78168 -23.18113,4.12583 -22.22362,4.09129 -24.47096,0.88277 -5.168,-7.37836 -28.26032,-20.91022 -44.98629,-26.36151 -26.60715,-8.67173 -62.69604,-7.86726 -87.7629,1.95636 -29.00435,11.36672 -54.18392,34.71964 -67.30825,62.42535 -6.40248,13.51577 -9.39514,26.10156 -11.1181,46.75783 l -0.88838,10.65056 -9.76328,6.67096 c -15.30377,10.4566 -32.47317,27.48233 -37.24305,36.93142 -8.05235,15.95162 -6.8234,36.98915 2.7688,47.39717 13.52083,14.67076 46.63638,18.97903 90.55039,11.78041 l 9.1203,-1.49505 10.32774,5.6217 c 24.52101,13.34753 58.95221,18.58012 84.73557,12.87747 z m 150.01974,-2.21348 c 7.81212,-7.42241 9.64336,-12.82206 9.64336,-28.4347 0,-15.63319 -1.82921,-21.01008 -9.68801,-28.47747 -3.91418,-3.71924 -5.32074,-4.16744 -13.07859,-4.16744 -11.27293,0 -16.96796,3.65826 -21.30694,13.68672 -6.33699,14.64635 -5.5186,31.34028 2.13447,43.54004 4.7739,7.61007 7.41364,8.79329 18.62433,8.34806 8.1834,-0.32501 9.86375,-0.87752 13.67138,-4.49521 z m 120.35362,-1.10684 c 5.35282,-5.05751 6.73584,-7.4941 8.71398,-15.35229 6.4939,-25.79715 -8.59367,-49.72452 -28.24427,-44.79254 -5.36168,1.34571 -11.8033,7.51911 -15.53985,14.89286 -2.82552,5.57589 -3.40457,8.74257 -3.40457,18.61868 0,9.97219 0.55721,12.96162 3.4394,18.45235 6.41255,12.21634 9.14124,14.09031 20.60421,14.15032 7.63254,0.04 8.41221,-0.28255 14.4311,-5.96938 z m -54.9863,-166.49817 c 2.96913,-1.66875 5.39843,-3.54409 5.39843,-4.16743 0,-0.62334 0.65194,-1.13335 1.44875,-1.13335 0.79681,0 4.82168,-2.54659 8.94415,-5.65908 l 7.49541,-5.6591 12.20778,9.13196 c 12.24531,9.16003 13.77897,9.80721 19.56584,8.25638 4.0852,-1.09478 4.02768,-4.40131 -0.34728,-19.96161 -4.33487,-15.41769 -4.39185,-18.86398 -0.34729,-21.00427 4.04235,-2.13911 14.9092,-10.84556 17.99684,-14.41893 2.87311,-3.32511 3.15012,-6.7548 0.70917,-8.78061 -0.98116,-0.81427 -8.32626,-2.81815 -16.32246,-4.45306 -8.41191,-1.7199 -15.47535,-3.94832 -16.76155,-5.28803 -1.22264,-1.27351 -3.94338,-7.3164 -6.04607,-13.42864 -4.47351,-13.00377 -6.71609,-15.97517 -12.05682,-15.97517 -5.01661,0 -6.91032,2.98245 -11.65769,18.35995 -2.37259,7.68521 -4.5718,12.36838 -6.01995,12.81936 -1.25494,0.39081 -7.1402,1.63437 -13.07837,2.76347 -14.17718,2.6957 -18.26591,4.72561 -18.80101,9.33405 -0.3356,2.89025 0.80554,4.6512 5.39462,8.32461 3.20116,2.56242 8.33829,6.90665 11.41586,9.65386 l 5.59557,4.99491 -3.00262,11.97184 c -1.65144,6.58452 -3.00262,13.2447 -3.00262,14.8004 0,1.55572 -0.62512,2.82857 -1.38915,2.82857 -2.02735,0 -1.7021,2.3984 0.85434,6.30002 2.75847,4.20997 4.88432,4.28018 11.80612,0.3899 z"
       id="path18"
       transform="matrix(0.26458333,0,0,0.26458333,-2.6458349,29.897915)" /><path
       style="fill:#25565c;fill-opacity:1;stroke:#000000;stroke-width:0.294416"
       d="m 453.08748,469.81407 c -0.35846,-1.10368 -6.09097,-15.43724 -8.25602,-20.64334 -0.63074,-1.51667 -1.1468,-2.84357 -1.1468,-2.94866 0,-0.10509 0.6471,-0.42091 1.43799,-0.70181 1.24853,-0.44344 2.65949,-0.51073 10.70906,-0.51073 h 9.27107 l 1.55231,2.36446 1.55231,2.36445 -0.95758,3.59747 c -0.52667,1.9786 -1.23569,3.99493 -1.57561,4.48071 -0.56084,0.80152 -11.96812,13.10151 -12.15063,13.10151 -0.0426,0 -0.23889,-0.49683 -0.4361,-1.10406 z"
       id="path19"
       transform="matrix(0.26458333,0,0,0.26458333,-2.6458349,29.897915)" /><path
       style="fill:#25565c;fill-opacity:1;stroke:#000000;stroke-width:0.294416"
       d="m 207.1385,569.11046 c -1.44803,-0.88608 -2.78966,-1.77956 -2.9814,-1.98551 -0.19175,-0.20596 -0.81835,-1.79651 -1.39246,-3.53456 l -1.04382,-3.16009 1.01507,-3.30617 c 0.55828,-1.8184 1.25376,-3.57605 1.54551,-3.90589 0.29174,-0.32985 2.23409,-2.49666 4.31632,-4.81514 3.65254,-4.06695 3.79846,-4.19139 4.14271,-3.53299 0.48453,0.9267 8.42141,19.07679 9.98653,22.83722 l 1.25601,3.01776 -7.10585,-0.002 -7.10584,-0.002 z"
       id="path20"
       transform="matrix(0.26458333,0,0,0.26458333,-2.6458349,29.897915)" /><path
       style="fill:#30948f;fill-opacity:1;stroke:none;stroke-width:1.19495"
       d="m 208.80999,877.49714 c -2.61534,-1.99164 -2.74969,-1.51929 9.63152,-33.86196 5.28347,-13.80168 9.97571,-26.57272 10.42721,-28.38008 l 0.8209,-3.28611 h 31.53665 c 21.22247,0 31.53665,0.41022 31.53665,1.25429 0,1.82046 -2.32223,6.18619 -17.48023,32.86245 -7.48791,13.17781 -15.14134,25.7887 -17.00762,28.02421 l -3.39324,4.06455 -21.98652,0.46047 c -17.07991,0.35771 -22.45489,0.10379 -24.08532,-1.13782 z"
       id="path21"
       transform="matrix(0.26458333,0,0,0.26458333,-2.6458349,29.897915)" /><path
       style="fill:#30948f;fill-opacity:1;stroke:none;stroke-width:1.19495"
       d="m 689.914,878.01757 c -2.78539,-0.25386 -5.80881,-1.40029 -6.91421,-2.62175 -3.75288,-4.14688 -36.51687,-61.52944 -35.63059,-62.40308 0.49035,-0.48335 14.87974,-0.56174 31.97642,-0.17419 l 31.08487,0.70464 10.43967,28.42638 c 5.74181,15.63451 10.43966,30.00197 10.43966,31.92769 0,3.11765 -0.49102,3.58248 -4.48107,4.24199 -4.61592,0.76296 -28.13864,0.69817 -36.91475,-0.10168 z"
       id="path22"
       transform="matrix(0.26458333,0,0,0.26458333,-2.6458349,29.897915)" /><rect
       style="fill:#25565c;fill-opacity:1;stroke:none;stroke-width:0.264583"
       id="rect23"
       width="22.712902"
       height="9.3679667"
       x="53.473591"
       y="242.70985" /><rect
       style="fill:#25565c;fill-opacity:1;stroke:none;stroke-width:0.264583"
       id="rect24"
       width="22.712902"
       height="9.3679667"
       x="167.42752"
       y="242.82358" /><g
       id="g14"
       transform="translate(-0.99485193,0.49742588)"><path
         style="fill:#eab135"
         d="m 96.176041,272.35791 -4.233333,-0.0732 -11.641667,-0.29006 -11.641667,-0.29006 -5.688541,-0.25281 -5.688542,-0.25282 -4.7625,-0.27537 -4.7625,-0.27536 -5.820834,-0.39919 -5.820833,-0.39918 -3.571875,-0.39222 -3.571875,-0.39222 -2.645834,-0.40381 -2.645833,-0.40381 -1.719792,-0.42318 -1.719791,-0.42318 -1.446217,-0.63101 -1.446216,-0.63102 -0.472013,-0.42716 -0.472013,-0.42717 v -0.86702 -0.86702 l 0.776269,-0.55275 0.776269,-0.55275 1.12509,-0.39695 1.12509,-0.39696 1.60437,-0.36967 1.604371,-0.36967 3.042708,-0.40686 3.042708,-0.40686 4.101042,-0.40629 4.101042,-0.4063 3.96875,-0.26264 3.96875,-0.26264 0.627709,-0.004 0.62771,-0.004 12.039827,9.29934 16.754267,-9.05405 -0.136031,-0.2201 -0.136031,-0.2201 5.748776,-0.17632 5.748777,-0.17631 32.676042,-0.0956 32.67604,-0.0957 8.1939,0.21857 8.1939,0.21856 0.86808,0.16286 0.86808,0.16285 c 0.90051,1.4269 1.38618,2.31281 1.83806,3.39992 l 0.16799,0.6693 c 8.30473,9.82831 23.58669,-0.94875 26.53747,-3.18413 l 1.00797,0.0665 1.00797,0.0665 4.36563,0.28956 4.36562,0.28956 4.7234,0.51777 4.7234,0.51776 2.37508,0.52905 2.37509,0.52904 1.02861,0.52475 1.0286,0.52476 0.29224,0.54604 0.29223,0.54605 -0.41936,0.64003 -0.41937,0.64003 -0.60578,0.39692 -0.60578,0.39693 -1.55321,0.53438 -1.55321,0.53438 -3.06285,0.52002 -3.06284,0.52003 -2.38125,0.2641 -2.38125,0.2641 -3.04271,0.27492 -3.0427,0.27492 -1.45521,0.12583 -1.45521,0.12583 -5.42396,0.39213 -5.42396,0.39213 -6.48229,0.27797 -6.48229,0.27797 -14.02292,0.41056 -14.02291,0.41057 -24.60626,0.0693 -24.60625,0.0693 z m -13.31043,-81.6125 -1.668763,-0.21665 -1.506237,-0.41959 -1.506237,-0.41958 -1.65933,-0.68532 -1.65933,-0.68531 0.258689,-0.3117 0.25869,-0.3117 1.363737,-0.34952 1.363737,-0.34951 4.005654,-1.51976 4.005653,-1.51976 2.645834,-1.12203 2.645833,-1.12202 3.96875,-1.90984 3.96875,-1.90984 4.762499,-2.59731 4.7625,-2.59732 1.578,-1.0018 1.57801,-1.00181 0.19052,0.11775 0.19052,0.11775 -0.64268,1.88957 -0.64269,1.88957 -0.83419,1.47902 -0.83419,1.47901 -1.52283,1.98437 -1.52284,1.98438 -1.41465,1.35364 -1.41465,1.35365 -1.71979,1.29588 -1.71979,1.29588 -2.129721,1.10656 -2.129723,1.10656 -2.235902,0.64596 -2.235903,0.64596 -2.722356,0.29431 -2.722355,0.29431 -0.717228,-0.0335 -0.717228,-0.0335 z m -31.595069,-4.21237 -2.307583,-0.18525 -1.793459,-0.90046 -1.793459,-0.90045 -0.261178,-0.59532 -0.261178,-0.59531 H 44.66204 44.470395 l -0.289103,-1.07365 -0.289104,-1.07365 0.400868,-1.37893 0.400868,-1.37894 0.843352,-1.27323 0.843352,-1.27323 1.335182,-1.4609 1.335182,-1.4609 2.019871,-1.5376 2.019872,-1.5376 0.521811,-0.39405 c 0.01705,0.7057 0.252265,1.36146 0.446718,2.03258 l 0.433226,1.28677 -1.183482,1.22677 -1.183482,1.22677 -0.445714,1.15482 -0.445714,1.15482 0.378263,1.08163 0.378263,1.08162 0.827573,0.48101 0.827572,0.48101 1.553678,0.19569 1.553677,0.19569 2.513542,-0.21295 2.513542,-0.21295 2.645833,-0.55144 2.645833,-0.55145 0.396875,-0.0615 0.396875,-0.0615 0.396875,-0.14897 0.396875,-0.14897 2.910417,-0.84341 2.910417,-0.8434 3.241146,-1.14978 3.241145,-1.14977 v 0.15344 0.15343 l 0.33073,-0.26785 0.330729,-0.26785 2.910416,-1.14421 2.910417,-1.14422 0.132292,-0.0207 0.132292,-0.0207 3.175,-1.53402 3.175,-1.53403 0.264583,-0.0588 0.264583,-0.0588 2.248959,-1.14331 2.248958,-1.14331 2.381252,-1.32911 2.38125,-1.32911 3.04271,-1.78178 3.0427,-1.78179 2.51355,-1.79367 2.51354,-1.79367 1.5875,-1.3098 1.5875,-1.3098 1.4853,-1.38059 1.4853,-1.38059 0.69751,-1.19021 0.69751,-1.19022 v -0.77778 -0.77777 l -0.3778,-0.5394 -0.37781,-0.5394 -1.07173,-0.3537 c -1.01569,0.30205 -2.03271,0.27009 -3.06791,0.18106 l -2.1971,0.40917 -0.58913,-1.48713 -1.24211,-1.41179 0.13379,-0.33471 0.98768,-0.25937 2.11512,-0.40832 2.11513,-0.40833 3.50568,-0.007 3.50568,-0.007 1.05689,0.31665 1.0569,0.31665 0.93405,0.83099 0.93405,0.83098 0.2745,0.99418 0.27451,0.99418 -0.43537,1.31077 -0.43536,1.31076 -0.94718,1.3867 -0.94718,1.3867 -1.17501,1.32292 -1.17501,1.32291 -2.02295,1.82569 -2.02295,1.82569 -2.59824,1.94438 -2.59824,1.94438 -3.00989,1.97083 -3.0099,1.97083 -4.07839,2.38726 -4.07839,2.38727 -4.73327,2.33149 -4.733265,2.33149 -3.836459,1.61417 -3.836458,1.61417 -3.042709,1.1144 -3.042708,1.11441 -1.058333,0.35074 -1.058334,0.35074 -3.042708,0.93167 -3.042708,0.93168 -1.693822,0.42983 -1.693823,0.42982 -0.746143,0.0944 -0.746143,0.0944 -0.2143,0.13244 -0.214299,0.13245 -3.695735,0.53249 -3.695736,0.53249 -2.116666,0.11025 -2.116667,0.11025 z m 10.388329,-11.68792 -0.53681,-0.88158 -0.811063,-2.23991 -0.811063,-2.23991 -0.411471,-2.91947 -0.411471,-2.91946 0.165333,-2.81285 0.165333,-2.81285 0.51204,-2.00206 0.512041,-2.00206 0.822258,-2.06425 0.822258,-2.06426 1.039547,-1.75828 1.039547,-1.75828 0.599929,-0.72775 0.599929,-0.72775 1.455208,-1.57676 1.455208,-1.57676 1.719792,-1.29482 1.719792,-1.29482 2.055382,-1.07446 2.055383,-1.07446 1.438554,-0.49494 1.438555,-0.49493 2.639425,-0.44134 2.639424,-0.44135 2.465597,0.14314 2.465597,0.14315 1.190625,0.13049 1.190625,0.1305 1.244988,0.28017 1.244989,0.28017 2.179386,0.79537 2.179385,0.79538 1.867293,1.09983 1.867294,1.09982 1.05833,0.79223 1.05833,0.79223 1.96915,2.00961 1.96914,2.0096 1.27338,1.98521 1.27338,1.98521 0.70219,1.78673 0.70219,1.78673 -0.28152,0.61788 -0.28153,0.61788 -2.73715,1.85738 -2.73714,1.85738 -1.98438,1.19455 -1.98437,1.19456 -3.494854,1.88202 -3.494852,1.88202 -0.341606,0.0698 -0.341607,0.0698 -0.132291,0.14632 -0.132292,0.14632 -4.197898,1.93212 -4.197898,1.93212 -0.300019,0.0457 -0.300019,0.0457 -0.285676,0.17876 -0.285677,0.17877 -3.683073,1.43889 -3.683074,1.43888 -2.910416,0.93438 -2.910417,0.93439 -3.175,0.79016 -3.175,0.79017 -1.115181,0.17777 -1.11518,0.17777 z M 146.64531,150.38837 146.05,149.70921 v -0.35878 -0.35878 l 0.2716,-0.16786 0.2716,-0.16786 -0.0688,-0.31078 -0.0688,-0.31078 0.92164,-3.65779 0.92164,-3.65779 -1.42445,-1.30315 -1.42445,-1.30314 h -0.18979 -0.1898 l -1.4193,-1.33951 -1.41931,-1.33951 -0.0342,-0.64102 -0.0342,-0.64102 0.51588,-0.46687 0.51588,-0.46686 0.0384,0.0832 0.0384,0.0832 0.39687,-0.12352 0.39688,-0.12352 1.19062,-0.29114 1.19063,-0.29114 0.92604,-0.12107 0.92604,-0.12107 1.05833,-0.24195 1.05834,-0.24196 0.46413,-0.19417 0.46413,-0.19417 0.56483,-1.8895 0.56482,-1.88949 0.15423,-0.26459 0.15422,-0.26458 0.0532,-0.35139 0.0532,-0.35139 0.19263,-0.44236 0.19264,-0.44236 0.0709,-0.34453 0.0709,-0.34453 0.42436,-0.64766 0.42436,-0.64765 0.32463,-0.0293 0.32463,-0.0293 0.66146,0.055 0.66146,0.055 0.34601,0.28398 0.34602,0.28398 0.39795,0.9471 0.39795,0.94711 0.81938,2.38125 0.81938,2.38125 0.37118,0.43571 0.37118,0.43572 1.24047,0.32429 1.24048,0.32429 0.89646,0.11015 0.89647,0.11015 0.42645,0.20846 0.42645,0.20846 0.88934,0.0523 0.88933,0.0523 0.49973,0.26744 0.49973,0.26745 v -0.18261 -0.1826 l 0.47222,0.42735 0.47221,0.42735 -0.0268,0.61227 -0.0268,0.61227 -0.51156,0.60815 -0.51156,0.60816 -1.94245,1.50208 -1.94244,1.50209 -0.51599,0.26458 -0.516,0.26458 -0.15641,0.62113 -0.15641,0.62113 0.9612,3.51488 0.9612,3.51488 v 0.91475 0.91475 l -0.59531,0.25777 -0.59531,0.25776 -0.71563,-0.0662 -0.71564,-0.0662 -0.80572,-0.5957 -0.80572,-0.59569 v -0.21483 -0.21482 h -0.25235 -0.25236 l -1.93045,-1.45011 -1.93046,-1.4501 -0.3349,-0.005 -0.3349,-0.005 -1.64948,1.18066 -1.64947,1.18066 -0.31957,0.27455 -0.31956,0.27455 h -0.27575 -0.27575 v 0.20868 0.20868 l -1.40192,0.84965 -1.40192,0.84965 -0.38402,-0.005 -0.38401,-0.005 z"
         id="path17" /><path
         style="fill:#30948f"
         d="m 171.18542,237.99271 v -0.13229 h 0.13229 0.13229 v 0.13229 0.13229 h -0.13229 -0.13229 z m -114.961463,-0.69716 -17.4625,-0.17515 -2.688015,-0.28292 -2.688016,-0.28293 -1.838896,-0.38342 -1.838897,-0.38342 -1.899115,-0.80814 -1.899115,-0.80815 -1.379181,-0.9188 -1.379182,-0.9188 -1.240975,-1.2716 -1.240976,-1.27159 -0.934116,-1.55912 -0.934115,-1.55911 0.140185,-0.22682 0.140186,-0.22683 h -0.23188 -0.231879 l -0.431521,-1.38906 -0.431521,-1.38906 -0.475708,-2.51355 -0.475709,-2.51354 -9.85e-4,-48.94792 -9.86e-4,-48.94791 0.09986,-2.69366 0.09986,-2.69366 0.365825,-2.33342 0.365825,-2.33343 0.549669,-1.85208 0.549669,-1.85209 0.783628,-1.65264 0.783628,-1.65265 1.489679,-1.60904 1.489679,-1.60903 1.623772,-1.158696 1.623772,-1.1587 1.30528,-0.559958 1.30528,-0.559958 2.088706,-0.499275 2.088706,-0.499275 3.732128,-0.275411 3.732127,-0.275411 10.186458,-0.264795 10.186459,-0.264796 31.75,0.0066 31.75,0.0066 41.33163,0.252675 41.33163,0.252674 2.85475,0.269211 2.85474,0.269212 1.97618,0.547626 1.97617,0.547627 2.12391,1.094247 2.12391,1.094246 1.86506,1.865067 1.86507,1.86506 1.08131,2.11667 1.08132,2.11667 0.40918,1.45521 0.40917,1.4552 0.27877,1.5875 0.27876,1.5875 0.26966,3.04271 0.26967,3.04271 -0.0105,23.68021 -0.0105,23.68021 -0.0959,24.73854 -0.0959,24.73854 -0.30152,2.37495 -0.30152,2.37495 -0.53878,2.11021 -0.53879,2.11022 -0.30153,0.54192 -0.30152,0.54192 0.0562,0.19844 0.0562,0.19843 h -0.30868 -0.30868 l 0.17117,0.17118 0.17118,0.17118 -0.85468,1.61472 -0.85469,1.61472 -1.59676,1.58754 -1.59676,1.58754 -1.71053,0.99919 -1.71053,0.99919 -1.71979,0.54269 -1.71979,0.54269 -0.92656,0.0556 -0.92655,0.0556 -0.26407,0.16198 -0.26407,0.16197 -4.84616,0.30815 -4.84615,0.30815 -64.47468,0.0527 -64.474683,0.0526 z M 186.92,166.95215 c 6.94096,-71.236066 -34.69432,-62.42929 -92.067225,-63.03479 l -11.687858,0.30135 -11.687857,0.30135 -5.906935,0.36886 -5.906934,0.36887 -0.396875,0.0117 -0.396875,0.0117 -3.704167,0.41593 -3.704167,0.41593 -3.175,0.52726 -3.175,0.52725 -2.513541,0.66683 -2.513542,0.66684 -1.450575,0.66386 -1.450575,0.66386 -1.736048,1.31981 -1.736047,1.31981 -1.061589,1.37865 -1.06159,1.37864 -0.675987,1.19063 -0.675987,1.19062 -0.71392,1.80422 -0.713919,1.80422 -0.503977,2.30913 -0.503976,2.30914 -0.402992,3.29498 -0.402992,3.29498 -0.268465,8.20208 -0.268465,8.20208 0.03929,19.71146 0.03929,19.71146 0.217538,6.21771 0.217538,6.21771 0.399441,3.19025 0.399441,3.19026 0.796503,3.1538 0.796503,3.15381 1.091987,2.18397 1.091987,2.18397 1.560869,1.70342 1.560869,1.70341 1.649594,1.03996 1.649594,1.03997 2.38125,0.93372 2.38125,0.93372 2.910417,0.67297 2.910417,0.67296 3.042708,0.4031 3.042708,0.4031 1.852084,0.16261 1.852083,0.1626 0.79375,0.0983 0.79375,0.0983 4.7625,0.28634 4.7625,0.28635 1.5875,0.12697 1.5875,0.12697 7.540625,0.16293 7.540626,0.16292 0.132291,0.13197 0.132292,0.13197 23.415625,-0.19285 c 58.09527,1.92183 75.51632,-0.61515 75.53076,-62.0419 z M 130.13469,88.242326 130.00618,88.11382 113.50471,88.10226 97.003229,88.0907 l 1.438489,-1.466686 1.43849,-1.466686 1.785942,-1.306608 1.78593,-1.306609 0.004,0.201384 0.004,0.201385 0.19438,-0.296603 0.19439,-0.296603 1.61422,-0.811783 1.61422,-0.811783 1.6382,-0.551871 1.63821,-0.551871 2.03924,-0.414727 2.03924,-0.414727 4.91266,-0.141368 4.91265,-0.141367 2.76026,0.316448 2.76027,0.316448 1.71979,0.420553 1.71979,0.420553 2.26109,0.973114 2.26109,0.973115 1.83995,1.07512 1.83995,1.075121 1.91823,1.84073 1.91823,1.840729 v 0.302365 0.302365 h -7.49653 -7.49653 z"
         id="path16" /><path
         style="fill:#131408"
         d="m 50.783975,267.67233 -1.206649,-0.33591 -0.906653,-0.52951 -0.906652,-0.52951 -0.764042,-1.23581 -0.764042,-1.23581 0.0092,-1.66174 0.0092,-1.66175 1.36602,-3.70416 1.36602,-3.70417 1.435962,-4.0072 1.435962,-4.0072 v -0.39752 -0.39752 l -6.823533,-0.008 -6.823534,-0.008 -2.767612,-0.29859 -2.767612,-0.29858 -2.625337,-0.52888 -2.625337,-0.52888 -2.004872,-0.77456 -2.004871,-0.77456 -2.083359,-1.22119 -2.083359,-1.22119 -2.282266,-2.30006 -2.282266,-2.30007 -1.122236,-1.90732 -1.122235,-1.90731 -0.66039,-1.62523 -0.66039,-1.62523 -0.520753,-1.88076 -0.520754,-1.88077 -0.3424546,-2.91041 -0.3424545,-2.91042 v -50.40313 -50.40312 l 0.3560445,-2.77813 0.3560446,-2.77812 0.656328,-2.64584 0.656329,-2.64583 0.905708,-2.063 0.905707,-2.063 0.884341,-1.38244 0.884341,-1.382451 1.546371,-1.670265 1.54637,-1.670264 1.518604,-1.168539 1.518604,-1.168539 1.937812,-1.040119 1.937813,-1.040118 2.750874,-0.812903 2.750874,-0.812903 3.069959,-0.416092 3.06996,-0.416093 5.291666,-0.19418 5.291667,-0.194181 20.505209,0.02805 20.505208,0.02805 0.926042,-1.429629 0.926042,-1.429628 2.976562,-3.04098 2.976563,-3.04098 V 79.218258 79.11638 L 92.677916,74.681275 89.312113,70.24617 83.247086,62.176378 77.182058,54.106586 76.281192,52.754443 75.380326,51.402301 73.294485,51.259334 71.208645,51.116367 69.839921,50.371414 68.471196,49.626461 67.700002,48.691524 66.928808,47.756586 66.405013,46.357598 65.881218,44.958611 V 43.56046 42.16231 l 0.421224,-1.236224 0.421224,-1.236224 1.172147,-1.30371 1.172148,-1.30371 1.368995,-0.682199 1.368995,-0.682199 1.998571,0.0058 1.998571,0.0058 1.190625,0.537832 1.190625,0.537832 1.015047,0.977712 1.015047,0.977711 0.681918,1.322916 0.681917,1.322917 0.110534,1.984375 0.110534,1.984375 -0.668151,1.298484 -0.668151,1.298484 2.035653,2.547748 2.035652,2.547749 2.705322,3.562101 2.705321,3.562101 5.723039,7.672917 5.723045,7.672916 0.41591,0.445138 1.80464,-0.835286 1.80464,-0.835287 2.25904,-0.655077 2.25904,-0.655077 2.38125,-0.444783 2.38125,-0.444783 5.95313,0.0061 5.95312,0.0061 2.64584,0.476542 2.64583,0.476541 3.43959,1.166514 3.43958,1.166513 0.39687,0.125407 0.39688,0.125406 1.44442,-2.046313 1.44442,-2.046313 5.80563,-7.9375 5.80562,-7.9375 2.82431,-3.711684 2.82431,-3.711684 0.2736,-0.488899 0.2736,-0.488899 -0.3591,-0.719834 -0.3591,-0.719833 -0.26222,-1.382699 -0.26222,-1.382699 0.26693,-1.191099 0.26693,-1.191099 0.62972,-1.237035 0.62973,-1.237036 0.6215,-0.566126 0.6215,-0.566127 1.45521,-0.733842 1.45521,-0.733843 1.99426,-0.02082 1.99427,-0.02082 1.75534,0.864154 1.75535,0.864154 0.82029,1.238413 0.82029,1.238413 0.39104,1.316763 0.39103,1.316763 v 1.000386 1.000386 l -0.5453,1.457455 -0.5453,1.457455 -1.12995,1.162628 -1.12994,1.162628 -1.50968,0.564842 -1.50968,0.564842 h -1.43641 -1.43641 l -1.26564,1.708898 -1.26564,1.708898 -2.23641,3.119748 -2.23641,3.119748 -3.05002,4.101042 -3.05001,4.101042 -0.6667,0.977929 -0.6667,0.977929 -2.64584,3.605584 -2.64583,3.605585 -0.35871,0.503253 -0.35871,0.503253 0.88788,0.718372 0.88787,0.718373 2.26694,2.304565 2.26693,2.304566 1.12812,1.731494 1.12811,1.731495 26.10599,0.01836 26.106,0.01836 2.11666,0.142984 2.11667,0.142983 2.77812,0.402517 2.77813,0.402518 2.30783,0.766107 2.30783,0.766106 1.66092,0.832426 1.66092,0.832427 1.59417,1.130359 1.59418,1.13036 1.76988,1.876164 1.76987,1.876163 1.2046,2.055502 1.20461,2.05551 0.54907,1.45521 0.54908,1.45521 0.52953,1.98438 0.52952,1.98437 0.40772,2.51354 0.40771,2.51354 0.11522,48.81563 0.11522,48.81563 -0.29071,4.35092 -0.2907,4.35092 -0.55102,2.66053 -0.55102,2.66054 -0.78601,1.98438 -0.78601,1.98437 -0.55188,0.92604 -0.55189,0.92605 -1.33097,1.82281 -1.33097,1.82281 -1.99814,1.70607 -1.99814,1.70607 -1.66226,0.93048 -1.66226,0.93047 -2.69384,0.90542 -2.69385,0.90542 -2.78765,0.49739 -2.78764,0.4974 -2.24896,0.16554 -2.24896,0.16554 -6.2834,0.0577 -6.28339,0.0577 -4.6e-4,0.20341 -4.6e-4,0.2034 0.68174,1.91326 0.68173,1.91326 1.46121,4.23334 1.4612,4.23333 0.63515,1.98437 c 4.02807,12.58477 -19.92926,11.99479 -26.11584,3.87366 -1.92731,-3.54167 -3.90726,-7.05421 -5.87455,-10.57374 l -3.96736,-7.0977 -0.42301,-0.44293 -0.42301,-0.44292 -39.2319,0.13229 -39.231909,0.13229 -0.683649,1.19063 -0.683648,1.19062 -3.569399,6.35 -3.569398,6.35 -1.494217,2.50774 -1.494217,2.50773 -1.018866,1.02468 -1.018867,1.02467 -1.230092,0.56863 -1.230091,0.56864 -7.672917,0.0588 -7.672917,0.0588 z m 12.435364,-5.70647 2.762048,-0.20649 0.809827,-0.93875 0.809827,-0.93876 3.761344,-6.57895 3.761343,-6.57895 0.405844,-0.98369 0.405844,-0.98369 v -0.27308 -0.27308 h -8.448837 -8.448837 l -0.176611,0.59531 -0.176611,0.59531 -0.92276,2.51354 -0.92276,2.51355 -1.802039,4.6302 -1.802039,4.63021 -0.170891,0.81774 -0.170891,0.81774 0.342492,0.28333 0.342492,0.28333 0.79375,0.11606 0.79375,0.11606 2.645833,0.0248 2.645834,0.0248 z m 128.405141,-0.19887 0.46302,-0.12973 v -0.90064 -0.90064 l -1.49641,-4.04247 -1.49641,-4.04247 -1.35568,-3.70416 -1.35567,-3.70417 -8.44184,-0.0699 -8.44184,-0.0699 -0.18254,0.20222 -0.18255,0.20222 2.90973,5.02709 2.90972,5.02708 1.79338,3.04387 1.79338,3.04387 0.58207,0.52801 0.58208,0.528 2.95015,0.15974 2.95014,0.15973 2.77812,-0.11398 2.77813,-0.11398 z m 16.86719,-24.68406 4.10104,-0.31367 2.22841,-0.51862 2.22841,-0.51862 1.65379,-0.81416 1.65379,-0.81416 1.53574,-1.23722 1.53574,-1.23722 1.02197,-1.31619 1.02196,-1.31619 0.75891,-1.5875 0.7589,-1.5875 0.66908,-2.38125 0.66908,-2.38125 0.28719,-1.98438 0.28719,-1.98437 0.23991,-44.45001 0.23991,-44.45 -0.15242,-5.55625 -0.15242,-5.55625 -0.35864,-2.97564 -0.35863,-2.97565 -0.43456,-1.78685 -0.43456,-1.78686 -1.05886,-2.22014 -1.05886,-2.22014 -2.15718,-2.15468 -2.15718,-2.15469 -2.24896,-1.094688 -2.24896,-1.094689 -2.24896,-0.540563 -2.24896,-0.540563 -2.91041,-0.163533 -2.91042,-0.163534 -4.7625,-0.07908 -4.7625,-0.07908 -68.13021,-0.195893 -68.130209,-0.195893 -10.583334,0.298292 -10.583333,0.298293 -3.007554,0.267194 -3.007553,0.267193 -1.887238,0.416868 -1.887239,0.416868 -2.116666,1.016184 -2.116667,1.016185 -1.5875,1.350569 -1.5875,1.35056 -0.897033,1.1151 -0.897033,1.1151 -0.879187,1.87986 -0.879186,1.87985 -0.525478,1.95661 -0.525478,1.9566 -0.344136,2.24896 -0.344136,2.24896 v 51.59375 51.59375 l 0.476177,2.47631 0.476176,2.4763 0.623837,1.65738 0.623837,1.65739 0.726947,1.15797 0.726946,1.15798 0.830981,0.97668 0.83098,0.97668 1.31081,1.0397 1.310809,1.0397 1.613449,0.81141 1.61345,0.81141 1.693842,0.52825 1.693843,0.52826 1.852083,0.29207 1.852084,0.29207 3.571875,0.22434 3.571875,0.22435 8.054608,0.037 81.233451,0.20146 72.90153,-0.11285 z m -120.914587,-8.109 -3.571875,-0.0809 -7.672917,-0.29227 -7.672917,-0.29228 -6.879166,-0.52756 -6.879167,-0.52755 -3.571875,-0.51653 -3.571875,-0.51653 -2.739384,-0.66479 -2.739384,-0.66479 -1.758533,-0.69387 -1.758533,-0.69388 -1.719791,-0.94975 -1.719792,-0.94975 -1.724712,-1.72726 -1.724712,-1.72726 -1.094421,-2.11667 -1.094422,-2.11666 -0.676605,-2.24896 -0.676605,-2.24896 -0.546589,-3.19868 -0.546589,-3.19867 -0.266795,-4.60653 -0.266795,-4.60654 -0.15409,-19.18229 -0.15409,-19.18229 0.301348,-10.98021 0.301348,-10.98021 0.386087,-3.61629 0.386088,-3.61629 0.532864,-2.39224 0.532863,-2.39225 0.673839,-1.79022 0.673839,-1.79023 0.91807,-1.64166 0.918069,-1.64166 1.340609,-1.46684 1.340608,-1.46684 1.812832,-1.20517 1.812833,-1.20517 1.540272,-0.53644 1.540273,-0.53645 2.702965,-0.64482 2.702965,-0.64482 2.588701,-0.38532 2.588702,-0.38531 3.870388,-0.40307 3.870387,-0.40308 6.977529,-0.39958 6.97753,-0.39957 12.038541,-0.26762 12.038542,-0.26762 12.038539,0.13885 12.03854,0.13885 8.46667,0.26506 8.46667,0.26506 6.35,0.39105 6.35,0.39104 4.23333,0.40436 4.23334,0.40435 3.57187,0.52077 3.57188,0.52077 1.32291,0.28937 1.32292,0.28937 1.71979,0.5137 1.71979,0.51371 1.97244,0.9735 1.97243,0.97349 1.99632,1.99222 1.99631,1.99221 1.10872,1.98437 1.10871,1.98438 0.8043,2.72883 0.8043,2.72883 0.3972,2.29825 0.3972,2.29825 0.40707,4.23334 0.40706,4.23333 0.28422,9.26042 0.28421,9.26041 -0.15819,17.99167 -0.15818,17.99167 -0.27948,4.7625 -0.27948,4.7625 -0.49991,3.30729 -0.49991,3.30729 -0.68681,2.36037 -0.68682,2.36037 -0.92136,1.83586 -0.92135,1.83587 -0.76748,1.11549 -0.76748,1.11549 -1.61297,1.49333 -1.61297,1.49332 -1.79467,1.0662 -1.79468,1.0662 -2.12202,0.77444 -2.12201,0.77444 -3.19848,0.67531 -3.19848,0.67532 -3.26325,0.3924 -3.26326,0.39241 -1.71979,0.13876 -1.71979,0.13876 -3.70417,0.26926 -3.70416,0.26925 -7.67292,0.25952 -7.67292,0.25952 -19.57917,0.0991 -19.579162,0.0991 z m 49.212497,-6.8322 8.59896,-0.41068 3.70417,-0.27167 3.70417,-0.27168 2.91041,-0.25192 2.91042,-0.25191 1.98437,-0.2632 1.98438,-0.26319 2.64583,-0.5269 2.64584,-0.5269 1.17794,-0.41834 1.17794,-0.41834 1.63623,-0.91503 1.63623,-0.91504 1.35888,-1.48683 1.35888,-1.48683 1.03498,-2.15507 1.03497,-2.15507 0.40083,-1.98438 0.40083,-1.98437 0.26563,-2.24896 0.26563,-2.24896 0.16823,-3.43958 0.16823,-3.43959 0.10637,-0.66146 0.10636,-0.66145 -0.002,-21.43126 -0.002,-21.43125 -0.25607,-7.27604 -0.25607,-7.27604 -0.25127,-2.38125 -0.25126,-2.38125 -0.2874,-1.98437 -0.28739,-1.98438 -0.67851,-2.11667 -0.67851,-2.11666 -0.76614,-1.34566 -0.76615,-1.34567 -1.05963,-1.2038 -1.05963,-1.2038 -1.28784,-0.8264 -1.28784,-0.82641 -1.82513,-0.6186 -1.82513,-0.6186 -1.71979,-0.29578 -1.71979,-0.29577 -1.85209,-0.26832 -1.85208,-0.26831 -2.51354,-0.26103 -2.51354,-0.26104 -1.98438,-0.14043 -1.98437,-0.14043 -3.43959,-0.26694 -3.43958,-0.26693 -10.71563,-0.26543 -10.71562,-0.26543 -17.06563,-0.16863 -17.065622,-0.16863 -10.186459,0.30522 -10.186458,0.30523 -5.55625,0.26977 -5.55625,0.26977 -2.778125,0.27263 -2.778125,0.27262 -1.322917,0.24081 -1.322917,0.2408 -2.248958,0.41147 -2.248958,0.41147 -2.116667,1.01246 -2.116667,1.01247 -1.401841,1.26644 -1.401842,1.26644 -1.160679,2.41831 -1.160679,2.41832 -0.550125,2.12229 -0.550125,2.1223 -0.256399,1.83952 -0.256399,1.83953 -0.330786,5.02708 -0.330786,5.02709 -0.0043,21.82812 -0.0043,21.82813 0.202562,5.29167 0.202563,5.29166 0.393596,4.63021 0.393596,4.63021 0.148544,0.79375 0.148545,0.79375 0.540219,2.24896 0.540219,2.24896 1.024394,2.15523 1.024393,2.15523 1.187122,1.04494 1.187122,1.04495 1.927521,0.97069 1.927521,0.9707 2.498073,0.53882 2.498073,0.53883 2.264427,0.23534 2.264427,0.23535 2.910416,0.40054 2.910417,0.40055 3.704167,0.26662 3.704167,0.26662 6.217708,0.28662 6.217708,0.28661 2.910417,0.0812 2.910417,0.0812 21.69583,-0.0741 21.69584,-0.0741 z m 3.83646,-13.22705 -1.32291,-0.32574 -0.92605,-0.44631 -0.92604,-0.44632 -1.3008,-0.99138 -1.3008,-0.99139 -0.88201,-1.28566 -0.88201,-1.28566 v -0.97057 -0.97057 l 0.40467,-0.57776 0.40468,-0.57775 0.93798,-0.25899 0.93797,-0.25899 0.44329,0.1552 0.44328,0.1552 0.72761,0.67217 0.7276,0.67218 v 0.34737 0.34737 l 1.02649,1.0265 1.0265,1.02649 1.39015,0.46174 1.39014,0.46173 1.75266,-0.1254 1.75265,-0.12541 0.83753,-0.4331 0.83753,-0.4331 0.67979,-0.73129 0.67979,-0.73128 0.87336,-1.19063 0.87337,-1.19062 1.27749,-0.082 1.27749,-0.082 0.62919,0.5911 0.6292,0.5911 v 1.225 1.22499 l -0.79863,1.25932 -0.79864,1.25932 -0.72272,0.62453 -0.72271,0.62453 -1.5875,0.78427 -1.5875,0.78427 -1.40209,0.2941 -1.40209,0.2941 -2.03749,-0.0225 -2.0375,-0.0225 z m -14.9273,-13.33416 -0.90438,-0.45031 -1.00501,-1.45521 -1.00501,-1.45521 -0.42339,-1.87832 -0.42339,-1.87831 0.24972,-2.27263 0.24973,-2.27263 0.79487,-1.69861 0.79487,-1.6986 0.89131,-0.66235 0.89131,-0.66234 0.89938,-0.30113 0.89938,-0.30112 h 1.11883 1.11883 l 0.89221,0.3752 0.89221,0.37521 0.70863,0.74927 0.70863,0.74928 0.74238,1.45521 0.74239,1.45521 0.004,3.57187 0.004,3.57188 -0.61119,1.22854 -0.61118,1.22854 -0.97632,0.9776 -0.97631,0.97761 -0.89221,0.37354 -0.89221,0.37354 -1.48904,-0.0127 -1.48905,-0.0127 z m 31.86064,-0.0192 -0.79375,-0.49298 -0.58003,-0.63129 -0.58002,-0.63129 -0.74106,-1.58672 -0.74105,-1.58672 -0.002,-3.175 -0.002,-3.175 0.74256,-1.5875 0.74257,-1.5875 0.71264,-0.76097 0.71265,-0.76096 1.05833,-0.49 1.05834,-0.48999 1.13297,-0.006 1.13298,-0.006 0.92172,0.38512 0.92172,0.38512 0.81925,0.87165 0.81925,0.87165 0.62483,1.33151 0.62483,1.33151 0.30231,2.03263 0.30232,2.03263 -0.46449,1.92753 -0.46448,1.92753 -0.38967,0.79375 -0.38966,0.79375 -0.83028,0.88308 -0.83027,0.88308 -0.98165,0.50598 -0.98165,0.50598 -1.53189,-9.9e-4 -1.53189,-9.9e-4 z m -74.744797,0.0525 -0.926042,-0.0932 -1.719792,-0.27313 -1.719791,-0.27314 -2.645834,-0.81551 -2.645833,-0.8155 -1.322917,-0.65776 -1.322916,-0.65775 -1.507648,-0.90701 -1.507648,-0.90701 -2.064227,0.40621 -2.064227,0.40622 -3.96875,0.34965 -3.968751,0.34965 -3.352275,-0.18726 -3.352275,-0.18725 -1.8071,-0.59479 -1.8071,-0.59479 -1.455208,-0.73355 -1.455208,-0.73356 -0.979131,-1.01537 -0.97913,-1.01538 -0.55153,-1.24982 -0.55153,-1.24982 -0.147308,-1.66059 -0.147309,-1.6606 0.283277,-1.71979 0.283277,-1.71979 0.939261,-1.90435 0.939262,-1.90434 2.006733,-2.13317 2.006732,-2.13317 1.923301,-1.54722 1.9233,-1.54721 1.844822,-1.23774 1.844821,-1.23774 0.171798,-2.44403 0.171798,-2.44402 0.502017,-3.03663 0.502017,-3.03664 0.305027,-0.79375 0.305028,-0.79375 0.443888,-1.05833 0.443889,-1.05833 1.018777,-1.98438 1.018778,-1.98437 1.43002,-1.87731 1.43002,-1.87731 2.318422,-2.2296 2.318423,-2.2296 1.852083,-1.21349 1.852084,-1.21349 1.719791,-0.93098 1.719792,-0.93099 1.852083,-0.68445 1.852084,-0.68446 1.190625,-0.27525 1.190625,-0.27525 3.042708,-0.39357 3.042708,-0.39357 1.803958,-0.002 1.803958,-0.002 2.958542,0.41927 2.958543,0.41928 2.778125,0.93424 2.778125,0.93424 1.774375,0.89295 1.77438,0.89294 1.92979,1.31135 1.92979,1.31135 1.17957,1.20469 1.17956,1.20469 h 0.49951 0.4995 l 1.36364,-0.38863 1.36363,-0.38863 2.75859,-0.40512 2.75858,-0.40512 3.59142,0.002 3.59141,0.002 1.7198,0.26915 1.71979,0.26915 0.79375,0.30603 0.79375,0.30602 1.38153,0.86993 1.38153,0.86994 0.7892,1.08945 0.7892,1.08945 0.40896,1.40677 0.40895,1.40677 -0.003,1.28219 -0.003,1.2822 -0.35931,1.34935 -0.35931,1.34936 -0.74438,1.29648 -0.74438,1.29647 -2.3989,2.88132 -2.39889,2.88132 -3.43959,2.91737 -3.43958,2.91737 -1.45521,0.92543 -1.45521,0.92542 -0.16266,0.24508 -0.16266,0.24507 -0.16797,1.80727 -0.16797,1.80727 -0.75521,2.20375 -0.75521,2.20375 -0.62244,1.32292 -0.62243,1.32292 -1.19106,1.85208 -1.19105,1.85208 -1.97736,2.24896 -1.97735,2.24896 -1.07644,0.99784 -1.07644,0.99785 -2.11667,1.42053 -2.11666,1.42053 -1.64169,0.82054 -1.64169,0.82055 -1.797895,0.68925 -1.797894,0.68925 -0.79375,0.24399 -0.79375,0.24399 -2.489543,0.52419 -2.489542,0.5242 -2.934416,-0.0423 -2.934416,-0.0423 z m 6.614583,-4.96966 2.778125,-0.37471 1.852084,-0.57654 1.852083,-0.57653 1.5875,-0.79428 1.5875,-0.79427 1.827552,-1.20771 1.82755,-1.20772 1.72276,-1.60566 1.72276,-1.60566 1.53193,-1.92173 1.53193,-1.92174 0.94191,-1.68429 0.94191,-1.6843 0.65658,-1.93041 0.65658,-1.93042 v -0.21496 -0.21495 l -1.38907,0.88632 -1.38906,0.88631 -3.04271,1.71533 -3.04271,1.71533 -4.101037,2.13119 -4.101042,2.13119 -2.981061,1.35469 -2.981061,1.3547 -3.633522,1.47805 -3.633523,1.47805 -3.836458,1.27763 -3.836458,1.27762 1.735097,0.79038 1.735098,0.79038 1.655263,0.42893 1.655262,0.42892 1.504432,0.22069 1.504431,0.22069 1.190625,0.0271 1.190625,0.0271 z m -32.15144,-4.13126 3.170434,-0.28503 2.914982,-0.51914 2.914982,-0.51913 3.500769,-0.915 3.500769,-0.915 4.039856,-1.34321 4.039856,-1.34321 4.365625,-1.73386 4.365626,-1.73386 5.820833,-2.82624 5.820832,-2.82623 3.57188,-2.07293 3.57187,-2.07292 3.30729,-2.11758 3.30729,-2.11758 2.91042,-2.16711 2.91042,-2.16711 1.85208,-1.6514 1.85208,-1.65139 1.01739,-1.10444 1.01738,-1.10445 1.14892,-1.52803 1.14892,-1.52803 0.56405,-1.50756 0.56405,-1.50756 -0.16372,-0.87267 -0.16371,-0.87267 -0.79304,-0.90322 -0.79303,-0.90322 -1.28003,-0.42516 -1.28003,-0.42515 -3.72613,0.005 -3.72613,0.005 -1.26536,0.28687 -1.26536,0.28688 -1.12448,0.28265 -1.12448,0.28264 v 0.1978 0.19781 l 0.35601,0.29545 0.356,0.29546 0.48547,1.07656 0.48546,1.07657 0.67988,-0.21515 0.67989,-0.21514 h 2.33886 2.33887 l 0.50541,0.62462 0.5054,0.62463 v 0.85136 0.85137 l -0.80362,1.21326 -0.80363,1.21325 -1.8735,1.76737 -1.8735,1.76737 -2.94527,2.18882 -2.94527,2.18883 -2.77812,1.71327 -2.77813,1.71327 -3.83646,2.13758 -3.836455,2.13758 -4.862572,2.29037 -4.862571,2.29036 -3.868679,1.54078 -3.868679,1.54077 -4.801493,1.60295 -4.801494,1.60296 -3.175999,0.80181 -3.175999,0.80182 -2.850799,0.42352 -2.850799,0.42353 -2.400875,-0.0901 -2.400875,-0.0901 -1.058334,-0.55265 -1.058333,-0.55265 -0.333014,-0.99653 -0.333015,-0.99652 0.31967,-1.06697 0.31967,-1.06696 1.265627,-1.3848 1.265627,-1.38479 -0.376851,-1.15844 -0.376852,-1.15844 -0.08168,-0.50111 -0.08168,-0.50111 -2.171834,1.63704 -2.171835,1.63705 -1.713558,1.8775 -1.713559,1.8775 -0.787663,1.48448 -0.787664,1.48448 -0.172536,1.19063 -0.172536,1.19062 0.632868,1.19063 0.632868,1.19062 1.037724,0.71183 1.037725,0.71182 1.5875,0.41179 1.5875,0.41179 0.926042,0.0705 0.926041,0.0706 0.926042,0.0636 0.926042,0.0636 z m 0.094,-6.79463 -0.296093,-0.7276 -0.409852,-0.92605 -0.409852,-0.92604 -0.843742,-1.9267 -0.843742,-1.92671 -1.1687,1.29987 -1.168701,1.29988 -0.274787,0.89534 -0.274787,0.89534 0.30789,0.91444 0.307891,0.91445 0.772727,0.4693 0.772727,0.4693 1.912557,10e-4 1.912557,0.001 z m 10.150698,-5.10397 3.096385,-0.76757 3.385907,-1.09774 3.385906,-1.09774 4.591637,-1.83015 4.591637,-1.83015 4.271905,-2.00391 4.271905,-2.00391 1.984375,-1.06608 1.984375,-1.06609 2.778124,-1.5885 2.77813,-1.5885 2.38125,-1.58729 2.38125,-1.58729 1.11764,-0.90033 1.11765,-0.90032 -0.65731,-1.74631 -0.6573,-1.7463 -0.83287,-1.48273 -0.83287,-1.48273 -0.92696,-1.19062 -0.92696,-1.19063 -1.34635,-1.40662 -1.34634,-1.40662 -1.71979,-1.26732 -1.71979,-1.26732 -1.754222,-0.96911 -1.754217,-0.96911 -1.843609,-0.64412 -1.843608,-0.64412 -1.958424,-0.46681 -1.958424,-0.46681 -4.233334,-5e-4 -4.233333,-5e-4 -2.166536,0.5742 -2.166536,0.57419 -1.841925,0.78381 -1.841926,0.78381 -1.890071,1.24519 -1.890071,1.24518 -2.109093,1.98409 -2.109094,1.98408 -1.491211,2.24115 -1.491212,2.24116 -0.985253,2.29168 -0.985253,2.29167 -0.560109,2.22467 -0.56011,2.22467 -0.16614,2.80242 -0.16614,2.80241 0.299609,2.43031 0.299609,2.43032 0.54677,1.80302 0.54677,1.80302 0.822403,1.80854 0.822403,1.80854 1.207183,-0.17336 1.207183,-0.17336 z m 54.463656,-25.17361 0.2836,-1.05321 -0.41906,-0.63957 -0.41907,-0.63958 h -2.4858 -2.4858 l -0.39753,0.15255 -0.39752,0.15254 1.14582,2.82402 1.14581,2.82402 0.17915,0.52916 0.17915,0.52917 1.69383,-1.81294 1.69382,-1.81295 z m -93.940248,36.69369 v -0.1323 H 27.91354 27.781249 v 0.1323 0.13229 h 0.132291 0.132292 z M 186.00208,151.47396 v -0.13229 h -0.13229 -0.13229 v 0.13229 0.13229 h 0.13229 0.13229 z m 12.46093,60.12266 -0.63596,-0.32683 -0.55467,-0.747 -0.55467,-0.74701 v -1.43072 -1.43072 l 0.86463,-0.86498 0.86463,-0.86498 8.26349,-0.0825 8.2635,-0.0825 0.97799,0.2873 0.978,0.2873 0.51348,0.65278 0.51348,0.65279 0.17343,0.92443 0.17342,0.92442 -0.28929,1.07432 -0.28928,1.07432 -0.84645,0.51611 -0.84645,0.51611 -16.93333,-0.006 z m 4.91191,-13.6883 -4.98446,-0.13229 -0.62614,-0.72865 -0.62615,-0.72864 -0.17832,-0.95052 -0.17832,-0.95052 0.30546,-1.01953 0.30546,-1.01952 0.72096,-0.50533 0.72097,-0.50532 16.75389,-0.36565 0.95914,0.40076 0.95914,0.40075 0.41538,0.99416 0.41539,0.99416 -0.12375,1.28788 -0.12375,1.28788 -0.66609,0.66609 -0.6661,0.66609 -1.28871,0.24433 -1.28871,0.24432 -2.91042,-0.0741 -2.91041,-0.0741 z m -4.83125,-20.60241 -0.81987,-0.5078 -0.45626,-1.1403 -0.45626,-1.14031 0.1709,-0.91098 0.1709,-0.91098 0.39052,-0.59602 0.39053,-0.59602 0.71471,-0.2796 0.7147,-0.2796 8.46667,-0.0754 8.46667,-0.0754 0.59257,0.33604 0.59257,0.33605 0.39962,0.77276 0.39961,0.77277 v 1.10639 1.10639 l -0.52267,0.84569 -0.52267,0.8457 -0.7341,0.37616 -0.7341,0.37616 -8.20208,0.073 -8.20209,0.073 z m -0.17232,-13.81462 -0.46303,-0.26968 -0.39687,-0.76746 -0.39687,-0.76747 v -1.08461 -1.08461 l 0.40136,-0.77613 0.40135,-0.77613 0.85542,-0.45104 0.85542,-0.45104 8.06979,-0.0998 8.06979,-0.0998 0.87582,0.55214 0.87581,0.55214 0.38096,0.91175 0.38095,0.91175 v 0.69611 0.69612 l -0.43255,0.91154 -0.43255,0.91153 -0.74494,0.38522 -0.74493,0.38522 -8.54595,-0.008 -8.54595,-0.008 z m 5.45519,-24.69481 -1.887,-0.95393 -1.11327,-1.20775 -1.11326,-1.20775 -0.69974,-1.50155 -0.69974,-1.50155 0.004,-2.38125 0.004,-2.38125 0.56871,-1.2481 0.56872,-1.2481 1.22232,-1.30676 1.22232,-1.30676 1.50837,-0.725 1.50837,-0.725 2.02498,-0.1261 2.02498,-0.12609 1.41461,0.3354 1.4146,0.33541 1.13302,0.77403 1.13301,0.77403 1.02502,1.29674 1.02501,1.29673 0.44884,1.17528 0.44884,1.17527 -0.0975,2.33805 -0.0975,2.33805 -0.70234,1.5072 -0.70234,1.5072 -1.2259,1.2259 -1.2259,1.2259 -1.46604,0.67117 -1.46605,0.67118 -2.15782,0.12667 -2.15782,0.12667 z m -58.81446,-51.190736 -0.56649,-0.795556 -1.77748,-1.605517 -1.77748,-1.605518 -3.08781,-1.567986 -3.08781,-1.567986 -2.20386,-0.65829 -2.20386,-0.65829 -2.38125,-0.272819 -2.38125,-0.272818 -2.38125,-0.161482 -2.38125,-0.161482 -3.34838,0.29187 -3.34837,0.291869 -1.94957,0.373013 -1.94956,0.373014 -1.9781,0.709849 -1.9781,0.70985 -1.05834,0.534622 -1.05833,0.534623 -1.86917,1.259933 -1.86916,1.259934 -1.663469,1.67869 -1.663466,1.67869 20.995135,0.187915 20.99513,0.187915 3.175,0.07667 3.175,0.07667 0.095,-0.05091 0.095,-0.05091 z"
         id="path14" /></g></g><style
     id="style1">@media (prefers-color-scheme: light) { :root { filter: none; } }
@media (prefers-color-scheme: dark) { :root { filter: none; } }
</style></svg>
